<?xml version="1.0" encoding="UTF-8"?>
<svg width="1130px" height="869px" viewBox="0 0 1130 869" version="1.1" xmlns="http://www.w3.org/2000/svg" xmlns:xlink="http://www.w3.org/1999/xlink">
    <!-- Generator: Sketch 52.1 (67048) - http://www.bohemiancoding.com/sketch -->
    <title>static/content/dashboard</title>
    <desc>Created with Sketch.</desc>
    <defs>
        <linearGradient x1="49.9900369%" y1="100.00609%" x2="49.9900369%" y2="-0.00757959559%" id="linearGradient-1">
            <stop stop-color="#808080" stop-opacity="0.25" offset="0%"></stop>
            <stop stop-color="#808080" stop-opacity="0.12" offset="54%"></stop>
            <stop stop-color="#808080" stop-opacity="0.1" offset="100%"></stop>
        </linearGradient>
    </defs>
    <g id="static/content/dashboard" stroke="none" stroke-width="1" fill="none" fill-rule="evenodd">
        <g id="undraw_dashboard_nklg-2">
            <path d="M1108.14,197.66 C1096.59191,175.221698 1081.44831,154.825295 1063.31,137.28 L441.45,132.1 L953.45,71.31 C919.948858,60.1007244 884.895116,54.22244 849.57,53.89 C800.28,20.24 736.93,0.05 667.83,0.05 C605.83,0.05 548.5,16.34 501.76,43.98 C462.04,26.68 416.76,16.87 368.65,16.87 C230.48,16.87 115.35,97.77 89.52,205.06 L1108.14,197.66 Z" id="Path" fill="#281FB5" opacity="0.1"></path>
            <path d="M1130,287.64 C1129.95719,258.241886 1123.33535,229.226052 1110.62,202.72 L32.86,298.36 C21.9205812,315.036744 13.4181304,333.189898 7.61,352.27 L341.36,394.33 L0,424.99 C10.27,546.45 133.43,642.35 283.88,642.35 C359.61,642.35 428.42,618.05 479.41,578.42 C530.56,618.8 600.03,643.63 676.58,643.63 C790.15,643.63 888.18,588.96 933.83,509.92 C1025.41,485.34 1096.55,423.64 1120.9,346.45 L698.83,291.11 L1130,291.11 C1130,289.95 1130,288.8 1130,287.64 Z" id="Path" fill="#281FB5" opacity="0.1"></path>
            <ellipse id="Oval" fill="#281FB5" opacity="0.1" cx="499.98" cy="855.15" rx="289.98" ry="12.94"></ellipse>
            <path d="M672.09,832.39 L672.09,840.21 L440.84,840.21 L440.84,833.86 C469.681311,823.174648 489.238884,796.159268 490.384057,765.423514 C491.52923,734.687761 474.036206,706.291925 446.07,693.49 L670.52,693.49 C643.2081,705.995083 625.82419,733.413563 626.163698,763.450236 C626.503205,793.48691 644.502421,820.505451 672.09,832.39 Z" id="Path" fill="#C8CAD7"></path>
            <path d="M670.52,693.49 C649.628538,703.08191 634.191701,721.602439 628.52,743.88 L488.08,743.88 C482.405666,721.603784 466.969665,703.084258 446.08,693.49 L670.52,693.49 Z" id="Path" fill="#000000" opacity="0.1"></path>
            <path d="M176,653.65 L176,697.55 C176,721.79 193.74,741.44 215.63,741.44 L896.05,741.44 C917.94,741.44 935.68,721.79 935.68,697.55 L935.68,653.65 L176,653.65 Z" id="Path" fill="#C8CAD7"></path>
            <path d="M672.09,832.39 L672.09,840.21 L440.84,840.21 L440.84,833.86 C447.17962,831.500917 453.17592,828.306029 458.67,824.36 L657.91,824.36 C662.336831,827.534608 667.090539,830.226587 672.09,832.39 Z" id="Path" fill="#000000" opacity="0.1"></path>
            <rect id="Rectangle" fill="#C8CAD7" x="364.42" y="826.8" width="384.09" height="23.17" rx="9.5"></rect>
            <path d="M935.68,172.62 C935.652406,150.754102 917.915915,133.044464 896.05,133.05 L215.66,133.05 C193.782374,133.027895 176.027598,150.742381 176,172.62 L176,662.19 L935.68,662.19 L935.68,172.62 Z" id="Path" fill="#474157"></path>
            <path d="M915,190.3 L915,610.97 C915.002655,616.145187 912.947995,621.109174 909.288585,624.768585 C905.629174,628.427995 900.665187,630.482655 895.49,630.48 L216.27,630.48 C211.094813,630.482655 206.130826,628.427995 202.471415,624.768585 C198.812005,621.109174 196.757345,616.145187 196.76,610.97 L196.76,190.3 C196.76,179.524925 205.494925,170.79 216.27,170.79 L895.44,170.79 C900.623031,170.776717 905.598331,172.826363 909.267987,176.486639 C912.937643,180.146914 915.000017,185.116952 915,190.3 Z" id="Path" fill="#4C4C78"></path>
            <circle id="Oval" fill="#FFFFFF" cx="555.85" cy="151.89" r="9.15"></circle>
            <circle id="Oval" fill="#FFFFFF" cx="555.85" cy="699.38" r="22.56"></circle>
            <path d="M348.53,180.55 L348.53,630.480003 L216.27,630.48 C211.094813,630.482655 206.130826,628.427995 202.471415,624.768585 C198.812005,621.109174 196.757345,616.145187 196.76,610.97 L196.76,190.3 L197.47,187.65 L199.37,180.55 L348.53,180.55 Z" id="Path" fill="#FFFFFF"></path>
            <polygon id="Path" fill="#4C4C78" points="365.5 187.65 365.5 228.15 196.76 228.15 196.76 190.3 197.47 187.65"></polygon>
            <path d="M915,190.3 L196.76,190.3 C196.759999,185.126545 198.81583,180.165128 202.474953,176.507881 C206.134075,172.850634 211.096546,170.797347 216.27,170.8 L895.44,170.8 C900.622109,170.784055 905.597439,172.831472 909.267385,176.490161 C912.937332,180.14885 915.000025,185.117866 915,190.3 Z" id="Path" fill="#C8CAD7"></path>
            <circle id="Oval" fill="#EDEDF4" cx="216.27" cy="180.55" r="4.88"></circle>
            <circle id="Oval" fill="#EDEDF4" cx="230.9" cy="180.55" r="4.88"></circle>
            <circle id="Oval" fill="#EDEDF4" cx="245.53" cy="180.55" r="4.88"></circle>
            <rect id="Rectangle" fill="#281FB5" x="221.98" y="205.48" width="101.33" height="9.33"></rect>
            <rect id="Rectangle" fill="#281FB5" opacity="0.5" x="221.98" y="250.98" width="101.33" height="9.33"></rect>
            <rect id="Rectangle" fill="#281FB5" opacity="0.5" x="221.98" y="283.15" width="101.33" height="9.33"></rect>
            <rect id="Rectangle" fill="#281FB5" opacity="0.5" x="221.98" y="315.32" width="101.33" height="9.33"></rect>
            <rect id="Rectangle" fill="#281FB5" opacity="0.5" x="221.98" y="347.48" width="101.33" height="9.33"></rect>
            <rect id="Rectangle" fill="#281FB5" opacity="0.5" x="221.98" y="379.65" width="101.33" height="9.33"></rect>
            <rect id="Rectangle" fill="#281FB5" opacity="0.5" x="221.98" y="411.82" width="101.33" height="9.33"></rect>
            <rect id="Rectangle" fill="#281FB5" opacity="0.5" x="221.98" y="443.98" width="101.33" height="9.33"></rect>
            <rect id="Rectangle" fill="#DCE0ED" opacity="0.5" x="431.49" y="239.79" width="449.01" height="1.5"></rect>
            <rect id="Rectangle" fill="#DCE0ED" opacity="0.5" x="431.49" y="274.62" width="449.01" height="1.5"></rect>
            <rect id="Rectangle" fill="#DCE0ED" opacity="0.5" x="431.49" y="309.46" width="449.01" height="1.5"></rect>
            <rect id="Rectangle" fill="#DCE0ED" opacity="0.5" x="431.49" y="344.29" width="449.01" height="1.5"></rect>
            <rect id="Rectangle" fill="#DCE0ED" opacity="0.5" x="431.49" y="379.12" width="449.01" height="1.5"></rect>
            <polygon id="Path" fill="#281FB5" opacity="0.5" points="880.51 380.61 430.94 380.61 430.94 312.11 472.17 332.43 514.84 338.21 552.28 326.92 597.45 291.89 620.17 278.77 636.78 275.57 652.67 276.42 678.81 289.33 714.33 311.96 742.21 315.55 764.32 307.93 811.17 269.55 835.09 261.02 860.12 264.89 880.51 276.66"></polygon>
            <path d="M509.3,338.23 C468.82,338.23 431.4,313.47 430.94,313.15 L432.05,311.49 C432.63,311.88 490.21,349.98 539.14,330.89 C557,323.94 569.68,313.11 582,302.65 C594.83,291.72 606.95,281.39 623.46,276.91 C642.46,271.78 663.11,276.43 678.84,289.35 C692.28,300.4 719.06,318.15 747.35,312.84 C761.77,310.14 773.93,299.6 786.8,288.45 C811.44,267.05 837,244.96 881.09,276.68 L879.92,278.3 C837.07,247.51 812.16,269.09 788.08,289.96 C775,301.3 762.64,311.96 747.69,314.81 C718.59,320.26 691.25,302.17 677.54,290.9 C662.31,278.38 642.28,273.9 623.96,278.85 C607.87,283.21 595.96,293.39 583.27,304.17 C570.86,314.74 558.02,325.68 539.87,332.76 C530.109304,336.470243 519.741647,338.325365 509.3,338.23 Z" id="Path" fill="#281FB5"></path>
            <circle id="Oval" fill="#281FB5" cx="647.55" cy="275.37" r="11.13"></circle>
            <path d="M368.62,517.24 C353.41,508.48 347.62,506.31 347.62,506.3 L347.31,506.08 C345.648636,504.805745 344.329249,503.139331 343.47,501.23 C343.47,500.88 343.47,500.53 343.47,500.23 L343.47,500.33 C343.72,495.69 347.01,491.48 350.14,487.8 C352.806667,484.66 355.473333,481.523333 358.14,478.39 C359.05913,477.437967 359.761814,476.298663 360.2,475.05 C360.362952,474.396262 360.436952,473.723527 360.42,473.05 C360.42,472.77 360.42,472.5 360.42,472.23 C360.42,469.89 360.31,467.55 360.23,465.23 C360.15,463.18 359.63,460.61 357.58,460.23 C356.52,460.01 355.12,460.39 354.58,459.48 C354.383611,459.108381 354.333658,458.676645 354.44,458.27 C354.44,458.27 354.44,458.33 354.44,458.36 C354.436111,458.323436 354.436111,458.286564 354.44,458.25 C354.834303,456.672139 355.088623,455.062565 355.2,453.44 C355.235977,452.616793 355.124212,451.793798 354.87,451.01 C353.68,447.62 349.61,446.23 346.01,445.59 C342.41,444.95 338.37,444.4 336.11,441.59 C335.49027,440.652951 334.822721,439.748421 334.11,438.88 C333.06288,437.957259 331.789472,437.329182 330.42,437.06 C325.953806,435.953561 321.246377,436.365197 317.04,438.23 C315.3,439.01 313.55,440.05 311.64,439.94 C309.73,439.83 307.96,438.44 306,438.11 C302.84,437.57 299.81,439.9 298.25,442.65 C297.324889,444.282203 296.832623,446.123898 296.82,448 C296.82,448.1 296.82,448.21 296.82,448.31 C296.780557,450.326918 297.51811,452.28179 298.88,453.77 C300.24,455.19 302.27,456.16 302.88,458.02 C303.11,458.78 303.06,459.6 303.26,460.36 C303.26,460.46 303.32,460.55 303.35,460.65 L303.24,460.78 C299.991721,464.960538 298.232043,470.105838 298.24,475.4 C298.3045,485.946973 305.176121,495.243872 315.24,498.4 C315.24,498.63 315.24,498.87 315.24,499.12 C315.377342,502.158057 314.170293,505.102526 311.94,507.17 L290.36,515.83 C290.36,515.83 277.36,514.29 272.68,533.28 C271.929846,536.431388 271.660135,539.678029 271.88,542.91 C272.05,545.78 271.65,550.82 268.32,557.34 C262.99,567.78 264.2,591.73 275.1,594.1 C285.39,596.34 289.42,595.41 289.84,595.3 L289.84,595.72 C289.67,600.22 288.04,638.98 282.11,643.72 C280.46,645.01 280.77,645.89 282.11,646.48 C282.11,646.48 282.11,646.73 282.11,647.18 C281.93,650.02 281.01,660.81 277.04,666.96 C272.48,674.05 273,715.05 273,715.05 L269.86,739.24 C269.86,739.24 271.79,754.18 269.86,756.79 C268.13,759.12 265.86,814.4 265.34,826.38 L265.14,826.38 C263.212139,826.496342 261.467023,827.559889 260.48,829.22 C257.9,833.36 249,840.99 249,840.99 C247.07,843.74 239.91,846.37 236.13,847.61 C235.624183,847.7725 235.135246,847.98348 234.67,848.24 C233.254668,849.010767 232.117668,850.207241 231.42,851.66 C230.923357,852.524084 230.80057,853.553332 231.08,854.51 C232.08,856.88 252.15,858.51 257.23,856.17 C261.23,854.31 277.07,851.85 283.65,850.89 C286.106188,850.580554 288.040554,848.646188 288.35,846.19 C288.47745,845.357689 288.26085,844.509341 287.75,843.84 C286.49,842.28 285.84,838.02 285.55,835.24 C286.084038,835.021272 286.582773,834.724728 287.03,834.36 C286.490157,825.74072 287.725664,817.102382 290.66,808.98 C295.5,796.18 296.96,772.46 295.75,757.04 C295.75,757.04 310.52,693.47 322.15,687.54 C322.33,687.76 327.97,695 328.69,717.42 C329.41,740.19 337.64,755.13 337.64,755.13 C337.64,755.13 334.01,793.79 337.64,808.26 L332.87,831.05 C332.671075,830.88671 332.480816,830.71314 332.3,830.53 C332.3,830.53 332.44,831.17 332.64,832.18 L332.54,832.66 L332.74,832.71 C333.28,835.56 334.08,840.53 333.74,843.45 C333.55,845.12 333.09,847.39 332.74,849.63 C332.24,853.14 332.1,856.55 333.95,857.29 C336.95,858.51 354.78,860.18 357.81,856.29 C359.195188,854.663564 359.536377,852.391552 358.69,850.43 C358.470206,849.89342 358.17379,849.391535 357.81,848.94 C357.81,848.94 353.08,841.21 354.42,835.76 C354.668046,834.685888 354.461811,833.557023 353.85,832.64 C354.54356,824.012356 355.931387,815.454648 358,807.05 C361,795.64 367.42,770.62 362.72,754.16 C362.54,753.52 362.34,752.88 362.12,752.26 C359.404894,743.277338 358.497404,733.845554 359.45,724.51 C357.700781,716.541533 357.700781,708.288467 359.45,700.32 C362.33,687.05 364.36,674.05 364.36,674.05 C364.36,674.05 365.96,656.5 364.56,645.74 L364.47,645.05 L365.23,644.88 C365.23,644.88 361.12,626.62 359.66,615 C359.32,612.25 358.87,608.78 358.38,605.07 C359.720613,604.839632 361.041266,604.505289 362.33,604.07 C375.41,599.56 379.52,558.76 379.52,558.76 L379.52,545.82 C379.52,545.82 383.88,526.05 368.62,517.24 Z M271.19,832.24 L270.55,831.9 L271.19,832.24 Z" id="Shape" fill="url(#linearGradient-1)" fill-rule="nonzero"></path>
            <path d="M360.73,752.65 C366.4,768.96 359.73,795.43 356.73,807.25 C354.709743,815.796967 353.372196,824.491024 352.73,833.25 C345.829272,834.41478 338.769652,834.251865 331.93,832.77 L336.93,808.43 C333.39,794.01 336.93,755.48 336.93,755.48 C336.93,755.48 328.93,740.58 328.19,717.89 C327.49,695.56 321.99,688.34 321.81,688.11 C310.38,694.05 296,757.38 296,757.38 C297.18,772.74 295.76,796.38 291,809.15 C288.131025,817.256232 286.923697,825.857167 287.45,834.44 C285.8,835.83 283.5,836.07 281.02,835.67 C274.27,834.58 266.18,828.76 266.18,828.76 C266.18,828.76 268.78,759.76 270.67,757.14 C272.56,754.52 270.67,739.65 270.67,739.65 L273.74,715.54 C273.74,715.54 273.27,674.65 277.74,667.54 C281.62,661.41 282.51,650.65 282.69,647.83 C282.69,647.38 282.69,647.13 282.69,647.13 L289.53,638.94 C289.53,638.94 355.72,633.94 360.68,638.94 C361.9,640.16 362.68,642.94 363.1,646.42 C364.46,657.14 362.9,674.63 362.9,674.63 C362.9,674.63 360.9,687.63 358.08,700.86 C356.373126,708.806038 356.373126,717.023962 358.08,724.97 C357.156336,734.281207 358.056453,743.683179 360.73,752.65 Z" id="Path" fill="#65617D"></path>
            <path d="M356.59,856.3 C353.64,860.2 336.27,858.55 333.31,857.3 C331.5,856.55 331.64,853.16 332.13,849.66 C332.44,847.43 332.89,845.16 333.07,843.51 C333.55,839.25 331.66,830.62 331.66,830.62 C331.66,830.62 335.56,834.76 336.5,830.62 C336.943021,829.010938 338.24018,827.779214 339.87,827.42 C341.896155,826.807478 344.074835,826.942315 346.01,827.8 C349.08,829.13 354.2,831.97 353.28,835.8 C351.98,841.23 356.59,848.93 356.59,848.93 C356.947571,849.382222 357.237285,849.88417 357.45,850.42 C358.295663,852.385277 357.963078,854.659232 356.59,856.3 Z" id="Path" fill="#A27772"></path>
            <path d="M356.59,856.3 C353.64,860.2 336.27,858.55 333.31,857.3 C331.5,856.55 331.64,853.16 332.13,849.66 C333.99,850.53 337.13,851.26 342.45,850.77 C343.686134,850.650111 344.92871,850.610028 346.17,850.65 C349.930725,850.826381 353.699012,850.752886 357.45,850.43 C358.291523,852.392506 357.959117,854.66137 356.59,856.3 Z" id="Path" fill="#000000" opacity="0.1"></path>
            <path d="M296,757.38 C297.18,772.74 295.76,796.38 291,809.15 C288.131025,817.256232 286.923697,825.857167 287.45,834.44 C285.8,835.83 283.5,836.07 281.02,835.67 C282.45,825.67 288.52,782.74 292.42,748.81 C296.85,710.16 317.59,683.57 317.59,683.57 L321.73,688.12 C310.38,694.05 296,757.38 296,757.38 Z" id="Path" fill="#000000" opacity="0.1"></path>
            <path d="M349.5,508.95 L346.61,523.13 L332.48,546.89 L315.05,539.44 C315.05,539.44 291.35,514.62 306.24,511.08 C308.024979,510.698697 309.710851,509.949421 311.19,508.88 C314.11,506.67 315.03,503.47 315.05,500.33 C314.932263,496.812182 314.109329,493.353821 312.63,490.16 L343.12,480.59 C341.858744,484.594576 341.122594,488.74592 340.93,492.94 C340.7,501.24 343.78,505.34 346.31,507.29 C347.251735,508.050922 348.336431,508.615372 349.5,508.95 Z" id="Path" fill="#FBBEBE"></path>
            <path d="M343.12,480.59 C341.858744,484.594576 341.122594,488.74592 340.93,492.94 C334.610519,500.439628 324.376736,503.361871 315.05,500.33 C314.932263,496.812182 314.109329,493.353821 312.63,490.16 L343.12,480.59 Z" id="Path" fill="#000000" opacity="0.1"></path>
            <path d="M346.61,476.69 C346.61,490.005585 335.815585,500.8 322.5,500.8 C309.184415,500.8 298.39,490.005585 298.39,476.69 C298.39,463.374415 309.184415,452.58 322.5,452.58 C328.899257,452.564015 335.041021,455.099035 339.565993,459.624007 C344.090965,464.148979 346.625985,470.290743 346.61,476.69 Z" id="Path" fill="#FBBEBE"></path>
            <path d="M349.5,508.95 L346.61,523.13 L332.48,546.89 L315.05,539.44 C315.05,539.44 291.35,514.62 306.24,511.08 C308.024979,510.698697 309.710851,509.949421 311.19,508.88 C308.5,516.27 319.6,531.64 319.6,531.64 C320.89,533.54 323.86,532.35 323.86,532.35 C331,531.27 344.17,510.71 346.31,507.29 C347.251735,508.050922 348.336431,508.615372 349.5,508.95 Z" id="Path" fill="#000000" opacity="0.1"></path>
            <path d="M363.15,646.44 C358.95,647.44 335.73,652.53 326.93,651.25 C317.24,649.83 298.39,648.89 298.39,648.89 C298.39,648.89 286.39,649.53 282.71,647.89 C282.71,647.44 282.71,647.19 282.71,647.19 L289.55,639 C289.55,639 355.74,634 360.7,639 C362,640.18 362.7,642.95 363.15,646.44 Z" id="Path" fill="#000000" opacity="0.1"></path>
            <path d="M319.6,532.35 C319.6,532.35 307.13,515.08 311.83,508.35 L290.76,516.99 C290.76,516.99 278.08,515.45 273.51,534.37 C272.777565,537.517375 272.511391,540.755265 272.72,543.98 C272.89,546.83 272.5,551.85 269.25,558.35 C264.05,568.75 265.25,592.63 275.87,594.99 C286.49,597.35 290.29,596.17 290.29,596.17 C290.29,596.17 288.87,639.43 282.73,644.39 C276.59,649.35 298.4,648.17 298.4,648.17 C298.4,648.17 317.24,649.17 326.93,650.54 C336.62,651.91 363.8,645.54 363.8,645.54 C363.8,645.54 359.8,627.34 358.36,615.76 C356.92,604.18 353.64,579.52 353.64,579.52 L377.75,546.86 C377.75,546.86 382,527.12 367.11,518.38 C352.22,509.64 346.61,507.48 346.61,507.48 C346.61,507.48 331.61,531.85 323.85,533.03 C323.85,533.05 320.89,534.25 319.6,532.35 Z" id="Path" fill="#FF748E"></path>
            <path d="M291.94,539.21 C291.94,539.21 291.71,547.01 293.13,550.08 C294.55,553.15 299.74,570.17 299.74,570.17 L287.93,570.17 C287.93,570.17 294.31,563.32 293.84,560.01 C293.37,556.7 291.94,539.21 291.94,539.21 Z" id="Path" fill="#000000" opacity="0.1"></path>
            <path d="M326.93,598.05 C326.93,598.05 300.83,591.67 298.4,586.24 C295.97,580.81 289.26,568.63 289.26,568.63 L292.01,564.92 L304.71,574.92 C304.71,574.92 319.84,586.92 326.93,588.16 C334.02,589.4 326.93,598.05 326.93,598.05 Z" id="Path" fill="#FBBEBE"></path>
            <path d="M326.93,598.05 C326.93,598.05 300.83,591.67 298.4,586.24 C295.97,580.81 289.26,568.63 289.26,568.63 L292.01,564.92 L304.71,574.92 C304.71,574.92 319.84,586.92 326.93,588.16 C334.02,589.4 326.93,598.05 326.93,598.05 Z" id="Path" fill="#000000" opacity="0.05"></path>
            <path d="M349.5,567.34 L349.5,581.5 L347.22,581.5 C335.9741,581.500083 324.913371,584.363346 315.08,589.82 L310.82,592.18 L309.67,592.82 L302.34,576.32 L309.2,570.17 L309.55,570.17 C311.23,570.33 318.48,570.93 321.55,569.9 C324.62,568.87 328.1,565.76 336.69,567.96 C340.93,569.04 344.54,573.79 348.69,572.31 L349.5,567.34 Z" id="Path" fill="#FBBEBE"></path>
            <path d="M372.31,541.57 L377.04,546.89 L377.04,559.77 C377.04,559.77 373.04,600.43 360.26,604.92 C347.48,609.41 324.71,602.32 324.71,602.32 C324.71,602.32 318.82,586.72 321.57,585.77 C324.32,584.82 345.91,579.13 345.91,579.13 C345.91,579.13 345.6,555.28 350.33,548.19 C350.33,548.19 347.26,525.97 357.89,525.5 C368.52,525.03 372.31,541.57 372.31,541.57 Z" id="Path" fill="#000000" opacity="0.1"></path>
            <path d="M373,541.57 L377.73,546.89 L377.73,559.77 C377.73,559.77 373.73,600.43 360.94,604.92 C348.15,609.41 325.4,602.32 325.4,602.32 C325.4,602.32 319.51,586.72 322.26,585.77 C325.01,584.82 346.59,579.13 346.59,579.13 C346.59,579.13 346.29,555.28 351.02,548.19 C351.02,548.19 347.94,525.97 358.58,525.5 C369.22,525.03 373,541.57 373,541.57 Z" id="Path" fill="#FF748E"></path>
            <path d="M340,486.93 C340.210369,485.375659 340.024621,483.793363 339.46,482.33 C338.850613,480.84238 337.313071,479.954388 335.72,480.17 C333.72,480.64 332.82,483.27 330.84,483.9 C329.17,484.43 327.34,483.25 326.54,481.69 C325.870417,480.063819 325.589636,478.303799 325.72,476.55 C325.72,474.55 325.72,472.6 325.72,470.62 C325.72,468.47 325.65,466.15 324.32,464.46 C322.67,462.36 318.8,461.46 316.22,461.53 C314.498101,461.547825 312.845683,462.211647 311.59,463.39 C310.312759,464.675727 308.522809,465.315258 306.72,465.13 C305.11837,464.884059 303.800042,463.740731 303.33,462.19 C303.325524,462.163521 303.325524,462.136479 303.33,462.11 C308.807818,454.867667 317.890239,451.317402 326.827439,452.92499 C335.764639,454.532578 343.040564,461.025317 345.651232,469.722575 C348.2619,478.419833 345.764452,487.846258 339.19,494.11 C339.589356,491.733035 339.859752,489.336196 340,486.93 Z" id="Path" fill="#000000" opacity="0.1"></path>
            <path d="M306.71,464.42 C305.107721,464.170774 303.787905,463.029522 303.31,461.48 C303.12,460.72 303.17,459.9 302.94,459.15 C302.39,457.29 300.41,456.32 299.08,454.91 C296.42,452.09 296.59,447.44 298.47,444.04 C300,441.3 302.95,438.99 306.04,439.52 C307.95,439.86 309.6,441.22 311.54,441.34 C313.48,441.46 315.11,440.42 316.81,439.64 C320.906081,437.784474 325.511003,437.375461 329.87,438.48 C331.211648,438.74654 332.455844,439.372094 333.47,440.29 C334.158303,441.154656 334.799243,442.055978 335.39,442.99 C337.59,445.8 341.54,446.35 345.05,446.99 C348.56,447.63 352.54,448.99 353.69,452.4 C354.46,454.64 353.69,457.07 353.28,459.4 C353.127188,459.877528 353.159309,460.395034 353.37,460.85 C353.92,461.76 355.29,461.38 356.37,461.59 C358.37,462.01 358.87,464.59 358.94,466.59 C359.033333,468.91 359.096667,471.243333 359.13,473.59 C359.188934,474.458462 359.121565,475.330881 358.93,476.18 C358.498618,477.391598 357.817198,478.498904 356.93,479.43 L349.12,488.81 C345.66,492.97 341.99,497.81 342.68,503.18 C341.04,503.91 339.1,502.5 338.56,500.78 C338.02,499.06 338.45,497.22 338.82,495.46 C339.448918,492.416489 339.859961,489.331997 340.05,486.23 C340.260774,484.672375 340.075039,483.086748 339.51,481.62 C338.896853,480.130818 337.355807,479.243176 335.76,479.46 C333.76,479.93 332.87,482.56 330.89,483.19 C329.22,483.73 327.39,482.54 326.59,480.98 C325.925003,479.352531 325.644395,477.593596 325.77,475.84 L325.77,469.91 C325.77,467.76 325.7,465.44 324.37,463.75 C322.73,461.65 318.85,460.75 316.27,460.82 C314.548101,460.837825 312.895683,461.501647 311.64,462.68 C310.349035,463.9831 308.532912,464.624084 306.71,464.42 Z" id="Path" fill="#7C5C5C"></path>
            <path d="M312.15,538.62 L319.56,569.02 C319.56,569.02 325.39,568.99 312.15,538.62 Z" id="Path" fill="#000000" opacity="0.1"></path>
            <path d="M337.45,533.53 C337.45,533.53 327.75,549.41 331.54,565.82 L333.34,565.95 C333.34,565.95 330.12,558.35 337.45,533.53 Z" id="Path" fill="#000000" opacity="0.1"></path>
            <path d="M343.59,623.36 C343.59,623.36 355.49,619.42 356.36,628.56 C356.36,628.56 354.11,622.29 343.59,623.36 Z" id="Path" fill="#000000" opacity="0.1"></path>
            <path d="M309.2,570.88 C309.2,570.88 306.84,587.43 311.09,594.05 C304.421542,596.399163 297.343682,597.36216 290.29,596.88 L288.87,570.88 L309.2,570.88 Z" id="Path" fill="#000000" opacity="0.1"></path>
            <path d="M310.82,592.18 L309.67,592.82 L302.34,576.32 L309.2,570.17 L309.55,570.17 C309.44,570.97 307.53,585.18 310.82,592.18 Z" id="Path" fill="#000000" opacity="0.1"></path>
            <path d="M309.2,570.17 C309.2,570.17 306.84,586.72 311.09,593.34 C304.421542,595.689163 297.343682,596.65216 290.29,596.17 L282.02,570.17 L309.2,570.17 Z" id="Path" fill="#FF748E"></path>
            <path d="M288.75,846.24 C288.470143,848.666038 286.580147,850.593093 284.16,850.92 C277.75,851.92 262.28,854.32 258.38,856.18 C253.38,858.55 233.8,856.89 232.85,854.53 C232.580904,853.572502 232.703206,852.547322 233.19,851.68 C234.114038,849.779223 235.770735,848.335479 237.78,847.68 C241.48,846.44 248.46,843.83 250.34,841.09 C250.34,841.09 259.04,833.47 261.52,829.36 C262.465803,827.713032 264.174585,826.650207 266.07,826.53 C268.14,826.43 270.44,827.48 271.39,832.01 C271.39,832.01 282.73,838.48 285.8,832.81 C285.8,832.81 286.27,841.52 288.15,843.91 C288.652444,844.575707 288.86842,845.414414 288.75,846.24 Z" id="Path" fill="#A27772"></path>
            <path d="M288.75,846.24 C288.470143,848.666038 286.580147,850.593093 284.16,850.92 C277.75,851.92 262.28,854.32 258.38,856.18 C253.38,858.55 233.8,856.89 232.85,854.53 C232.580904,853.572502 232.703206,852.547322 233.19,851.68 C233.863928,850.24225 234.972898,849.05282 236.36,848.28 C239.56,850.4 246.66,852.48 262.28,850.04 C277.18,847.71 284.55,845.43 288.15,843.88 C288.660351,844.553431 288.876748,845.404594 288.75,846.24 Z" id="Path" fill="#000000" opacity="0.1"></path>
            <g id="Group" opacity="0.1" transform="translate(297.000000, 449.000000)" fill="#000000">
                <path d="M56.25,10.72 C56.2548174,10.680145 56.2548174,10.639855 56.25,10.6 C56.7175022,8.85108755 56.9627673,7.05023647 56.98,5.24 C56.8292473,6.68752082 56.5854091,8.12382782 56.25,9.54 C56.1602726,9.92821617 56.1602726,10.3317838 56.25,10.72 Z" id="Path"></path>
                <path d="M42.46,32.84 C42.8307076,33.692556 43.0278772,34.6104147 43.04,35.54 C43.1475348,34.2584074 42.9487317,32.9696153 42.46,31.78 C41.8474785,30.2893123 40.3076551,29.3982678 38.71,29.61 C36.71,30.08 35.82,32.72 33.84,33.35 C32.17,33.88 30.34,32.69 29.54,31.13 C28.8657211,29.5051443 28.5847604,27.7440007 28.72,25.99 C28.72,23.99 28.72,22.04 28.72,20.07 C28.72,17.92 28.65,15.6 27.32,13.91 C25.67,11.8 21.8,10.91 19.21,10.97 C17.4894253,10.9891217 15.8394659,11.6569624 14.59,12.84 C13.3109411,14.1220789 11.5212304,14.7578488 9.72,14.57 C8.11243393,14.3322483 6.78731466,13.1864098 6.32,11.63 C6.12,10.87 6.18,10.06 5.95,9.3 C5.4,7.44 3.42,6.48 2.09,5.07 C0.849381012,3.69455784 0.140201533,1.92160914 0.09,0.07 C-0.10185438,2.2787121 0.62113803,4.4693791 2.09,6.13 C3.42,7.54 5.4,8.51 5.95,10.37 C6.18,11.12 6.12,11.94 6.32,12.7 C6.79581586,14.2508855 8.11667326,15.3930387 9.72,15.64 C11.5228087,15.8252579 13.312759,15.1857275 14.59,13.9 C15.8452696,12.734865 17.487524,12.0758258 19.2,12.05 C21.79,11.97 25.66,12.89 27.31,14.99 C28.64,16.68 28.7,18.99 28.71,21.15 C28.71,23.15 28.71,25.1 28.71,27.07 C28.5739276,28.8272893 28.85489,30.5918698 29.53,32.22 C30.33,33.78 32.16,34.96 33.83,34.43 C35.83,33.8 36.68,31.17 38.7,30.69 C40.2945872,30.4776762 41.8342142,31.358048 42.46,32.84 Z" id="Path"></path>
                <path d="M61.89,26.33 C61.456391,27.5434939 60.7753246,28.6536322 59.89,29.59 C57.2766667,32.71 54.6733333,35.8333333 52.08,38.96 C48.8,42.91 45.32,47.48 45.57,52.52 C45.81,47.9 49.03,43.7 52.08,40.03 L59.89,30.65 C60.7750802,29.7172743 61.456208,28.6104416 61.89,27.4 C62.0825339,26.5476383 62.1499076,25.6717803 62.09,24.8 C62.0845086,25.3161454 62.017366,25.8297859 61.89,26.33 Z" id="Path"></path>
                <path d="M41.51,50.94 C41.3810769,50.5273921 41.3005367,50.1012006 41.27,49.67 C41.2043548,50.4548341 41.285748,51.2450266 41.51,52 C42.04,53.72 43.99,55.13 45.63,54.4 C45.63,54.05 45.56,53.7 45.55,53.4 C43.93,54.05 42,52.62 41.51,50.94 Z" id="Path"></path>
            </g>
            <path d="M260,831.47 C260,831.47 262.47,835.81 271.43,831.98" id="Path" fill="#000000" opacity="0.1"></path>
            <path d="M335.65,832.51 C335.65,832.51 343.38,841.6 353.11,835.51" id="Path" fill="#000000" opacity="0.1"></path>
            <path d="M358.13,724.99 C358.13,724.99 352.67,728.4 352.49,730.35 C352.31,732.3 355.31,728.93 355.31,728.93 L358.13,724.99 Z" id="Path" fill="#000000" opacity="0.1"></path>
            <path d="M360.28,751.13 C358.385211,752.712045 356.025598,753.632013 353.56,753.75 C349.48,753.93 349.82,759.25 352.49,757.65 C355.16,756.05 360.28,751.13 360.28,751.13 Z" id="Path" fill="#000000" opacity="0.1"></path>
            <path d="M361.32,754.54 C361.32,754.54 358.7,767.4 356.57,764.92" id="Path" fill="#000000" opacity="0.1"></path>
            <g id="Group" opacity="0.5" transform="translate(471.000000, 458.000000)" fill="#DCE0ED">
                <rect id="Rectangle" x="0.17" y="0.65" width="66" height="14"></rect>
                <rect id="Rectangle" x="151.72" y="0.65" width="66" height="14"></rect>
                <rect id="Rectangle" x="303.27" y="0.65" width="66" height="14"></rect>
            </g>
            <ellipse id="Oval" fill="#281FB5" opacity="0.1" cx="952.73" cy="801.29" rx="26.93" ry="4.55"></ellipse>
            <ellipse id="Oval" fill="#281FB5" opacity="0.1" cx="115.22" cy="858.74" rx="26.93" ry="4.55"></ellipse>
            <ellipse id="Oval" fill="#281FB5" cx="893.79" cy="850.05" rx="40.21" ry="6.8"></ellipse>
            <path d="M910.41,838.94 C912.245873,837.444492 913.581976,835.424639 914.24,833.15 C914.74,830.85 913.76,828.1 911.57,827.26 C909.11,826.32 906.48,828.02 904.48,829.75 C902.48,831.48 900.21,833.43 897.6,833.07 C900.325285,830.594241 901.554683,826.871895 900.84,823.26 C900.728162,822.523686 900.416916,821.832029 899.94,821.26 C898.57,819.8 896.1,820.42 894.46,821.57 C889.26,825.23 887.81,832.29 887.78,838.65 C887.26,836.36 887.7,833.97 887.69,831.65 C887.68,829.33 887.03,826.65 885.05,825.42 C883.821246,824.763757 882.442433,824.439736 881.05,824.48 C878.71,824.39 876.1,824.62 874.51,826.33 C872.51,828.46 873.04,832.02 874.76,834.33 C876.48,836.64 879.12,838.13 881.53,839.75 C883.466838,840.906624 885.120521,842.481724 886.37,844.36 C886.512373,844.625109 886.629553,844.902994 886.72,845.19 L901.38,845.19 C904.655973,843.519891 907.693065,841.417807 910.41,838.94 Z" id="Path" fill="#281FB5"></path>
            <path d="M116.45,791.24 C116.45,791.24 121.95,798.43 113.92,809.24 C105.89,820.05 99.27,829.24 101.92,836.01 C101.92,836.01 114.04,815.86 123.92,815.58 C133.8,815.3 127.3,803.36 116.45,791.24 Z" id="Path" fill="#281FB5"></path>
            <path d="M116.45,791.24 C116.931068,791.936447 117.311483,792.697277 117.58,793.5 C127.2,804.8 132.32,815.35 123.07,815.61 C114.46,815.86 104.13,831.26 101.65,835.15 C101.731568,835.451376 101.828359,835.748423 101.94,836.04 C101.94,836.04 114.06,815.89 123.94,815.61 C133.82,815.33 127.3,803.36 116.45,791.24 Z" id="Path" fill="#000000" opacity="0.1"></path>
            <path d="M126.66,800.4 C126.66,802.93 126.38,804.98 126.03,804.98 C125.68,804.98 125.4,802.98 125.4,800.4 C125.4,797.82 125.75,799.06 126.1,799.06 C126.45,799.06 126.66,797.87 126.66,800.4 Z" id="Path" fill="#FFD037"></path>
            <path d="M130.17,803.42 C127.95,804.63 126.01,805.36 125.85,805.05 C125.69,804.74 127.34,803.51 129.56,802.3 C131.78,801.09 130.91,801.97 131.07,802.3 C131.23,802.63 132.39,802.21 130.17,803.42 Z" id="Path" fill="#FFD037"></path>
            <path d="M87.44,791.24 C87.44,791.24 81.94,798.43 89.97,809.24 C98,820.05 104.62,829.24 101.97,836.01 C101.97,836.01 89.86,815.86 79.97,815.58 C70.08,815.3 76.59,803.36 87.44,791.24 Z" id="Path" fill="#281FB5"></path>
            <path d="M87.44,791.24 C86.9589318,791.936447 86.578517,792.697277 86.31,793.5 C76.69,804.8 71.57,815.35 80.82,815.61 C89.43,815.86 99.76,831.26 102.24,835.15 C102.159586,835.452913 102.059371,835.750219 101.94,836.04 C101.94,836.04 89.83,815.89 79.94,815.61 C70.05,815.33 76.59,803.36 87.44,791.24 Z" id="Path" fill="#000000" opacity="0.1"></path>
            <path d="M77.22,800.4 C77.22,802.93 77.51,804.98 77.86,804.98 C78.21,804.98 78.49,802.98 78.49,800.4 C78.49,797.82 78.14,799.06 77.79,799.06 C77.44,799.06 77.22,797.87 77.22,800.4 Z" id="Path" fill="#FFD037"></path>
            <path d="M73.72,803.42 C75.94,804.63 77.87,805.36 78.04,805.05 C78.21,804.74 76.55,803.51 74.33,802.3 C72.11,801.09 72.98,801.97 72.81,802.3 C72.64,802.63 71.5,802.21 73.72,803.42 Z" id="Path" fill="#FFD037"></path>
            <path d="M79,835.1 C79,835.1 94.36,834.62 99,831.33 C103.64,828.04 122.63,824.09 123.78,829.38 C124.93,834.67 146.86,855.67 129.52,855.81 C112.18,855.95 89.23,853.11 84.61,850.3 C79.99,847.49 79,835.1 79,835.1 Z" id="Path" fill="#A8A8A8"></path>
            <path d="M129.79,853.97 C112.45,854.11 89.49,851.27 84.87,848.46 C81.36,846.31 79.95,838.62 79.49,835.08 L78.97,835.08 C78.97,835.08 79.97,847.46 84.57,850.28 C89.17,853.1 112.14,855.93 129.48,855.79 C134.48,855.79 136.21,853.97 136.12,851.33 C135.42,852.95 133.51,853.94 129.79,853.97 Z" id="Path" fill="#000000" opacity="0.2"></path>
            <path d="M466.5,556.42 C466.5,535.98 483.13,520.28 503.58,520.28 L503.87,520.28 L503.87,510.98 L503.58,510.98 C478,510.98 457.2,530.85 457.2,556.42 C457.198511,569.804257 462.993984,582.533145 473.09,591.32 L479.68,584.73 C471.324572,577.700418 466.50079,567.339166 466.5,556.42 Z" id="Path" fill="#281FB5"></path>
            <path d="M504.8,510.99 L504.8,520.29 C521.1658,520.399225 535.523358,531.227805 540.126289,546.933357 C544.72922,562.638909 538.488165,579.504462 524.770385,588.430482 C511.052605,597.356502 493.104631,596.230503 480.61,585.66 L474,592.25 C489.482744,605.787284 512.033445,607.506012 529.388955,596.471535 C546.744465,585.437058 554.755632,564.28737 549.065956,544.523741 C543.37628,524.760113 525.345983,511.107402 504.78,510.99 L504.8,510.99 Z" id="Path" fill="#281FB5" opacity="0.5"></path>
            <path d="M808.8,519.81 C829.24,519.81 844.94,536.44 844.94,556.89 C844.94,556.98 844.94,557.08 844.94,557.18 L854.24,557.18 C854.24,557.08 854.24,556.98 854.24,556.89 C854.24,531.32 834.37,510.51 808.8,510.51 C795.415171,510.505874 782.685241,516.301822 773.9,526.4 L780.49,532.99 C787.519582,524.634572 797.880834,519.81079 808.8,519.81 Z" id="Path" fill="#281FB5" opacity="0.5"></path>
            <path d="M854.23,558.11 L844.93,558.11 C844.820775,574.4758 833.992195,588.833358 818.286643,593.436289 C802.581091,598.03922 785.715538,591.798165 776.789518,578.080385 C767.863498,564.362605 768.989497,546.414631 779.56,533.92 L773,527.33 C759.462716,542.812744 757.743988,565.363445 768.778465,582.718955 C779.812942,600.074465 800.96263,608.085632 820.726259,602.395956 C840.489887,596.70628 854.142598,578.675983 854.26,558.11 L854.23,558.11 Z" id="Path" fill="#281FB5"></path>
            <path d="M674,513.71 L672.15,522.97 C685.76,528.46 694.46,541.8 694.46,557.35 C694.465609,575.861442 680.814244,591.539635 662.477995,594.080399 C644.141746,596.621162 626.741678,585.245612 621.713641,567.430103 C616.685604,549.614595 625.570966,530.820558 642.53,523.4 L638.41,515.05 C617.360716,524.525472 606.489343,548.043238 612.908661,570.216404 C619.327979,592.38957 641.082029,606.462002 663.937859,603.226575 C686.793688,599.991147 703.787156,580.433691 703.8,557.35 C703.8,537.28 691.92,520.16 674,513.71 Z" id="Path" fill="#281FB5" opacity="0.5"></path>
            <path d="M658.59,519.74 C663.031596,519.73844 667.426022,520.650683 671.5,522.42 L673.35,513.17 C668.640545,511.357239 663.636286,510.431654 658.59,510.44 C652.038208,510.439785 645.561397,511.834004 639.59,514.53 L643.75,522.86 C648.425426,520.797934 653.480039,519.735239 658.59,519.74 Z" id="Path" fill="#281FB5"></path>
        </g>
    </g>
</svg>