<?xml version="1.0" encoding="UTF-8"?>
<svg width="1100px" height="812px" viewBox="0 0 1100 812" version="1.1" xmlns="http://www.w3.org/2000/svg" xmlns:xlink="http://www.w3.org/1999/xlink">
    <!-- Generator: Sketch 52.1 (67048) - http://www.bohemiancoding.com/sketch -->
    <title>static/content/feeling-blue.svg</title>
    <desc>Created with Sketch.</desc>
    <defs>
        <linearGradient x1="49.9904777%" y1="100.001574%" x2="49.9904777%" y2="0.00230103318%" id="linearGradient-1">
            <stop stop-color="#808080" stop-opacity="0.25" offset="0%"></stop>
            <stop stop-color="#808080" stop-opacity="0.12" offset="54%"></stop>
            <stop stop-color="#808080" stop-opacity="0.1" offset="100%"></stop>
        </linearGradient>
    </defs>
    <g id="static/content/feeling-blue.svg" stroke="none" stroke-width="1" fill="none" fill-rule="evenodd">
        <g id="undraw_feeling_blue_4b7q-2" transform="translate(-1.000000, 0.000000)">
            <path d="M12.84,389.02 C30.21,456.15 66.95,514.18 125.01,542.31 C245.71,600.77 517.92,570.62 721.08,536.01 C826.17,518.11 918.54,468.71 985.64,399.19 L12.84,389.02 Z" id="Path" fill="#281FB5" opacity="0.1"></path>
            <path d="M1078.2,73.03 L966.73,73.03 C961.44,73.03 957.1,69.11 957.1,64.32 C957.1,59.53 961.44,55.6 966.73,55.6 L986.01,55.6 C980.71,55.6 976.38,51.68 976.38,46.88 C976.38,42.08 980.71,38.17 986.01,38.17 L972.25,38.17 C966.95,38.17 962.61,34.25 962.61,29.45 C962.61,24.65 966.95,20.74 972.25,20.74 L1030.43,20.74 C1017.52,15.31 1002.43,11.45 985.04,9.42 C826.39,-9.01 769.75,3.18 749.77,15.71 C724.865913,31.5224581 697.202092,42.4943489 668.23,48.05 C570.35,66.32 387.3,88.3 221.39,41.05 C138.93,17.52 77.64,57.23 40.91,123.61 L1097.56,123.61 C1096.18,104.32 1092.05,86.5 1084.47,70.91 C1082.67485,72.2960167 1080.46792,73.0422195 1078.2,73.03 Z" id="Path" fill="#281FB5" opacity="0.1"></path>
            <path d="M3.39,248.9 C-0.891542362,287.941689 0.563880594,327.399823 7.71,366.02 L986.39,398.41 C1013.33038,370.468693 1036.21988,338.88792 1054.39,304.59 L3.39,248.9 Z M390.47,332.45 L371.2,332.45 C376.5,332.45 380.84,336.38 380.84,341.17 C380.84,345.96 376.5,349.88 371.2,349.88 L259.73,349.88 C254.44,349.88 250.1,345.96 250.1,341.17 C250.1,336.38 254.44,332.45 259.73,332.45 L279.01,332.45 C273.71,332.45 269.38,328.53 269.38,323.74 C269.38,318.95 273.71,315.02 279.01,315.02 L265.24,315.02 C259.94,315.02 255.6,311.1 255.6,306.31 C255.6,301.52 259.94,297.59 265.24,297.59 L376.71,297.59 C382.01,297.59 386.34,301.51 386.34,306.31 C386.34,311.11 382.01,315.02 376.71,315.02 L390.47,315.02 C395.77,315.02 400.1,318.94 400.1,323.74 C400.1,328.54 395.77,332.45 390.47,332.45 Z" id="Shape" fill="#281FB5" fill-rule="nonzero" opacity="0.1"></path>
            <path d="M1097.6,124.21 L29.12,147.71 C16.12,177.94 7.5,212.12 3.53,247.54 L1078.88,247.54 C1085.87834,226.817174 1091.07103,205.527823 1094.4,183.91 C1097.61,163.1 1098.89,142.97 1097.6,124.21 Z M220.47,201.26 L201.2,201.26 C206.5,201.26 210.84,205.19 210.84,209.98 C210.84,214.77 206.5,218.7 201.2,218.7 L89.73,218.7 C84.44,218.7 80.1,214.77 80.1,209.98 C80.1,205.19 84.44,201.26 89.73,201.26 L109.01,201.26 C103.71,201.26 99.38,197.34 99.38,192.55 C99.38,187.76 103.71,183.83 109.01,183.83 L95.24,183.83 C89.94,183.83 85.6,179.91 85.6,175.12 C85.6,170.33 89.94,166.4 95.24,166.4 L206.71,166.4 C212.01,166.4 216.34,170.32 216.34,175.12 C216.34,179.92 212.01,183.83 206.71,183.83 L220.47,183.83 C225.77,183.83 230.1,187.76 230.1,192.55 C230.1,197.34 225.77,201.26 220.47,201.26 Z" id="Shape" fill="#281FB5" fill-rule="nonzero" opacity="0.1"></path>
            <ellipse id="Oval" fill="#281FB5" opacity="0.1" cx="546.08" cy="739.96" rx="446.98" ry="41.12"></ellipse>
            <path d="M1001.64,400.32 C1001.63503,400.250088 1001.63503,400.179912 1001.64,400.11 C1001.64,400 1001.64,399.9 1001.64,399.8 C1001.4396,398.654703 1001.00744,397.56239 1000.37,396.59 C998.081922,392.927248 994.893993,389.911454 991.11,387.83 C984.51,384.21 975.44,382.66 972.8,375.75 C971.99,373.61 971.97,371.28 971.57,369.04 C970.145627,361.936953 965.042177,356.132207 958.18,353.81 C955.04,352.76 951.65,352.47 948.6,351.17 C941.78,348.27 938.18,341.12 935.13,334.51 C931.183333,325.976667 927.236667,317.44 923.29,308.9 C920.29,310.41 916.41,309.7 913.6,307.81 C910.892384,305.794148 908.736069,303.128846 907.33,300.06 C903.26,292.16 901.51,283.21 896.73,275.69 C891.95,268.17 882.4,262.23 873.96,265.5 C872.312159,266.323322 870.607861,267.028433 868.86,267.61 C861.63,269.3 853.63,261.04 847.44,265.05 C846.411786,265.709458 845.574037,266.6265 845.01,267.71 C845.004435,267.643449 845.004435,267.576551 845.01,267.51 C844.204584,269.136623 843.754615,270.916048 843.69,272.73 C843.69,273.1 843.69,273.46 843.69,273.81 C843.69,273.87 843.69,273.93 843.69,273.99 C843.69,275.43 843.78,276.89 843.8,278.35 C843.822375,279.576102 843.728623,280.80157 843.52,282.01 L843.52,281.91 C843.402983,282.590053 843.229038,283.259072 843,283.91 C841.39,288.23 836.93,291.06 834.84,295.12 L834.84,294.92 C834.604456,295.361633 834.400609,295.819454 834.23,296.29 C833.858401,297.354256 833.66579,298.47275 833.66,299.6 C833.48,307.23 841.57,314.41 842.51,322.6 C843.18,328.4 844.51,330.26 849.44,333.54 L850.52,334.26 C850.09,334.26 849.65,334.32 849.16,334.33 C848.968626,334.333532 848.777915,334.353606 848.59,334.39 C846.828345,333.905045 844.94207,334.235326 843.45,335.29 C839.67,338.29 830.73,335.98 826.76,335.29 C822.79,334.6 809.19,336.46 807.29,344 C805.39,351.54 802.13,367.1 802.13,367.1 C802.13,367.1 802.13,376.97 800.92,378.81 C800.873423,378.939266 800.873423,379.080734 800.92,379.21 C800.92,381.98 801.02,398.63 798.34,402.92 C797.68,403.92 797.73,406.13 798.22,408.85 C795.4,412.48 792.75,416.72 793.22,419.5 C794.08,425.19 805.62,443.08 822.16,433.5 C822.16,433.5 831.57,416.29 819.73,407.14 L820.24,405.14 C823.82,409.54 826.47,412.7 826.47,412.7 C826.47,412.7 826.61,413.07 826.83,413.7 L826.47,413.7 C828.015341,417.905217 828.951481,422.309786 829.25,426.78 C829.204848,428.418951 828.908049,430.041225 828.37,431.59 L828.68,431.59 C828.59,431.93 828.49,432.27 828.37,432.59 C827.788901,434.278691 826.703317,435.748244 825.26,436.8 C816.99,442.66 807.52,484.51 807.52,484.51 C807.52,484.51 788.76,552.16 785.01,556.01 C781.91,559.17 801.39,568.07 816.01,567.01 C818.050577,566.888591 820.067092,566.505454 822.01,565.87 C822.1,566.87 822.2,567.87 822.3,568.78 C822.61,571.78 822.93,574.56 823.13,575.43 C823.65,577.61 824.68,599.87 824.68,599.87 C824.68,599.87 822.57,614.33 823.08,624.39 C823.08,625.08 823.17,625.74 823.23,626.39 L821.41,626.67 C818.65,632.87 830.02,684.6 831.57,688.95 C832.596606,692.377614 833.174752,695.923804 833.29,699.5 C833.29,699.5 832.29,703.18 833.12,705.19 C833.636978,706.418487 833.973789,707.71521 834.12,709.04 C834.12,709.04 833.44,712.38 834.47,714.56 C835.5,716.74 834.3,720.56 834.3,720.56 C834.3,720.56 833.96,735.63 830.86,743.83 C829.141671,748.321752 829.962188,753.389875 833.01,757.11 C833.225462,757.394942 833.459293,757.665517 833.71,757.92 C833.71,757.92 850.81,758.06 853.82,757.92 L854.21,757.92 C855.42,757.75 858.52,744.19 855.76,737.66 C853,731.13 855.42,723.09 855.42,723.09 L855.42,711.21 C855.42,711.21 858.52,708.35 855.42,702.21 C852.32,696.07 852.83,694.21 852.83,694.21 C852.83,694.21 856.28,684.33 852.66,681.15 C849.04,677.97 853.35,665.91 853.35,665.91 L854.57,625.71 C853.931282,625.502078 853.279962,625.335073 852.62,625.21 C852.55,624.55 852.48,623.87 852.41,623.15 C851.7,615.87 851.09,605.97 852.67,603.15 C854.25,600.33 855.01,575.71 855.26,558.6 L871.02,559.2 C871.35,567.2 871.7,574.5 871.92,575.43 C872.44,577.61 873.48,599.87 873.48,599.87 C873.48,599.87 871.36,614.33 871.87,624.39 C871.87,625.08 871.96,625.74 872.02,626.39 L870.2,626.67 C867.44,632.87 878.81,684.6 880.36,688.95 C881.387483,692.377747 881.968938,695.923617 882.09,699.5 C882.09,699.5 881.09,703.18 881.91,705.19 C882.426978,706.418487 882.763789,707.71521 882.91,709.04 C882.91,709.04 882.23,712.38 883.26,714.56 C884.29,716.74 883.09,720.56 883.09,720.56 C883.09,720.56 882.75,735.63 879.65,743.83 C877.958689,748.328303 878.805767,753.387874 881.87,757.09 C882.085462,757.374942 882.319293,757.645517 882.57,757.9 C882.57,757.9 899.67,758.04 902.68,757.9 L903.07,757.9 C904.28,757.73 907.38,744.17 904.62,737.64 C901.86,731.11 904.28,723.07 904.28,723.07 L904.28,711.21 C904.28,711.21 907.38,708.35 904.28,702.21 C901.18,696.07 901.69,694.21 901.69,694.21 C901.69,694.21 905.14,684.33 901.52,681.15 C897.9,677.97 902.21,665.91 902.21,665.91 L903.45,625.71 C902.795283,625.498732 902.127112,625.33169 901.45,625.21 C901.38,624.55 901.31,623.87 901.24,623.15 C900.53,615.87 899.92,605.97 901.5,603.15 C902.77,600.84 903.5,585.96 903.83,571.43 C903.83,570.43 903.83,569.43 903.91,568.43 C911.151041,568.128538 918.362045,567.31989 925.49,566.01 C925.49,566.01 917.06,536.2 919.64,531.35 C920.75,529.26 919.15,518.13 916.96,506.14 C920.014316,508.612085 923.810993,509.985651 927.74,510.04 C931.51,517.29 942.98,533.97 949.44,536.54 C957.02,539.54 951.33,512.94 947.72,509.09 C946.011688,506.987969 944.573797,504.679952 943.44,502.22 C943.54,502.1 943.65,502 943.75,501.89 C943.85,501.78 943.93,473.59 942.2,474.1 C940.47,474.61 938.41,469.91 938.41,469.91 L933.07,423.04 L930.83,403.42 C932.7,404.8 934.92,405.68 936.83,407.05 C942.03,410.86 943.73,417.55 946.01,423.47 C947.89,428.34 950.53,433.17 954.86,436.23 C959.19,439.29 965.54,440.1 969.86,437 C973.86,434.09 975.04,428.84 975.92,424.05 C983.18,426.6 991.99,419.78 991.05,412.33 C990.82,410.49 990.14,408.48 991.1,406.87 C993.02,403.69 999.1,405.54 1001.1,402.4 C1001.43633,401.856896 1001.60985,401.228734 1001.6,400.59 C1001.63,400.45 1001.64,400.39 1001.64,400.32 Z M904.53,426.1 C904.42,427.89 906.88,442.27 908.88,453.65 C907.24,446.56 903.95,438.99 897.47,433.8 C897.47,433.8 897.47,433.44 897.39,432.8 L897.47,432.8 C897.47,432.8 897.2,429.94 897.16,425.87 C897.171606,422.262277 897.438943,418.659916 897.96,415.09 L897.96,415 L897.83,415 C897.83,414.7 897.91,414.39 897.96,414.09 C898.357427,411.077392 899.175393,408.135406 900.39,405.35 C900.926965,404.258375 901.545381,403.20874 902.24,402.21 C903.31,411.88 904.63,424.29 904.53,426.1 Z M909.91,459.42 C910.79,464.33 911.42,467.78 911.42,467.78 L916.73,504.24 L916.73,504.41 C913.87,489.02 910.22,472.8 910.22,472.8 C910.59204,468.341644 910.488121,463.856341 909.91,459.42 Z" id="Shape" fill="url(#linearGradient-1)" fill-rule="nonzero"></path>
            <path d="M844.83,324.6 C843.83,315.36 833.83,307.39 836.83,298.6 C838.46,293.81 843.56,290.88 845.28,286.12 C846.42,282.98 845.91,279.53 845.92,276.19 C845.93,272.85 846.71,269.12 849.49,267.27 C855.49,263.27 863.21,271.5 870.21,269.82 C871.902349,269.241169 873.55008,268.539295 875.14,267.72 C883.31,264.47 892.55,270.39 897.14,277.87 C901.73,285.35 903.45,294.27 907.39,302.13 C908.735225,305.165273 910.818477,307.815747 913.45,309.84 C916.17,311.72 919.89,312.43 922.83,310.93 L934.28,336.43 C937.28,343 940.72,350.12 947.28,353.01 C950.22,354.3 953.5,354.59 956.54,355.64 C963.264053,358.0117 968.216973,363.783757 969.54,370.79 C969.93,373.03 969.94,375.35 970.73,377.48 C973.28,384.36 982.05,385.9 988.44,389.48 C992.136597,391.564423 995.235664,394.563631 997.44,398.19 C998.44,399.92 999.3,402.19 998.23,403.89 C996.3,407.01 990.43,405.17 988.57,408.34 C987.63,409.94 988.29,411.94 988.57,413.78 C989.48,421.19 980.95,427.98 973.93,425.44 C973.08,430.21 971.93,435.44 968.07,438.33 C963.92,441.43 957.77,440.61 953.58,437.57 C949.39,434.53 946.85,429.72 945.03,424.87 C942.82,418.97 941.17,412.31 936.14,408.52 C934.32,407.16 932.14,406.28 930.36,404.91 C926.36,401.85 924.36,396.8 922.93,391.91 C921.08,385.81 919.61,379.54 916.93,373.78 C914.25,368.02 910.01,362.66 904.2,360.03 C898.75,357.58 892.47,357.74 886.84,355.75 C877.15,352.33 869.98,344.18 860.34,340.34 C857.258169,339.044658 854.338349,337.393449 851.64,335.42 C846.79,332.23 845.47,330.38 844.83,324.6 Z" id="Path" fill="#3F3D56"></path>
            <g id="Group" opacity="0.1" transform="translate(836.000000, 269.000000)" fill="#000000">
                <path d="M9.73,15.16 C9.93623963,14.7688962 10.1166262,14.3646968 10.27,13.95 C11.4,10.81 10.9,7.36 10.91,4.02 C10.9094574,2.90608216 11.013244,1.79456164 11.22,0.7 C10.2970531,2.67588181 9.84846621,4.84005652 9.91,7.02 C9.9,9.71 10.22,12.53 9.73,15.16 Z" id="Path"></path>
                <path d="M133.01,166.19 C128.86,169.28 122.71,168.47 118.52,165.42 C114.33,162.37 111.78,157.58 110.01,152.71 C107.8,146.81 106.16,140.15 101.12,136.36 C99.31,135 97.12,134.11 95.35,132.75 C91.35,129.69 89.35,124.64 87.91,119.8 C86.06,113.7 84.6,107.43 81.91,101.67 C79.22,95.91 75,90.55 69.18,87.92 C63.74,85.47 57.46,85.63 51.83,83.64 C42.13,80.22 34.96,72.07 25.33,68.23 C22.2469305,66.9308023 19.3242319,65.2798634 16.62,63.31 C11.88,60.04 10.62,58.19 9.92,52.42 C8.92,43.76 0.12,36.21 1.49,28.05 C1.26697854,28.491439 1.06997528,28.9455483 0.9,29.41 C-2.1,38.21 7.9,46.18 8.9,55.41 C9.55,61.18 10.9,63.03 15.6,66.3 C18.3042319,68.2698634 21.2269305,69.9208023 24.31,71.22 C33.94,75.06 41.11,83.22 50.81,86.63 C56.44,88.63 62.72,88.46 68.16,90.91 C73.98,93.54 78.16,98.91 80.89,104.66 C83.62,110.41 85.08,116.66 86.89,122.79 C88.36,127.63 90.29,132.68 94.33,135.74 C96.14,137.1 98.33,137.99 100.1,139.35 C105.1,143.14 106.78,149.8 108.99,155.7 C110.81,160.55 113.36,165.35 117.55,168.39 C121.74,171.43 127.89,172.25 132.04,169.16 C134.69,167.16 136.04,164.11 136.93,160.84 C136.13877,162.949121 134.782637,164.799966 133.01,166.19 Z" id="Path"></path>
                <path d="M153.56,136.2 C153.177431,136.917297 153.01072,137.730016 153.08,138.54 C155.34,136.31 160.44,137.62 162.22,134.75 C162.633236,134.040683 162.795295,133.212774 162.68,132.4 C160.36,134.6 155.26,133.29 153.56,136.2 Z" id="Path"></path>
                <path d="M138.87,153.3 C138.68,154.3 138.49,155.37 138.25,156.41 C144.37,158.32 151.44,153.41 152.44,147.21 C150.01,151.98 144.01,155.17 138.87,153.3 Z" id="Path"></path>
            </g>
            <path d="M857.75,329.41 C857.75,329.41 861.08,336.13 851.25,336.27 C841.42,336.41 857.58,379.91 857.58,379.91 L873.92,400.71 L894.25,389.71 L895.42,359.37 L896.92,341.04 C896.92,341.04 877.92,334.87 881.42,326.71 C884.92,318.55 857.75,329.41 857.75,329.41 Z" id="Path" fill="#FBBEBE"></path>
            <path d="M916.76,506.77 C916.76,506.77 928.76,518.58 942.76,502.91 L932.01,491.5 L918.41,491.5 L916.76,506.77 Z" id="Path" fill="#575A89"></path>
            <path d="M918.06,491.5 L916.41,506.77 C916.41,506.77 928.41,518.58 942.41,502.91" id="Path" fill="#000000" opacity="0.1"></path>
            <path d="M938.25,493.58 C938.25,493.58 943.08,506.25 946.58,510.08 C950.08,513.91 955.58,540.41 948.25,537.41 C940.92,534.41 926.92,512.08 926.08,508.25 C925.24,504.42 924.92,493.58 924.92,493.58 L938.25,493.58 Z" id="Path" fill="#FBBEBE"></path>
            <polygon id="Path" fill="#575A89" points="833.42 558.58 898.08 561.08 890.58 533.74 858.01 533.08"></polygon>
            <polygon id="Path" fill="#000000" opacity="0.1" points="842.41 558.58 907.08 561.08 899.58 533.74 867 533.08"></polygon>
            <path d="M854.58,603.71 C853.05,606.56 853.64,616.42 854.33,623.71 C854.77,628.35 855.25,631.92 855.25,631.92 C855.25,631.92 831.08,639.42 827.42,632.92 C826.49,631.27 826.03,628.38 825.87,624.99 C825.37,614.99 827.42,600.58 827.42,600.58 C827.42,600.58 826.42,578.42 825.92,576.25 C825.72,575.38 825.41,572.62 825.11,569.63 C824.67,565.19 824.25,560.25 824.25,560.25 L857.25,542.75 C857.25,542.75 857.25,546.03 857.19,551.08 C857.01,566.94 856.48,600.21 854.58,603.71 Z" id="Path" fill="#FBBEBE"></path>
            <path d="M855.25,631.92 C855.25,631.92 831.08,639.42 827.42,632.92 C826.49,631.27 826.03,628.38 825.87,624.99 C830.87,624.23 846.09,622.13 854.33,623.71 C854.77,628.35 855.25,631.92 855.25,631.92 Z" id="Path" fill="#000000" opacity="0.1"></path>
            <path d="M856.08,757.92 L855.7,757.92 C852.79,758.03 836.25,757.92 836.25,757.92 C836.007958,757.666793 835.780905,757.399672 835.57,757.12 C832.597412,753.397352 831.782399,748.39355 833.42,743.92 C836.42,735.75 836.75,720.75 836.75,720.75 C836.75,720.75 837.92,716.92 836.92,714.75 C835.92,712.58 836.58,709.25 836.58,709.25 C836.426471,707.933028 836.089891,706.643927 835.58,705.42 C834.75,703.42 835.75,699.75 835.75,699.75 C835.635568,696.193844 835.074502,692.666183 834.08,689.25 C832.58,684.92 821.58,633.42 824.25,627.25 C824.25,627.25 847.58,623.25 856.42,626.25 L855.25,666.25 C855.25,666.25 851.08,678.25 854.58,681.42 C858.08,684.59 854.75,694.42 854.75,694.42 C854.75,694.42 854.25,696.25 857.25,702.42 C860.25,708.59 857.25,711.42 857.25,711.42 L857.25,723.25 C857.25,723.25 854.92,731.25 857.58,737.75 C860.24,744.25 857.25,757.71 856.08,757.92 Z" id="Path" fill="#3F3D56"></path>
            <path d="M901.87,603.71 C900.34,606.56 900.93,616.42 901.62,623.71 C902.06,628.35 902.54,631.92 902.54,631.92 C902.54,631.92 878.37,639.42 874.71,632.92 C873.78,631.27 873.32,628.38 873.16,624.99 C872.66,614.99 874.71,600.58 874.71,600.58 C874.71,600.58 873.71,578.42 873.21,576.25 C872.94,575.08 872.47,563.92 872.1,553.91 C871.79,545.37 871.54,537.65 871.54,537.65 L904.54,542.75 C904.54,542.75 904.54,557.26 904.13,572.17 C903.77,586.63 903.1,601.45 901.87,603.71 Z" id="Path" fill="#FBBEBE"></path>
            <path d="M902.54,631.92 C902.54,631.92 878.37,639.42 874.71,632.92 C873.78,631.27 873.32,628.38 873.16,624.99 C878.16,624.23 893.38,622.13 901.62,623.71 C902.06,628.35 902.54,631.92 902.54,631.92 Z" id="Path" fill="#000000" opacity="0.1"></path>
            <path d="M903.37,757.92 L902.99,757.92 C900.08,758.03 883.54,757.92 883.54,757.92 C883.297958,757.666793 883.070905,757.399672 882.86,757.12 C879.887412,753.397352 879.072399,748.39355 880.71,743.92 C883.71,735.71 884.01,720.71 884.01,720.71 C884.01,720.71 885.18,716.88 884.18,714.71 C883.18,712.54 883.84,709.21 883.84,709.21 C883.686471,707.893028 883.349891,706.603927 882.84,705.38 C882.01,703.38 883.01,699.71 883.01,699.71 C882.895568,696.153844 882.334502,692.626183 881.34,689.21 C879.84,684.88 868.84,633.38 871.51,627.21 C871.51,627.21 894.84,623.21 903.68,626.21 L902.51,666.21 C902.51,666.21 898.34,678.21 901.84,681.38 C905.34,684.55 902.01,694.38 902.01,694.38 C902.01,694.38 901.51,696.21 904.51,702.38 C907.51,708.55 904.51,711.38 904.51,711.38 L904.51,723.21 C904.51,723.21 902.18,731.21 904.84,737.71 C907.5,744.21 904.54,757.71 903.37,757.92 Z" id="Path" fill="#3F3D56"></path>
            <circle id="Oval" fill="#000000" opacity="0.1" cx="870.75" cy="313.77" r="23.5"></circle>
            <circle id="Oval" fill="#FBBEBE" cx="870.75" cy="312.77" r="23.5"></circle>
            <path d="M824.25,560.25 L857.25,542.75 C857.25,542.75 857.25,546.03 857.19,551.08 C852.37,553.96 845.1,558.29 838.11,562.38 C834.31,564.61 830.6,566.77 827.42,568.58 C826.681121,568.981058 825.908084,569.315705 825.11,569.58 C824.67,565.19 824.25,560.25 824.25,560.25 Z" id="Path" fill="#000000" opacity="0.1"></path>
            <path d="M904.54,542.71 C904.54,542.71 904.54,557.22 904.13,572.13 L904.01,572.13 C901.544293,572.21774 899.075479,572.140903 896.62,571.9 C892.31,571.44 888.86,570.3 887.62,568.04 C885.11,563.64 878.08,558.04 872.14,553.87 C871.83,545.33 871.58,537.61 871.58,537.61 L904.54,542.71 Z" id="Path" fill="#000000" opacity="0.1"></path>
            <path d="M898.4,415.62 C897.563599,422.129281 897.402743,428.707619 897.92,435.25 C913.08,447.75 910.25,474.08 910.25,474.08 C910.25,474.08 921.92,527.42 919.42,532.25 C916.92,537.08 925.08,566.75 925.08,566.75 C918.124882,568.06811 911.082849,568.876925 904.01,569.17 C901.544293,569.25774 899.075479,569.180903 896.62,568.94 C892.31,568.48 888.86,567.34 887.62,565.08 C882.96,556.92 862.79,544.75 862.79,544.75 C862.79,544.75 850.01,552.41 838.11,559.38 C834.31,561.61 830.6,563.77 827.42,565.58 C824.839204,566.948765 821.987983,567.730716 819.07,567.87 C804.92,568.92 786.07,560.06 789.07,556.92 C792.74,553.08 810.91,485.75 810.91,485.75 C810.91,485.75 820.07,444.08 828.07,438.25 C829.472471,437.190565 830.518921,435.729024 831.07,434.06 C833.81,426.45 829.23,414.25 829.23,414.25 C829.23,414.25 803.4,382.42 804.56,380.58 C805.72,378.74 805.73,368.92 805.73,368.92 C805.73,368.92 808.9,353.42 810.73,345.92 C812.56,338.42 825.73,336.58 829.56,337.25 C833.39,337.92 842.05,340.25 845.71,337.25 C849.37,334.25 855.55,338.42 855.55,338.42 L870.73,342.6 L884.38,334.6 C884.38,334.6 898.06,335.3 899.23,337.13 C900.4,338.96 918.4,342.47 918.4,342.47 C927.56,348.63 927.23,377.97 927.23,377.97 C927.23,377.97 905.23,397.13 900.73,406.97 C899.564471,409.734264 898.78061,412.644307 898.4,415.62 Z" id="Path" fill="#575A89"></path>
            <path d="M922.25,373.91 L927.25,377.91 L932.42,424.41 L937.58,471.08 C937.58,471.08 939.58,475.75 941.25,475.25 C942.92,474.75 942.75,502.91 942.75,502.91 C942.75,502.91 923.61,491.14 916.75,506.77 L911.41,469.08 C911.41,469.08 904.57,430.58 904.74,427.58 C904.91,424.58 901.24,392.08 901.24,392.08 L922.25,373.91 Z" id="Path" fill="#575A89"></path>
            <path d="M808.25,376.08 L804.58,380.58 C804.58,380.58 804.92,399.91 802.08,404.58 C799.24,409.25 809.92,436.58 813.92,434.91 C817.92,433.24 826.92,390.58 826.92,390.08 C826.92,389.58 808.25,376.08 808.25,376.08 Z" id="Path" fill="#575A89"></path>
            <path d="M807.92,403.58 C807.92,403.58 796.25,415.41 797.08,421.08 C797.91,426.75 809.08,444.56 825.08,434.99 C825.08,434.99 839.92,407.08 807.92,403.58 Z" id="Path" fill="#575A89"></path>
            <path d="M855.7,757.95 C852.79,758.06 836.25,757.95 836.25,757.95 C836.007958,757.696793 835.780905,757.429672 835.57,757.15 C839.8,755.71 848.94,753.55 855.7,757.95 Z" id="Path" fill="#000000" opacity="0.1"></path>
            <path d="M903.01,757.95 C900.1,758.06 883.56,757.95 883.56,757.95 C883.317958,757.696793 883.090905,757.429672 882.88,757.15 C887.09,755.71 896.23,753.55 903.01,757.95 Z" id="Path" fill="#000000" opacity="0.1"></path>
            <path d="M839.29,464.82 C836.74,489.28 837.58,537.82 838.11,559.38 C834.31,561.61 830.6,563.77 827.42,565.58 C824.839204,566.948765 821.987983,567.730716 819.07,567.87 C818.01,561.35 832.69,494.38 839.29,464.82 Z" id="Path" fill="#000000" opacity="0.1"></path>
            <path d="M842.41,450.94 C842.34,451.29 841.13,456.61 839.29,464.82 C840.01,457.81 841.01,452.78 842.41,450.94 Z" id="Path" fill="#000000" opacity="0.1"></path>
            <path d="M883.01,448.3 C883.01,448.3 897.18,537.3 855.219997,548.3 C855.21,548.26 884.25,543.85 883.01,448.3 Z" id="Path" fill="#000000" opacity="0.1"></path>
            <path d="M904.01,569.17 C901.544293,569.25774 899.075479,569.180903 896.62,568.94 L885.3,447.25 C892.52,451.97 901.16,538.33 904.01,569.17 Z" id="Path" fill="#000000" opacity="0.1"></path>
            <path d="M853.25,298.95 C854.001136,298.890299 854.756861,298.968244 855.48,299.18 C856.541332,299.708921 857.497039,300.427396 858.3,301.3 C860.9507,303.515292 864.553392,304.213927 867.84,303.15 C868.980383,302.640283 870.190323,302.303253 871.43,302.15 C873.34,302.15 874.99,303.55 875.98,305.15 C876.97,306.75 877.48,308.65 878.33,310.36 C879.18,312.07 880.54,313.69 882.41,314.11 C883.30667,314.144841 884.188737,314.348394 885.01,314.71 C885.513398,315.118944 885.899777,315.653665 886.13,316.26 C887.69,319.63 888.93,323.61 892.26,325.26 C893.484873,325.8277 894.819987,326.117942 896.17,326.11 C897.542696,326.210769 898.918602,325.963106 900.17,325.39 C901.40098,324.702523 902.418332,323.68863 903.11,322.46 C905.19,319.02 905.43,314.76 904.94,310.77 C904.329386,305.736582 902.537303,300.91886 899.71,296.71 C893.646342,288.043666 883.388709,283.310255 872.86,284.32 C871.054757,284.523029 869.266696,284.857246 867.51,285.32 C861.15,287.02 854.91,290.2 851.05,295.53 C850.116608,296.860458 849.09074,298.123578 847.98,299.31 C849.73,299.14 851.49,298.99 853.25,298.95 Z" id="Path" fill="#000000" opacity="0.1"></path>
            <path d="M853.25,297.95 C854.001136,297.890299 854.756861,297.968244 855.48,298.18 C856.541332,298.708921 857.497039,299.427396 858.3,300.3 C860.9507,302.515292 864.553392,303.213927 867.84,302.15 C868.980383,301.640283 870.190323,301.303253 871.43,301.15 C873.34,301.15 874.99,302.55 875.98,304.15 C876.97,305.75 877.48,307.65 878.33,309.36 C879.18,311.07 880.54,312.69 882.41,313.11 C883.30667,313.144841 884.188737,313.348394 885.01,313.71 C885.513398,314.118944 885.899777,314.653665 886.13,315.26 C887.69,318.63 888.93,322.61 892.26,324.26 C893.484873,324.8277 894.819987,325.117942 896.17,325.11 C897.542696,325.210769 898.918602,324.963106 900.17,324.39 C901.40098,323.702523 902.418332,322.68863 903.11,321.46 C905.19,318.02 905.43,313.76 904.94,309.77 C904.329386,304.736582 902.537303,299.91886 899.71,295.71 C893.646342,287.043666 883.388709,282.310255 872.86,283.32 C871.054757,283.523029 869.266696,283.857246 867.51,284.32 C861.15,286.02 854.91,289.2 851.05,294.53 C850.116608,295.860458 849.09074,297.123578 847.98,298.31 C849.73,298.14 851.49,297.99 853.25,297.95 Z" id="Path" fill="#3F3D56"></path>
            <path d="M827.75,353.91 C827.75,353.91 828.92,363.25 824.92,365.58 C820.92,367.91 827.75,353.91 827.75,353.91 Z" id="Path" fill="#000000" opacity="0.1"></path>
            <path d="M912.58,426.25 C912.58,426.25 922.08,412.25 923.42,416.25 C924.76,420.25 912.58,426.25 912.58,426.25 Z" id="Path" fill="#000000" opacity="0.1"></path>
            <path d="M913.25,430.91 C913.25,430.91 922.62,419.41 923.52,423.91 C924.42,428.41 913.25,430.91 913.25,430.91 Z" id="Path" fill="#000000" opacity="0.1"></path>
            <path d="M885.73,417.22 C882.33185,417.268078 879.015492,416.176707 876.31,414.12 L875.49,414.12 C872.684112,416.683334 868.999663,418.06903 865.2,417.99 C861.207673,418.082604 857.351659,416.535861 854.53,413.71 L853.44,413.71 C847.495362,418.551796 838.924068,418.395416 833.16,413.34 L829.25,413.27 C829.25,413.27 833.83,425.47 831.09,433.08 L897.92,434.27 C897.402743,427.727619 897.563599,421.149281 898.4,414.64 L898.4,414.55 L894.73,414.48 C892.089841,416.310977 888.942554,417.269151 885.73,417.22 Z" id="Path" fill="#000000" opacity="0.1"></path>
            <path d="M885.73,419.22 C882.33185,419.268078 879.015492,418.176707 876.31,416.12 L875.49,416.12 C872.684112,418.683334 868.999663,420.06903 865.2,419.99 C861.207673,420.082604 857.351659,418.535861 854.53,415.71 L853.44,415.71 C847.495362,420.551796 838.924068,420.395416 833.16,415.34 L829.25,415.27 C829.25,415.27 833.83,427.47 831.09,435.08 L897.92,436.27 C897.402743,429.727619 897.563599,423.149281 898.4,416.64 L898.4,416.55 L894.73,416.48 C892.089841,418.310977 888.942554,419.269151 885.73,419.22 Z" id="Path" fill="#000000" opacity="0.1"></path>
            <path d="M885.73,418.22 C882.33185,418.268078 879.015492,417.176707 876.31,415.12 L875.49,415.12 C872.684112,417.683334 868.999663,419.06903 865.2,418.99 C861.207673,419.082604 857.351659,417.535861 854.53,414.71 L853.44,414.71 C847.495362,419.551796 838.924068,419.395416 833.16,414.34 L829.25,414.27 C829.25,414.27 833.83,426.47 831.09,434.08 L897.92,435.27 C897.402743,428.727619 897.563599,422.149281 898.4,415.64 L898.4,415.55 L894.73,415.48 C892.089841,417.310977 888.942554,418.269151 885.73,418.22 Z" id="Path" fill="#3F3D56"></path>
            <path d="M882.76,351.54 C882.76,351.54 896.83,352.44 896.92,354.44 C897.01,356.44 882.76,351.54 882.76,351.54 Z" id="Path" fill="#000000" opacity="0.1"></path>
            <path d="M848.58,343.01 C848.58,343.01 834.51,343.91 834.42,345.91 C834.33,347.91 848.58,343.01 848.58,343.01 Z" id="Path" fill="#000000" opacity="0.1"></path>
            <path d="M902.35,383.9 C902.21,383.8 902.07,383.72 901.93,383.63 C905.53,386.87 904.93,393.95 900.51,399.79 C896.09,405.63 889.38,408.06 885.3,405.44 C885.43,405.55 885.54,405.67 885.68,405.78 C889.68,408.84 896.68,406.44 901.3,400.4 C905.92,394.36 906.37,386.97 902.35,383.9 Z" id="Path" fill="#000000" opacity="0.1"></path>
            <path d="M825.06,399.04 C821.5,392.62 821.96,385.53 825.99,382.84 C825.84,382.91 825.68,382.97 825.53,383.05 C821.11,385.51 820.53,392.88 824.19,399.52 C827.85,406.16 834.45,409.52 838.87,407.1 C839.016005,407.016004 839.156309,406.922468 839.29,406.82 C834.88,408.82 828.62,405.46 825.06,399.04 Z" id="Path" fill="#000000" opacity="0.1"></path>
            <path d="M829.82,344.9 L828.53,346.9 L825.24,345.15 L826.97,342.49 C828.114046,343.030841 829.096606,343.861708 829.82,344.9 Z" id="Path" fill="#000000" opacity="0.1"></path>
            <path d="M808.92,418.91 C808.92,418.91 811.85,405.13 807.92,400.75 C803.99,396.37 805.25,373.41 811.25,373.91 C817.25,374.41 826.25,392.57 824.75,396.41 C823.25,400.25 817.58,419.91 817.58,419.91 L808.92,418.91 Z" id="Path" fill="#FBBEBE"></path>
            <path d="M903.01,319.49 C902.318332,320.71863 901.30098,321.732523 900.07,322.42 C898.818602,322.993106 897.442696,323.240769 896.07,323.14 C894.719987,323.147942 893.384873,322.8577 892.16,322.29 C888.83,320.63 887.59,316.65 886.03,313.29 C885.832585,312.683879 885.481107,312.139434 885.01,311.71 C884.200069,311.341707 883.328437,311.128038 882.44,311.08 C880.57,310.66 879.22,309.03 878.36,307.33 C877.5,305.63 876.99,303.75 876.01,302.12 C875.03,300.49 873.37,299.06 871.46,299.12 C870.21677,299.284784 869.006085,299.638884 867.87,300.17 C864.581349,301.22535 860.981336,300.52346 858.33,298.31 C857.527039,297.437396 856.571332,296.718921 855.51,296.19 C854.786861,295.978244 854.031136,295.900299 853.28,295.96 C852.13,295.96 850.99,296.07 849.84,296.16 C849.270458,296.906961 848.6595,297.621415 848.01,298.3 C849.76,298.15 851.52,298 853.28,297.96 C854.031136,297.900299 854.786861,297.978244 855.51,298.19 C856.571332,298.718921 857.527039,299.437396 858.33,300.31 C860.981336,302.52346 864.581349,303.22535 867.87,302.17 C869.006085,301.638884 870.21677,301.284784 871.46,301.12 C873.37,301.12 875.02,302.52 876.01,304.12 C877,305.72 877.51,307.62 878.36,309.33 C879.21,311.04 880.57,312.66 882.44,313.08 C883.328437,313.128038 884.200069,313.341707 885.01,313.71 C885.513398,314.118944 885.899777,314.653665 886.13,315.26 C887.69,318.63 888.93,322.61 892.26,324.26 C893.484873,324.8277 894.819987,325.117942 896.17,325.11 C897.542696,325.210769 898.918602,324.963106 900.17,324.39 C901.40098,323.702523 902.418332,322.68863 903.11,321.46 C904.662531,318.633335 905.357539,315.415449 905.11,312.2 C905.033964,314.767898 904.311703,317.275175 903.01,319.49 Z" id="Path" fill="#000000" opacity="0.1"></path>
            <ellipse id="Oval" fill="#575A89" cx="813.35" cy="423.74" rx="9" ry="6.1"></ellipse>
            <circle id="Oval" fill="#281FB5" cx="519.99" cy="454.79" r="308.5"></circle>
            <path d="M681.86,609.82 C681.86,658.52 605.3,613.98 523.22,613.98 C441.14,613.98 358.12,656.68 358.12,607.98 C358.12,580.21 384.58,541.59 422.54,513.54 C451.14,492.4 486.26,477.26 521.54,477.26 C557.82,477.26 593.36,493.65 621.71,516.15 C657.49,544.52 681.86,582.64 681.86,609.82 Z" id="Path" fill="#444053"></path>
            <path d="M621.7,516.13 C578.07,509.56 499.16,501.55 422.54,513.52 C451.14,492.38 486.26,477.24 521.54,477.24 C557.81,477.24 593.35,493.63 621.7,516.13 Z" id="Path" fill="#F6F8FB"></path>
            <path d="M358.12,237.02 C358.12,237.02 265.19,296.43 265.95,389.36 C266.71,482.29 358.12,237.02 358.12,237.02 Z" id="Path" fill="#000000" opacity="0.05"></path>
            <path d="M828.37,69.23 C828.37,69.23 744.17,64.16 754.1,123.16 C754.1,123.16 752.1,133.58 761.58,138.32 C761.58,138.32 761.73,133.95 770.21,135.43 C773.232125,135.935603 776.303305,136.083288 779.36,135.87 C783.490479,135.589164 787.416199,133.966908 790.54,131.25 C790.54,131.25 814.21,121.48 823.42,82.79 C823.42,82.79 830.23,74.35 829.96,72.19 L815.75,78.25 C815.75,78.25 820.6,88.5 816.75,97.02 C816.75,97.02 816.29,78.63 813.56,79.02 C813.01,79.11 806.18,82.57 806.18,82.57 C806.18,82.57 814.53,100.43 808.18,113.4 C808.18,113.4 810.57,91.4 803.52,83.86 L793.52,89.7 C793.52,89.7 803.28,108.14 796.66,123.19 C796.66,123.19 798.36,100.11 791.42,91.12 L782.35,98.19 C782.35,98.19 791.52,116.37 785.93,128.85 C785.93,128.85 785.2,101.98 780.39,99.95 C780.39,99.95 772.46,106.95 771.25,109.82 C771.25,109.82 777.53,123.01 773.64,129.97 C773.64,129.97 771.25,112.07 769.29,111.97 C769.29,111.97 761.39,123.83 760.56,131.97 C760.56,131.97 760.91,119.87 767.37,110.84 C767.37,110.84 759.73,112.15 755.28,117.11 C755.28,117.11 756.51,108.72 769.28,107.99 C769.28,107.99 775.81,98.99 777.56,98.45 C777.56,98.45 764.81,97.38 757.08,100.81 C757.08,100.81 763.88,92.9 779.89,96.49 L788.89,89.19 C788.89,89.19 772.11,86.89 764.99,89.43 C764.99,89.43 773.18,82.43 791.3,87.53 L801.05,81.7 C801.05,81.7 786.74,78.62 778.21,79.7 C778.21,79.7 787.21,74.85 803.9,80.11 L810.9,76.98 C810.9,76.98 800.41,74.92 797.34,74.6 C794.27,74.28 794.11,73.42 794.11,73.42 C800.771728,72.3368685 807.603462,73.1298067 813.84,75.71 C813.84,75.71 828.62,70.16 828.37,69.23 Z" id="Path" fill="#281FB5"></path>
            <path d="M742.01,43 C742.01,43 704.01,40.7 708.45,67.36 C708.45,67.36 707.56,72.07 711.83,74.21 C711.83,74.21 711.89,72.21 715.73,72.91 C717.09447,73.1345605 718.480216,73.2016669 719.86,73.11 C721.727793,72.9767001 723.502566,72.2436417 724.92,71.02 C724.92,71.02 735.61,66.6 739.77,49.12 C739.77,49.12 742.85,45.31 742.77,44.33 L736.35,47.07 C736.35,47.07 738.55,51.7 736.82,55.55 C736.82,55.55 736.61,47.24 735.38,47.44 C735.13,47.44 732.04,49.04 732.04,49.04 C732.04,49.04 735.82,57.11 732.97,62.97 C732.97,62.97 734.05,53.03 730.87,49.62 L726.35,52.26 C726.35,52.26 730.76,60.6 727.77,67.4 C727.77,67.4 728.53,56.97 725.4,52.91 L721.3,56.1 C721.3,56.1 725.44,64.31 722.92,69.95 C722.92,69.95 722.59,57.81 720.41,56.89 C720.41,56.89 716.83,60.05 716.28,61.35 C716.28,61.35 719.12,67.35 717.36,70.46 C717.36,70.46 716.28,62.37 715.36,62.34 C715.36,62.34 711.79,67.69 711.42,71.34 C711.592096,67.9432478 712.650523,64.6507458 714.49,61.79 C712.432474,62.1792769 710.534202,63.1631801 709.03,64.62 C709.03,64.62 709.58,60.83 715.37,60.5 C715.37,60.5 718.32,56.44 719.11,56.19 C719.11,56.19 713.35,55.71 709.86,57.26 C709.86,57.26 712.93,53.68 720.17,55.26 L724.17,51.97 C724.17,51.97 716.59,50.97 713.37,52.07 C713.37,52.07 717.07,48.91 725.26,51.22 L729.66,48.58 C729.66,48.58 723.2,47.19 719.34,47.69 C719.34,47.69 723.41,45.5 730.95,47.88 L734.1,46.46 C734.1,46.46 729.36,45.53 727.98,45.39 C726.6,45.25 726.51,44.86 726.51,44.86 C729.511974,44.3606115 732.593702,44.7068732 735.41,45.86 C735.41,45.86 742.12,43.42 742.01,43 Z" id="Path" fill="#281FB5"></path>
            <ellipse id="Oval" fill="#281FB5" opacity="0.1" cx="1074.09" cy="725.46" rx="26.93" ry="4.55"></ellipse>
            <ellipse id="Oval" fill="#281FB5" opacity="0.1" cx="47.77" cy="801.15" rx="26.93" ry="4.55"></ellipse>
            <ellipse id="Oval" fill="#281FB5" opacity="0.1" cx="204.1" cy="806.86" rx="26.93" ry="4.55"></ellipse>
            <ellipse id="Oval" fill="#281FB5" cx="1015.15" cy="774.22" rx="40.21" ry="6.8"></ellipse>
            <path d="M1031.77,763.11 C1033.60531,761.612048 1034.94405,759.593486 1035.61,757.32 C1036.1,755.03 1035.12,752.27 1032.93,751.43 C1030.47,750.49 1027.84,752.2 1025.85,753.92 C1023.86,755.64 1021.57,757.6 1018.96,757.24 C1021.69046,754.767604 1022.92084,751.042274 1022.2,747.43 C1022.08621,746.694263 1021.77519,746.003107 1021.3,745.43 C1019.93,743.97 1017.46,744.59 1015.82,745.74 C1010.62,749.4 1009.17,756.46 1009.14,762.82 C1008.62,760.53 1009.06,758.14 1009.05,755.82 C1009.04,753.5 1008.39,750.82 1006.41,749.59 C1005.18125,748.933757 1003.80243,748.609736 1002.41,748.65 C1000.07,748.56 997.47,748.79 995.87,750.5 C993.87,752.63 994.4,756.19 996.13,758.5 C997.86,760.81 1000.48,762.31 1002.89,763.92 C1004.82953,765.073074 1006.48394,766.648859 1007.73,768.53 C1007.8757,768.794794 1007.99623,769.072679 1008.09,769.36 L1022.74,769.36 C1026.0181,767.693448 1029.05565,765.591047 1031.77,763.11 Z" id="Path" fill="#281FB5"></path>
            <path d="M60.34,679.26 C60.34,679.26 65.83,686.44 57.8,697.26 C49.77,708.08 43.15,717.26 45.8,724.02 C45.8,724.02 57.91,703.88 67.8,703.59 C77.69,703.3 71.18,691.37 60.34,679.26 Z" id="Path" fill="#281FB5"></path>
            <path d="M60.34,679.26 C60.8167338,679.953923 61.1937425,680.711306 61.46,681.51 C71.08,692.81 76.2,703.36 66.96,703.62 C58.34,703.87 47.96,719.27 45.53,723.16 C45.6149465,723.46153 45.7150742,723.758575 45.83,724.05 C45.83,724.05 57.94,703.91 67.83,703.62 C77.72,703.33 71.18,691.37 60.34,679.26 Z" id="Path" fill="#000000" opacity="0.1"></path>
            <path d="M70.55,688.41 C70.55,690.94 70.26,692.99 69.91,692.99 C69.56,692.99 69.28,690.99 69.28,688.41 C69.28,685.83 69.63,687.07 69.99,687.07 C70.35,687.07 70.55,685.88 70.55,688.41 Z" id="Path" fill="#FFD037"></path>
            <path d="M74.01,691.43 C71.79,692.64 69.86,693.37 69.69,693.06 C69.52,692.75 71.19,691.53 73.41,690.32 C75.63,689.11 74.75,689.99 74.92,690.32 C75.09,690.65 76.27,690.22 74.01,691.43 Z" id="Path" fill="#FFD037"></path>
            <path d="M31.32,679.26 C31.32,679.26 25.83,686.44 33.85,697.26 C41.87,708.08 48.5,717.26 45.85,724.02 C45.85,724.02 33.73,703.88 23.85,703.59 C13.97,703.3 20.47,691.37 31.32,679.26 Z" id="Path" fill="#281FB5"></path>
            <path d="M31.32,679.26 C30.8388693,679.951327 30.4615353,680.709364 30.2,681.51 C20.58,692.81 15.45,703.36 24.7,703.62 C33.31,703.87 43.7,719.27 46.12,723.16 C46.0384319,723.461376 45.9416411,723.758423 45.83,724.05 C45.83,724.05 33.71,703.91 23.83,703.62 C13.95,703.33 20.47,691.37 31.32,679.26 Z" id="Path" fill="#000000" opacity="0.1"></path>
            <path d="M21.11,688.41 C21.11,690.94 21.39,692.99 21.74,692.99 C22.09,692.99 22.37,690.99 22.37,688.41 C22.37,685.83 22.02,687.07 21.67,687.07 C21.32,687.07 21.11,685.88 21.11,688.41 Z" id="Path" fill="#FFD037"></path>
            <path d="M17.6,691.43 C19.82,692.64 21.76,693.37 21.93,693.06 C22.1,692.75 20.43,691.53 18.21,690.32 C15.99,689.11 16.86,689.99 16.7,690.32 C16.54,690.65 15.38,690.22 17.6,691.43 Z" id="Path" fill="#FFD037"></path>
            <path d="M22.86,723.11 C22.86,723.11 38.22,722.64 42.86,719.34 C47.5,716.04 66.49,712.11 67.64,717.34 C68.79,722.57 90.72,743.64 73.38,743.78 C56.04,743.92 33.09,741.07 28.47,738.26 C23.85,735.45 22.86,723.11 22.86,723.11 Z" id="Path" fill="#A8A8A8"></path>
            <path d="M73.67,741.99 C56.33,742.13 33.38,739.28 28.76,736.47 C25.24,734.33 23.84,726.64 23.37,723.09 L22.86,723.09 C22.86,723.09 23.86,735.48 28.45,738.29 C33.04,741.1 56.02,743.95 73.36,743.81 C78.36,743.81 80.09,741.98 80,739.35 C79.3,740.96 77.4,741.96 73.67,741.99 Z" id="Path" fill="#000000" opacity="0.2"></path>
            <path d="M410.31,414.34 C416.18,414.01 443.81,411.93 461.36,401.92 C464.17859,400.261779 467.36256,399.324105 470.63,399.19 C476.21,399.03 482.63,401.36 478.52,414.4 C471.86,435.73 433.19,459.73 409.19,458.4 C386.11,457.12 358.73,447.82 340.65,415.12 C338.917709,411.973984 338.064509,408.419556 338.18,404.83 C338.39,398.23 340.79,389.96 353.18,399.18 C369.92,411.63 401.68,413.99 408.05,414.34 C408.802793,414.380354 409.557207,414.380354 410.31,414.34 Z" id="Path" fill="#444053"></path>
            <path d="M632.31,414.34 C638.18,414.01 665.81,411.93 683.36,401.92 C686.17859,400.261779 689.36256,399.324105 692.63,399.19 C698.21,399.03 704.63,401.36 700.52,414.4 C693.86,435.73 655.19,459.73 631.19,458.4 C608.11,457.12 580.73,447.82 562.65,415.12 C560.917709,411.973984 560.064509,408.419556 560.18,404.83 C560.39,398.23 562.79,389.96 575.18,399.18 C591.92,411.63 623.68,413.99 630.05,414.34 C630.802793,414.380354 631.557207,414.380354 632.31,414.34 Z" id="Path" fill="#444053"></path>
        </g>
    </g>
</svg>