<?xml version="1.0" encoding="UTF-8"?>
<svg width="550px" height="60px" viewBox="0 0 550 60" version="1.1" xmlns="http://www.w3.org/2000/svg" xmlns:xlink="http://www.w3.org/1999/xlink">
    <!-- Generator: Sketch 50.2 (55047) - http://www.bohemiancoding.com/sketch -->
    <title>assets/res/better-pension</title>
    <desc>Created with Sketch.</desc>
    <defs></defs>
    <g id="assets/res/better-pension" stroke="none" stroke-width="1" fill="none" fill-rule="evenodd">
        <path d="M71.2770556,0.408318475 L77.9170556,0.408318475 L77.9170556,21.0753185 L78.2490556,21.0753185 C79.5217287,19.4706438 81.1402125,18.2256562 83.1045556,17.3403185 C85.0688988,16.4549807 87.213044,16.0123185 89.5370556,16.0123185 C94.9044158,16.0123185 98.9298755,17.7276347 101.613556,21.1583185 C104.297236,24.5890023 105.639056,29.9009492 105.639056,37.0943185 C105.639056,44.3430214 103.868407,49.848633 100.327056,53.6113185 C96.7857046,57.374004 91.8057544,59.2553185 85.3870556,59.2553185 C82.2883735,59.2553185 79.4802349,58.9233218 76.9625556,58.2593185 C74.4448764,57.5953152 72.5497287,56.875989 71.2770556,56.1013185 L71.2770556,0.408318475 Z M88.3750556,21.8223185 C85.6083751,21.8223185 83.3673975,22.5969774 81.6520556,24.1463185 C79.9367137,25.6956596 78.6917262,27.8813044 77.9170556,30.7033185 L77.9170556,51.6193185 C78.9683942,52.2279882 80.2410482,52.6844836 81.7350556,52.9888185 C83.2290631,53.2931533 84.7783809,53.4453185 86.3830556,53.4453185 C90.1457411,53.4453185 93.1475444,52.1173318 95.3885556,49.4613185 C97.6295668,46.8053052 98.7500556,42.6553467 98.7500556,37.0113185 C98.7500556,34.8533077 98.5563909,32.8336612 98.1690556,30.9523185 C97.7817204,29.0709757 97.1730598,27.4663251 96.3430556,26.1383185 C95.5130515,24.8103118 94.4478955,23.758989 93.1475556,22.9843185 C91.8472158,22.2096479 90.2563984,21.8223185 88.3750556,21.8223185 Z M146.392056,55.1883185 C144.732047,56.5163251 142.643235,57.5676479 140.125556,58.3423185 C137.607876,59.116989 134.93807,59.5043185 132.116056,59.5043185 C128.96204,59.5043185 126.223067,58.9924903 123.899056,57.9688185 C121.575044,56.9451467 119.666063,55.478828 118.172056,53.5698185 C116.678048,51.6608089 115.571393,49.3783318 114.852056,46.7223185 C114.132719,44.0663052 113.773056,41.0783351 113.773056,37.7583185 C113.773056,30.6756164 115.35004,25.2806703 118.504056,21.5733185 C121.658071,17.8659666 126.167693,16.0123185 132.033056,16.0123185 C133.914398,16.0123185 135.795713,16.2198164 137.677056,16.6348185 C139.558398,17.0498206 141.246048,17.8383127 142.740056,19.0003185 C144.234063,20.1623243 145.451384,21.8084745 146.392056,23.9388185 C147.332727,26.0691625 147.803056,28.877301 147.803056,32.3633185 C147.803056,34.1893276 147.637057,36.2089741 147.305056,38.4223185 L120.662056,38.4223185 C120.662056,40.8569973 120.911053,43.0149757 121.409056,44.8963185 C121.907058,46.7776612 122.681717,48.3684786 123.733056,49.6688185 C124.784394,50.9691583 126.153881,51.9651484 127.841556,52.6568185 C129.529231,53.3484886 131.590377,53.6943185 134.025056,53.6943185 C135.906398,53.6943185 137.787713,53.3623218 139.669056,52.6983185 C141.550398,52.0343152 142.961384,51.2596562 143.902056,50.3743185 L146.392056,55.1883185 Z M132.116056,21.8223185 C128.851373,21.8223185 126.236899,22.6799766 124.272556,24.3953185 C122.308212,26.1106604 121.132391,29.0432977 120.745056,33.1933185 L141.329056,33.1933185 C141.329056,28.9879641 140.52673,26.0414936 138.922056,24.3538185 C137.317381,22.6661434 135.048737,21.8223185 132.116056,21.8223185 Z M152.783056,17.0083185 L159.257056,17.0083185 L159.257056,8.79131848 L165.897056,6.88231848 L165.897056,17.0083185 L177.185056,17.0083185 L177.185056,22.8183185 L165.897056,22.8183185 L165.897056,45.8093185 C165.897056,48.6866662 166.256719,50.7201459 166.976056,51.9098185 C167.695393,53.0994911 168.912714,53.6943185 170.628056,53.6943185 C172.066729,53.6943185 173.284051,53.5421533 174.280056,53.2378185 C175.276061,52.9334836 176.382716,52.532321 177.600056,52.0343185 L179.094056,57.0973185 C177.600048,57.8166554 175.967731,58.3976496 174.197056,58.8403185 C172.42638,59.2829874 170.517399,59.5043185 168.470056,59.5043185 C165.094705,59.5043185 162.715396,58.549828 161.332056,56.6408185 C159.948715,54.7318089 159.257056,51.5363409 159.257056,47.0543185 L159.257056,22.8183185 L152.783056,22.8183185 L152.783056,17.0083185 Z M180.920056,17.0083185 L187.394056,17.0083185 L187.394056,8.79131848 L194.034056,6.88231848 L194.034056,17.0083185 L205.322056,17.0083185 L205.322056,22.8183185 L194.034056,22.8183185 L194.034056,45.8093185 C194.034056,48.6866662 194.393719,50.7201459 195.113056,51.9098185 C195.832393,53.0994911 197.049714,53.6943185 198.765056,53.6943185 C200.203729,53.6943185 201.421051,53.5421533 202.417056,53.2378185 C203.413061,52.9334836 204.519716,52.532321 205.737056,52.0343185 L207.231056,57.0973185 C205.737048,57.8166554 204.104731,58.3976496 202.334056,58.8403185 C200.56338,59.2829874 198.654399,59.5043185 196.607056,59.5043185 C193.231705,59.5043185 190.852396,58.549828 189.469056,56.6408185 C188.085715,54.7318089 187.394056,51.5363409 187.394056,47.0543185 L187.394056,22.8183185 L180.920056,22.8183185 L180.920056,17.0083185 Z M243.917056,55.1883185 C242.257047,56.5163251 240.168235,57.5676479 237.650556,58.3423185 C235.132876,59.116989 232.46307,59.5043185 229.641056,59.5043185 C226.48704,59.5043185 223.748067,58.9924903 221.424056,57.9688185 C219.100044,56.9451467 217.191063,55.478828 215.697056,53.5698185 C214.203048,51.6608089 213.096393,49.3783318 212.377056,46.7223185 C211.657719,44.0663052 211.298056,41.0783351 211.298056,37.7583185 C211.298056,30.6756164 212.87504,25.2806703 216.029056,21.5733185 C219.183071,17.8659666 223.692693,16.0123185 229.558056,16.0123185 C231.439398,16.0123185 233.320713,16.2198164 235.202056,16.6348185 C237.083398,17.0498206 238.771048,17.8383127 240.265056,19.0003185 C241.759063,20.1623243 242.976384,21.8084745 243.917056,23.9388185 C244.857727,26.0691625 245.328056,28.877301 245.328056,32.3633185 C245.328056,34.1893276 245.162057,36.2089741 244.830056,38.4223185 L218.187056,38.4223185 C218.187056,40.8569973 218.436053,43.0149757 218.934056,44.8963185 C219.432058,46.7776612 220.206717,48.3684786 221.258056,49.6688185 C222.309394,50.9691583 223.678881,51.9651484 225.366556,52.6568185 C227.054231,53.3484886 229.115377,53.6943185 231.550056,53.6943185 C233.431398,53.6943185 235.312713,53.3623218 237.194056,52.6983185 C239.075398,52.0343152 240.486384,51.2596562 241.427056,50.3743185 L243.917056,55.1883185 Z M229.641056,21.8223185 C226.376373,21.8223185 223.761899,22.6799766 221.797556,24.3953185 C219.833212,26.1106604 218.657391,29.0432977 218.270056,33.1933185 L238.854056,33.1933185 C238.854056,28.9879641 238.05173,26.0414936 236.447056,24.3538185 C234.842381,22.6661434 232.573737,21.8223185 229.641056,21.8223185 Z M275.374056,23.3993185 C273.714047,22.8459824 272.137063,22.5693185 270.643056,22.5693185 C268.26371,22.5693185 266.382396,23.2194786 264.999056,24.5198185 C263.615715,25.8201583 262.758057,27.4663085 262.426056,29.4583185 L262.426056,58.5083185 L255.786056,58.5083185 L255.786056,17.0083185 L260.434056,17.0083185 L261.679056,22.0713185 L262.011056,22.0713185 C263.062394,20.1899757 264.321215,18.7374903 265.787556,17.7138185 C267.253896,16.6901467 269.121378,16.1783185 271.390056,16.1783185 C272.99473,16.1783185 274.793046,16.4549824 276.785056,17.0083185 L275.374056,23.3993185 Z M284.670056,0.989318475 C286.772733,0.491315985 289.041377,0.159319305 291.476056,-0.00668152484 C293.910734,-0.172682355 296.31771,-0.255681525 298.697056,-0.255681525 C301.242402,-0.255681525 303.829209,-0.00668401484 306.457556,0.491318475 C309.085902,0.989320965 311.479045,1.90231184 313.637056,3.23031848 C315.795066,4.55832512 317.551882,6.38430686 318.907556,8.70831848 C320.263229,11.0323301 320.941056,13.9926338 320.941056,17.5893185 C320.941056,21.1306695 320.304729,24.1186396 319.032056,26.5533185 C317.759383,28.9879973 316.071733,30.9661442 313.969056,32.4878185 C311.866378,34.0094928 309.459403,35.1023152 306.748056,35.7663185 C304.036709,36.4303218 301.242403,36.7623185 298.365056,36.7623185 L296.995556,36.7623185 C296.359219,36.7623185 295.695226,36.7484853 295.003556,36.7208185 C294.311885,36.6931517 293.634059,36.6516521 292.970056,36.5963185 C292.306052,36.5409849 291.835724,36.4856521 291.559056,36.4303185 L291.559056,58.5083185 L284.670056,58.5083185 L284.670056,0.989318475 Z M298.863056,5.72031848 C297.424382,5.72031848 296.041062,5.74798487 294.713056,5.80331848 C293.385049,5.85865209 292.333726,5.99698404 291.559056,6.21831848 L291.559056,30.2883185 C291.835724,30.3989857 292.278386,30.4681517 292.887056,30.4958185 C293.495725,30.5234853 294.132052,30.5511517 294.796056,30.5788185 C295.460059,30.6064853 296.096386,30.6203185 296.705056,30.6203185 L298.033056,30.6203185 C299.914398,30.6203185 301.78188,30.4404869 303.635556,30.0808185 C305.489232,29.72115 307.163048,29.0709898 308.657056,28.1303185 C310.151063,27.1896471 311.354551,25.8616604 312.267556,24.1463185 C313.18056,22.4309766 313.637056,20.2453318 313.637056,17.5893185 C313.637056,15.3206405 313.208227,13.4254928 312.350556,11.9038185 C311.492885,10.3821442 310.358563,9.16482304 308.947556,8.25181848 C307.536549,7.33881391 305.945731,6.68865375 304.175056,6.30131848 C302.40438,5.91398321 300.633731,5.72031848 298.863056,5.72031848 Z M357.710056,55.1883185 C356.050047,56.5163251 353.961235,57.5676479 351.443556,58.3423185 C348.925876,59.116989 346.25607,59.5043185 343.434056,59.5043185 C340.28004,59.5043185 337.541067,58.9924903 335.217056,57.9688185 C332.893044,56.9451467 330.984063,55.478828 329.490056,53.5698185 C327.996048,51.6608089 326.889393,49.3783318 326.170056,46.7223185 C325.450719,44.0663052 325.091056,41.0783351 325.091056,37.7583185 C325.091056,30.6756164 326.66804,25.2806703 329.822056,21.5733185 C332.976071,17.8659666 337.485693,16.0123185 343.351056,16.0123185 C345.232398,16.0123185 347.113713,16.2198164 348.995056,16.6348185 C350.876398,17.0498206 352.564048,17.8383127 354.058056,19.0003185 C355.552063,20.1623243 356.769384,21.8084745 357.710056,23.9388185 C358.650727,26.0691625 359.121056,28.877301 359.121056,32.3633185 C359.121056,34.1893276 358.955057,36.2089741 358.623056,38.4223185 L331.980056,38.4223185 C331.980056,40.8569973 332.229053,43.0149757 332.727056,44.8963185 C333.225058,46.7776612 333.999717,48.3684786 335.051056,49.6688185 C336.102394,50.9691583 337.471881,51.9651484 339.159556,52.6568185 C340.847231,53.3484886 342.908377,53.6943185 345.343056,53.6943185 C347.224398,53.6943185 349.105713,53.3623218 350.987056,52.6983185 C352.868398,52.0343152 354.279384,51.2596562 355.220056,50.3743185 L357.710056,55.1883185 Z M343.434056,21.8223185 C340.169373,21.8223185 337.554899,22.6799766 335.590556,24.3953185 C333.626212,26.1106604 332.450391,29.0432977 332.063056,33.1933185 L352.647056,33.1933185 C352.647056,28.9879641 351.84473,26.0414936 350.240056,24.3538185 C348.635381,22.6661434 346.366737,21.8223185 343.434056,21.8223185 Z M396.222056,58.5083185 L396.222056,34.8533185 C396.222056,30.5372969 395.599562,27.2864961 394.354556,25.1008185 C393.109549,22.9151409 390.827072,21.8223185 387.507056,21.8223185 C384.574374,21.8223185 382.153565,22.6108106 380.244556,24.1878185 C378.335546,25.7648264 376.993726,27.7429732 376.219056,30.1223185 L376.219056,58.5083185 L369.579056,58.5083185 L369.579056,17.0083185 L374.227056,17.0083185 L375.472056,22.0713185 L375.804056,22.0713185 C377.132062,20.300643 378.916544,18.8481575 381.157556,17.7138185 C383.398567,16.5794795 386.068373,16.0123185 389.167056,16.0123185 C391.435734,16.0123185 393.427714,16.2751492 395.143056,16.8008185 C396.858398,17.3264878 398.283217,18.2533118 399.417556,19.5813185 C400.551895,20.9093251 401.409553,22.6938073 401.990556,24.9348185 C402.571559,27.1758297 402.862056,30.0116347 402.862056,33.4423185 L402.862056,58.5083185 L396.222056,58.5083185 Z M433.240056,47.2203185 C433.240056,45.5603102 432.742061,44.2599898 431.746056,43.3193185 C430.750051,42.3786471 429.518896,41.590155 428.052556,40.9538185 C426.586215,40.317482 424.981564,39.7088214 423.238556,39.1278185 C421.495547,38.5468156 419.890896,37.799823 418.424556,36.8868185 C416.958215,35.9738139 415.727061,34.7979923 414.731056,33.3593185 C413.735051,31.9206446 413.237056,29.9839973 413.237056,27.5493185 C413.237056,23.5652986 414.371378,20.6464944 416.640056,18.7928185 C418.908734,16.9391425 422.062702,16.0123185 426.102056,16.0123185 C429.090071,16.0123185 431.593879,16.2751492 433.613556,16.8008185 C435.633232,17.3264878 437.390048,17.9489815 438.884056,18.6683185 L437.307056,24.1463185 C436.034383,23.5376488 434.498898,22.9981542 432.700556,22.5278185 C430.902213,22.0574828 428.979399,21.8223185 426.932056,21.8223185 C424.497377,21.8223185 422.712895,22.2373143 421.578556,23.0673185 C420.444217,23.8973226 419.877056,25.3359749 419.877056,27.3833185 C419.877056,28.8219923 420.375051,29.9424811 421.371056,30.7448185 C422.367061,31.5471558 423.598215,32.266482 425.064556,32.9028185 C426.530896,33.539155 428.135547,34.1616488 429.878556,34.7703185 C431.621564,35.3789882 433.226215,36.1813135 434.692556,37.1773185 C436.158896,38.1733235 437.390051,39.4321442 438.386056,40.9538185 C439.382061,42.4754928 439.880056,44.481306 439.880056,46.9713185 C439.880056,48.741994 439.589559,50.4019774 439.008556,51.9513185 C438.427553,53.5006596 437.528395,54.8286463 436.311056,55.9353185 C435.093716,57.0419907 433.585898,57.913482 431.787556,58.5498185 C429.989213,59.186155 427.872734,59.5043185 425.438056,59.5043185 C422.28404,59.5043185 419.6004,59.1999882 417.387056,58.5913185 C415.173711,57.9826488 413.320063,57.2633226 411.826056,56.4333185 L413.818056,50.7893185 C415.090729,51.5086554 416.750712,52.1726488 418.798056,52.7813185 C420.845399,53.3899882 422.920378,53.6943185 425.023056,53.6943185 C427.402401,53.6943185 429.366715,53.2239898 430.916056,52.2833185 C432.465397,51.3426471 433.240056,49.6549973 433.240056,47.2203185 Z M451.334056,17.0083185 L457.974056,17.0083185 L457.974056,58.5083185 L451.334056,58.5083185 L451.334056,17.0083185 Z M449.923056,4.39231848 C449.923056,3.11964545 450.351885,2.02682304 451.209556,1.11381848 C452.067227,0.20081391 453.160049,-0.255681525 454.488056,-0.255681525 C455.816062,-0.255681525 456.950384,0.20081391 457.891056,1.11381848 C458.831727,2.02682304 459.302056,3.11964545 459.302056,4.39231848 C459.302056,5.66499151 458.831727,6.71631433 457.891056,7.54631848 C456.950384,8.37632263 455.816062,8.79131848 454.488056,8.79131848 C453.160049,8.79131848 452.067227,8.37632263 451.209556,7.54631848 C450.351885,6.71631433 449.923056,5.66499151 449.923056,4.39231848 Z M469.843056,37.7583185 C469.843056,30.73095 471.406207,25.3498372 474.532556,21.6148185 C477.658905,17.8797998 482.154693,16.0123185 488.020056,16.0123185 C491.118738,16.0123185 493.816211,16.5241467 496.112556,17.5478185 C498.4089,18.5714903 500.304048,20.0378089 501.798056,21.9468185 C503.292063,23.855828 504.398719,26.1521384 505.118056,28.8358185 C505.837393,31.5194986 506.197056,34.4936355 506.197056,37.7583185 C506.197056,44.7856869 504.633905,50.1667998 501.507556,53.9018185 C498.381207,57.6368372 493.885418,59.5043185 488.020056,59.5043185 C484.921373,59.5043185 482.2239,58.9924903 479.927556,57.9688185 C477.631211,56.9451467 475.736063,55.478828 474.242056,53.5698185 C472.748048,51.6608089 471.641393,49.3644986 470.922056,46.6808185 C470.202719,43.9971384 469.843056,41.0230015 469.843056,37.7583185 Z M476.732056,37.7583185 C476.732056,39.8609957 476.939554,41.8806421 477.354556,43.8173185 C477.769558,45.7539948 478.419718,47.4416446 479.305056,48.8803185 C480.190393,50.3189923 481.352382,51.4809807 482.791056,52.3663185 C484.229729,53.2516562 485.972712,53.6943185 488.020056,53.6943185 C495.545427,53.7496521 499.308056,48.4377052 499.308056,37.7583185 C499.308056,35.6003077 499.100558,33.5529948 498.685556,31.6163185 C498.270554,29.6796421 497.620393,27.9919923 496.735056,26.5533185 C495.849718,25.1146446 494.687729,23.9664894 493.249056,23.1088185 C491.810382,22.2511475 490.067399,21.8223185 488.020056,21.8223185 C480.494685,21.7669849 476.732056,27.0789317 476.732056,37.7583185 Z M543.298056,58.5083185 L543.298056,34.8533185 C543.298056,30.5372969 542.675562,27.2864961 541.430556,25.1008185 C540.185549,22.9151409 537.903072,21.8223185 534.583056,21.8223185 C531.650374,21.8223185 529.229565,22.6108106 527.320556,24.1878185 C525.411546,25.7648264 524.069726,27.7429732 523.295056,30.1223185 L523.295056,58.5083185 L516.655056,58.5083185 L516.655056,17.0083185 L521.303056,17.0083185 L522.548056,22.0713185 L522.880056,22.0713185 C524.208062,20.300643 525.992544,18.8481575 528.233556,17.7138185 C530.474567,16.5794795 533.144373,16.0123185 536.243056,16.0123185 C538.511734,16.0123185 540.503714,16.2751492 542.219056,16.8008185 C543.934398,17.3264878 545.359217,18.2533118 546.493556,19.5813185 C547.627895,20.9093251 548.485553,22.6938073 549.066556,24.9348185 C549.647559,27.1758297 549.938056,30.0116347 549.938056,33.4423185 L549.938056,58.5083185 L543.298056,58.5083185 Z" id="betterPension-vectorized" fill="#215E93"></path>
        <g id="Dots" fill="#215E93">
            <circle id="Oval" cx="3.75" cy="3.75" r="3.75"></circle>
            <circle id="Oval-Copy-12" cx="3.75" cy="24.75" r="3.75"></circle>
            <circle id="Oval-Copy-24" cx="3.75" cy="45.75" r="3.75"></circle>
            <circle id="Oval-Copy-6" cx="3.75" cy="14.25" r="3.75"></circle>
            <circle id="Oval-Copy-13" cx="3.75" cy="35.25" r="3.75"></circle>
            <circle id="Oval-Copy-25" cx="3.75" cy="56.25" r="3.75"></circle>
            <circle id="Oval-Copy" cx="14.25" cy="3.75" r="3.75"></circle>
            <circle id="Oval-Copy-14" cx="14.25" cy="24.75" r="3.75"></circle>
            <circle id="Oval-Copy-26" cx="14.25" cy="45.75" r="3.75"></circle>
            <circle id="Oval-Copy-7" cx="14.25" cy="14.25" r="3.75"></circle>
            <circle id="Oval-Copy-15" cx="14.25" cy="35.25" r="3.75"></circle>
            <circle id="Oval-Copy-27" cx="14.25" cy="56.25" r="3.75"></circle>
            <circle id="Oval-Copy-2" cx="24.75" cy="3.75" r="3.75"></circle>
            <circle id="Oval-Copy-16" cx="24.75" cy="24.75" r="3.75"></circle>
            <circle id="Oval-Copy-28" cx="24.75" cy="45.75" r="3.75"></circle>
            <circle id="Oval-Copy-8" cx="24.75" cy="14.25" r="3.75"></circle>
            <circle id="Oval-Copy-17" cx="24.75" cy="35.25" r="3.75"></circle>
            <circle id="Oval-Copy-29" cx="24.75" cy="56.25" r="3.75"></circle>
            <circle id="Oval-Copy-3" cx="35.25" cy="3.75" r="3.75"></circle>
            <circle id="Oval-Copy-18" cx="35.25" cy="24.75" r="3.75"></circle>
            <circle id="Oval-Copy-30" cx="35.25" cy="45.75" r="3.75"></circle>
            <circle id="Oval-Copy-9" cx="35.25" cy="14.25" r="3.75"></circle>
            <circle id="Oval-Copy-19" cx="35.25" cy="35.25" r="3.75"></circle>
            <circle id="Oval-Copy-31" cx="35.25" cy="56.25" r="3.75"></circle>
            <circle id="Oval-Copy-4" cx="45.75" cy="3.75" r="3.75"></circle>
            <circle id="Oval-Copy-20" cx="45.75" cy="24.75" r="3.75"></circle>
            <circle id="Oval-Copy-32" cx="45.75" cy="45.75" r="3.75"></circle>
            <circle id="Oval-Copy-10" cx="45.75" cy="14.25" r="3.75"></circle>
            <circle id="Oval-Copy-21" cx="45.75" cy="35.25" r="3.75"></circle>
            <circle id="Oval-Copy-33" cx="45.75" cy="56.25" r="3.75"></circle>
            <circle id="Oval-Copy-5" cx="56.25" cy="3.75" r="3.75"></circle>
            <circle id="Oval-Copy-22" cx="56.25" cy="24.75" r="3.75"></circle>
            <circle id="Oval-Copy-34" cx="56.25" cy="45.75" r="3.75"></circle>
            <circle id="Oval-Copy-11" cx="56.25" cy="14.25" r="3.75"></circle>
            <circle id="Oval-Copy-23" cx="56.25" cy="35.25" r="3.75"></circle>
            <circle id="Oval-Copy-35" cx="56.25" cy="56.25" r="3.75"></circle>
        </g>
    </g>
</svg>