<?xml version="1.0" encoding="UTF-8"?>
<svg width="1028px" height="784px" viewBox="0 0 1028 784" version="1.1" xmlns="http://www.w3.org/2000/svg" xmlns:xlink="http://www.w3.org/1999/xlink">
    <!-- Generator: Sketch 52.1 (67048) - http://www.bohemiancoding.com/sketch -->
    <title>static/content/mission/calculator</title>
    <desc>Created with Sketch.</desc>
    <defs>
        <linearGradient x1="50.0022696%" y1="100.00331%" x2="50.0022696%" y2="-0.000368254062%" id="linearGradient-1">
            <stop stop-color="#808080" stop-opacity="0.25" offset="0%"></stop>
            <stop stop-color="#808080" stop-opacity="0.12" offset="54%"></stop>
            <stop stop-color="#808080" stop-opacity="0.1" offset="100%"></stop>
        </linearGradient>
    </defs>
    <g id="static/content/mission/calculator" stroke="none" stroke-width="1" fill="none" fill-rule="evenodd">
        <g id="undraw_Calculator_0evy-2">
            <path d="M585.81279,124.82079 C521.175236,122.573656 459.613758,101.710268 400.818752,78.8793885 C342.023745,56.0485096 283.808,30.7607643 220.718471,18.6562038 C180.140229,10.8761274 133.739414,9.77752866 101.041121,31.5297834 C69.5812484,52.5030318 59.4142166,88.6069809 53.9411975,122.144204 C49.8364331,147.372025 47.4195159,173.928153 58.6851465,197.548025 C66.505172,213.947108 80.3974522,227.729529 90.0051975,243.429503 C123.422573,298.079796 99.8027006,365.513783 63.598879,418.835771 C46.620535,443.873834 26.9056815,467.77335 13.7924076,494.399389 C0.679133758,521.025427 -5.38313376,551.576459 6.08224204,578.761783 C17.4577325,605.727389 44.553172,625.941605 73.9057325,640.173452 C133.509707,669.13651 203.740127,677.356025 272.262726,682.040051 C423.889325,692.416815 576.334879,687.922548 728.360968,683.42828 C784.629197,681.760408 841.137121,680.072561 896.49651,671.373656 C927.227312,666.549809 958.966828,658.879592 981.278369,640.413146 C1009.60224,616.913121 1016.62329,577.123873 997.64749,547.651465 C965.808102,498.22451 877.800357,485.950166 855.518777,432.907822 C843.264408,403.70507 855.848357,371.186548 873.645656,344.101096 C911.836943,286.015185 975.845299,235.050191 979.220994,168.654879 C981.538038,123.053045 950.767287,77.3812994 903.187975,55.798828 C853.311592,33.1876688 784.159796,36.0340382 747.386701,73.466293 C709.455083,111.967185 642.860025,126.818242 585.81279,124.82079 Z" id="Path" fill="#281FB5" opacity="0.1"></path>
            <ellipse id="Oval" fill="#281FB5" opacity="0.1" cx="579.051414" cy="726.653146" rx="370.507414" ry="27.5448662"></ellipse>
            <path d="M292.566828,637.436943 C292.566828,637.436943 313.540076,634.081223 326.124025,648.912306 C326.124025,648.912306 316.895796,656.183032 297.041121,646.115873 L292.566828,637.436943 Z" id="Path" fill="#281FB5"></path>
            <path d="M290.309707,637.167287 C290.309707,637.167287 276.936764,653.666242 283.498395,671.972892 C283.498395,671.972892 294.404484,667.598471 295.592968,645.366828 L290.309707,637.167287 Z" id="Path" fill="#281FB5"></path>
            <path d="M278.324994,610.031898 C278.324994,610.031898 286.714293,594.651516 320.27149,616.184051 C320.27149,616.184051 315.797197,626.530854 300.976102,625.691924 C286.155006,624.852994 282.220025,618.19149 278.324994,610.031898 Z" id="Path" fill="#281FB5"></path>
            <path d="M276.137783,608.923312 C276.137783,608.923312 258.729987,606.92586 257.04214,646.785019 C257.04214,646.785019 268.078064,649.072102 275.918064,636.468178 C283.758064,623.864255 280.522191,616.793274 276.137783,608.923312 Z" id="Path" fill="#281FB5"></path>
            <path d="M266.000713,577.143847 C266.000713,577.143847 275.788229,550.018446 311.30293,569.313834 C311.30293,569.313834 303.193274,594.202089 269.636076,586.372076 L266.000713,577.143847 Z" id="Path" fill="#281FB5"></path>
            <path d="M255.084637,536.595567 C255.084637,536.595567 273.551083,509.180535 306.26935,534.598115 C306.26935,534.598115 294.803975,560.325299 257.88107,546.343134 L255.084637,536.595567 Z" id="Path" fill="#281FB5"></path>
            <path d="M251.169631,497.994803 C251.169631,497.994803 272.712153,472.826904 305.150777,497.994803 C305.150777,497.994803 284.736815,520.086624 251.169631,504.426599 L251.169631,497.994803 Z" id="Path" fill="#281FB5"></path>
            <path d="M247.813911,460.522599 C247.813911,460.522599 269.636076,434.236127 300.676484,459.124382 C300.676484,459.124382 276.067873,482.334777 247.813911,466.674752 L247.813911,460.522599 Z" id="Path" fill="#281FB5"></path>
            <path d="M249.771414,427.245045 C249.771414,427.245045 272.742115,393.398217 301.795057,416.338955 C301.795057,416.338955 277.186446,445.42186 249.771414,433.676841 L249.771414,427.245045 Z" id="Path" fill="#281FB5"></path>
            <path d="M255.084637,388.364637 C255.084637,388.364637 279.423592,354.807439 307.667567,380.534624 C307.667567,380.534624 278.864306,409.627516 255.084637,394.51679 L255.084637,388.364637 Z" id="Path" fill="#281FB5"></path>
            <path d="M263.20428,353.618955 C263.20428,353.618955 292.007541,322.089172 317.13549,334.643159 C317.13549,334.643159 287.113783,368.130446 261.945885,361.978293 L263.20428,353.618955 Z" id="Path" fill="#281FB5"></path>
            <path d="M273.271439,320.690955 C273.271439,320.690955 306.548994,282.100178 325.844382,294.963771 C325.844382,294.963771 301.355618,324.925554 270.914446,327.921732 L273.271439,320.690955 Z" id="Path" fill="#281FB5"></path>
            <path d="M287.802904,282.489682 C287.802904,282.489682 316.895796,250.949911 338.148688,258.779924 C338.148688,258.779924 313.260433,291.498191 283.897885,292.337121 L287.802904,282.489682 Z" id="Path" fill="#281FB5"></path>
            <path d="M300.956127,246.755261 C300.956127,246.755261 333.115108,216.543796 347.097274,221.857019 C347.097274,221.857019 323.886879,255.424204 299.557911,253.466701 L300.956127,246.755261 Z" id="Path" fill="#281FB5"></path>
            <path d="M313.81972,213.707414 C313.81972,213.707414 341.504408,177.633427 356.605146,180.42986 C356.605146,180.42986 339.826548,212.588841 313.81972,217.382726 L313.81972,213.707414 Z" id="Path" fill="#281FB5"></path>
            <path d="M327.781911,169.264102 C327.781911,169.264102 352.250701,141.599389 365.463847,141.669167 C365.463847,141.669167 346.148484,178.622166 326.773197,178.282599 L327.781911,169.264102 Z" id="Path" fill="#281FB5"></path>
            <path d="M336.051363,139.641885 L359.681223,82.0253758 C359.681223,82.0253758 360.869707,134.108943 333.045197,150.328255 L336.051363,139.641885 Z" id="Path" fill="#281FB5"></path>
            <path d="M345.649121,76.1029299 C345.649121,76.1029299 349.564127,28.0042803 347.047338,24.0892739 C347.047338,24.0892739 363.945783,64.0383185 345.479338,97.3558217 L345.649121,76.1029299 Z" id="Path" fill="#281FB5"></path>
            <path d="M265.081885,576.494675 C265.081885,576.494675 240.573146,561.304051 224.703389,598.46665 C224.703389,598.46665 246.515567,612.938191 267.958217,585.972586 L265.081885,576.494675 Z" id="Path" fill="#281FB5"></path>
            <path d="M254.355567,535.047541 C254.355567,535.047541 224.293911,521.335032 209.702522,560.135541 C209.702522,560.135541 232.932892,576.115159 257.092076,544.855032 L254.355567,535.047541 Z" id="Path" fill="#281FB5"></path>
            <path d="M249.771414,500.341809 C249.771414,500.341809 228.238879,475.173911 195.840204,500.341809 C195.840204,500.341809 216.254166,522.433631 249.771414,506.773605 L249.771414,500.341809 Z" id="Path" fill="#281FB5"></path>
            <path d="M247.084841,460.522599 C247.084841,460.522599 225.272662,434.236127 194.222268,459.124382 C194.222268,459.124382 218.840866,482.334777 247.084841,466.674752 L247.084841,460.522599 Z" id="Path" fill="#281FB5"></path>
            <path d="M249.771414,428.203822 C249.771414,428.203822 234.47093,390.252229 201.21335,406.601376 C201.21335,406.601376 219.19042,440.20851 248.423134,434.485809 L249.771414,428.203822 Z" id="Path" fill="#281FB5"></path>
            <path d="M257.012178,388.174879 C257.012178,388.174879 241.811567,349.614064 208.074599,367.501248 C208.074599,367.501248 228.728255,402.846166 255.514089,394.137274 L257.012178,388.174879 Z" id="Path" fill="#281FB5"></path>
            <path d="M266.440153,353.818701 C266.440153,353.818701 260.447796,311.542624 232.483465,307.757452 C232.483465,307.757452 238.405911,352.340586 262.664968,361.438981 L266.440153,353.818701 Z" id="Path" fill="#281FB5"></path>
            <path d="M273.980535,320.760866 C273.980535,320.760866 271.643516,269.825834 248.523006,268.058089 C248.523006,268.058089 249.302013,306.718777 271.37386,327.981656 L273.980535,320.760866 Z" id="Path" fill="#281FB5"></path>
            <path d="M290.199847,281.031541 C290.199847,281.031541 283.29865,238.675567 261.23679,233.492178 C261.23679,233.492178 263.973299,274.519847 288.022624,291.418293 L290.199847,281.031541 Z" id="Path" fill="#281FB5"></path>
            <path d="M303.57279,247.054879 C303.57279,247.054879 303.333096,202.941146 289.86028,196.449427 C289.86028,196.449427 281.490955,236.398471 299.667771,252.687694 L303.57279,247.054879 Z" id="Path" fill="#281FB5"></path>
            <path d="M314.848408,213.257987 C314.848408,213.257987 312.960815,167.825936 298.998624,161.424102 C298.998624,161.424102 294.214726,197.378242 312.751083,216.234191 L314.848408,213.257987 Z" id="Path" fill="#281FB5"></path>
            <path d="M329.729427,172.87949 C329.729427,172.87949 329.639541,135.926624 319.682242,127.267669 C319.682242,127.267669 309.764892,167.746038 324.526064,180.32 L329.729427,172.87949 Z" id="Path" fill="#281FB5"></path>
            <path d="M334.872866,137.804229 L325.185223,76.2926879 C325.185223,76.2926879 312.012025,126.688408 335.342268,148.890089 L334.872866,137.804229 Z" id="Path" fill="#281FB5"></path>
            <path d="M336.770446,76.6921783 C336.770446,76.6921783 311.882191,35.3449172 312.391541,30.7507771 C312.391541,30.7507771 315.038166,74.0855032 346.348229,95.6679745 L336.770446,76.6921783 Z" id="Path" fill="#281FB5"></path>
            <path d="M339.686726,64.477758 C339.686726,64.477758 316.196688,5.75266242 305.570242,0.978751592 C305.570242,0.978751592 339.127439,18.0369936 341.644229,62.7799236 L339.686726,64.477758 Z" id="Path" fill="#281FB5"></path>
            <path d="M326.643363,178.632153 L325.045401,178.13279 C344.870115,113.495236 349.813809,72.2678217 338.967643,61.9409936 L340.126166,60.7225478 C351.621503,71.6286369 346.957452,112.396637 326.643363,178.632153 Z" id="Path" fill="#444053"></path>
            <path d="M272.062981,329.949146 L269.686013,329.110217 C271.783338,323.187771 274.060433,317.175439 276.437401,311.252994 C297.131006,259.648815 314.738548,211.709962 326.03414,174.866955 L328.101503,173.868229 C316.785936,210.711236 299.488,260.547669 278.77442,312.191796 C276.407439,318.08428 274.150318,324.056662 272.062981,329.949146 Z" id="Path" fill="#444053"></path>
            <path d="M322.079185,685.825223 C321.759592,685.465682 289.620586,649.291822 267.229146,587.510624 C254.097972,551.34987 246.783048,513.335862 245.55679,474.88428 C244.028739,426.815592 254.105885,373.134064 271.393834,324.386242 L273.271439,326.583439 C234.480917,436.003873 249.891261,529.774268 270.335185,586.232255 C292.496917,647.444178 324.266395,683.228535 324.576,683.588076 L322.079185,685.825223 Z" id="Path" fill="#444053"></path>
            <path d="M182.047796,677.935287 C182.047796,677.935287 144.046268,675.648204 148.530548,702.274242 C148.530548,702.274242 147.641682,706.978242 151.906242,709.115516 C151.906242,709.115516 151.966166,707.118064 155.801274,707.807185 C157.163472,708.03644 158.548036,708.103489 159.926013,708.00693 C161.79141,707.881585 163.565304,707.152395 164.979567,705.92958 C164.979567,705.92958 175.655949,701.51521 179.81065,684.057478 C179.81065,684.057478 182.886726,680.252331 182.756892,679.27358 L176.34507,682.010089 C176.34507,682.010089 178.542268,686.634191 176.814471,690.479287 C176.814471,690.479287 176.604739,682.179873 175.376306,682.369631 C175.126624,682.369631 172.040561,683.97758 172.040561,683.97758 C172.040561,683.97758 175.815745,692.037299 172.969376,697.889834 C172.969376,697.889834 174.048,687.962497 170.872051,684.556841 L166.357809,687.193478 C166.357809,687.193478 170.762191,695.512866 167.776,702.304204 C167.776,702.304204 168.535032,691.88749 165.409019,687.832662 L161.314242,691.028586 C161.314242,691.028586 165.448968,699.228127 162.932178,704.860943 C162.932178,704.860943 162.602599,692.736408 160.425376,691.81758 C160.425376,691.81758 156.849936,694.973554 156.300637,696.271898 C156.300637,696.271898 159.137019,702.264255 157.379261,705.370293 C157.379261,705.370293 156.300637,697.290599 155.381809,697.25065 C155.381809,697.25065 151.816357,702.603822 151.446828,706.239185 C151.619506,702.850019 152.676591,699.565137 154.512917,696.711338 C152.458013,697.100119 150.562158,698.082768 149.059873,699.537732 C149.059873,699.537732 149.609172,695.752561 155.391796,695.422981 C155.391796,695.422981 158.387975,691.358166 159.127032,691.108484 C159.127032,691.108484 153.374369,690.629096 149.888815,692.177121 C149.888815,692.177121 152.954904,688.611669 160.185682,690.179669 L164.180586,686.883873 C164.180586,686.883873 156.610242,685.885146 153.394344,686.993732 C153.394344,686.993732 157.089631,683.837758 165.269197,686.134828 L169.663592,683.508178 C169.663592,683.508178 163.211822,682.119949 159.356739,682.619312 C159.356739,682.619312 163.421554,680.432102 170.951949,682.799083 L174.097936,681.390879 C174.097936,681.390879 169.363975,680.462064 167.985732,680.312255 C166.60749,680.162446 166.517605,679.78293 166.517605,679.78293 C169.515754,679.284178 172.593557,679.629998 175.406268,680.781656 C175.406268,680.781656 182.157656,678.354752 182.047796,677.935287 Z" id="Path" fill="#281FB5"></path>
            <path d="M71.5886879,690.289529 C71.5886879,690.289529 33.6370955,688.002446 38.0814268,714.628484 C38.0814268,714.628484 37.1825732,719.332484 41.4471338,721.469758 C41.4471338,721.469758 41.5170446,719.472306 45.3521529,720.161427 C46.7138169,720.395591 48.098973,720.462668 49.4768917,720.361172 C51.3398102,720.238015 53.1112,719.508413 54.5204586,718.283822 C54.5204586,718.283822 65.206828,713.869452 69.3615287,696.41172 C69.3615287,696.41172 72.4276178,692.606573 72.357707,691.627822 L65.9458854,694.364331 C65.9458854,694.364331 68.1430828,698.988433 66.4152866,702.833529 C66.4152866,702.833529 66.2055541,694.534115 64.977121,694.723873 C64.7274395,694.723873 61.6413758,696.331822 61.6413758,696.331822 C61.6413758,696.331822 65.4165605,704.391541 62.5701911,710.244076 C62.5701911,710.244076 63.6488153,700.316739 60.462879,696.911083 L55.9486369,699.54772 C55.9486369,699.54772 60.3530191,707.867108 57.366828,714.658446 C57.366828,714.658446 58.1358471,704.241732 54.9998471,700.186904 L50.9150573,703.382828 C50.9150573,703.382828 55.0497834,711.582369 52.5329936,717.215185 C52.5329936,717.215185 52.203414,705.09065 50.0261911,704.171822 C50.0261911,704.171822 46.4507516,707.327796 45.9014522,708.62614 C45.9014522,708.62614 48.7378344,714.618497 46.9800764,717.724535 C46.9800764,717.724535 45.9014522,709.644841 44.9826242,709.604892 C44.9826242,709.604892 41.4271592,714.958064 41.0476433,718.593427 C41.2260774,715.203847 42.2864041,711.919588 44.1237197,709.06558 C42.0662215,709.455309 40.1674187,710.437688 38.6606879,711.891975 C38.6606879,711.891975 39.2199745,708.106803 45.0025987,707.777223 C45.0025987,707.777223 47.9987771,703.712408 48.7378344,703.472713 C48.7378344,703.472713 42.985172,702.983338 39.4996178,704.531363 C39.4996178,704.531363 42.565707,700.965911 49.7964841,702.533911 L53.7913885,699.238115 C53.7913885,699.238115 46.2210446,698.239389 43.0051465,699.347975 C43.0051465,699.347975 46.7004331,696.192 54.88,698.48907 L59.2743949,695.86242 C59.2743949,695.86242 52.8126369,694.474191 48.9675414,694.973554 C48.9675414,694.973554 53.0323567,692.786344 60.5627516,695.153325 L63.7087389,693.745121 C63.7087389,693.745121 58.9747771,692.816306 57.5865478,692.666497 C56.1983185,692.516688 56.1284076,692.137172 56.1284076,692.137172 C59.1267214,691.644749 62.2027951,691.990375 65.0170701,693.135898 C65.0170701,693.135898 71.668586,690.708994 71.5886879,690.289529 Z" id="Path" fill="#281FB5"></path>
            <path d="M133.150166,719.292535 C133.150166,719.292535 95.1985732,717.005452 99.6329172,743.63149 C99.6329172,743.63149 98.744051,748.33549 103.008611,750.472764 C103.008611,750.472764 103.078522,748.475312 106.903643,749.164433 C108.269177,749.393917 109.657074,749.460965 111.038369,749.364178 C112.900283,749.236707 114.670353,748.507649 116.081936,747.286828 C116.081936,747.286828 126.758318,742.872459 130.913019,725.414726 C130.913019,725.414726 133.989096,721.60958 133.909197,720.630828 L127.497376,723.367338 C127.497376,723.367338 129.684586,727.991439 127.966777,731.836535 C127.966777,731.836535 127.757045,723.537121 126.518624,723.726879 C126.268943,723.726879 123.192866,725.334828 123.192866,725.334828 C123.192866,725.334828 126.958064,733.384561 124.111694,739.247083 C124.111694,739.247083 125.190318,729.319745 122.014369,725.914089 L117.500127,728.550726 C117.500127,728.550726 121.90451,736.870115 118.918318,743.661452 C118.918318,743.661452 119.687338,733.244739 116.551338,729.189911 L112.456561,732.385834 C112.456561,732.385834 116.601274,740.585376 114.074497,746.218191 C114.074497,746.218191 113.744917,734.093656 111.577682,733.174828 C111.577682,733.174828 107.992255,736.330803 107.452943,737.629146 C107.452943,737.629146 110.289325,743.621503 108.52158,746.727541 C108.52158,746.727541 107.442955,738.647847 106.524127,738.607898 C106.524127,738.607898 102.958675,743.96107 102.589146,747.596433 C102.761825,744.207267 103.81891,740.922385 105.655236,738.068586 C103.600331,738.457367 101.704477,739.440017 100.202191,740.894981 C100.202191,740.894981 100.75149,737.109809 106.544102,736.780229 C106.544102,736.780229 109.480357,732.715414 110.26935,732.465732 C110.26935,732.465732 104.516688,731.986344 101.031134,733.534369 C101.031134,733.534369 104.10721,729.968917 111.328,731.586854 L115.322904,728.291057 C115.322904,728.291057 107.752561,727.292331 104.536662,728.400917 C104.536662,728.400917 108.241936,725.244943 116.411516,727.542013 L120.815898,724.915363 C120.815898,724.915363 114.394089,723.557096 110.539006,724.056459 C110.539006,724.056459 114.593834,721.869248 122.134217,724.236229 L125.270217,722.828025 C125.270217,722.828025 120.546242,721.89921 119.158013,721.749401 C117.769783,721.599592 117.699873,721.220076 117.699873,721.220076 C120.698022,720.721324 123.775825,721.067145 126.588535,722.218803 C126.588535,722.218803 133.260025,719.712 133.150166,719.292535 Z" id="Path" fill="#281FB5"></path>
            <ellipse id="Oval" fill="#281FB5" opacity="0.1" cx="103.527949" cy="753.269197" rx="26.8956943" ry="4.54420382"></ellipse>
            <ellipse id="Oval" fill="#281FB5" opacity="0.1" cx="956.619822" cy="753.269197" rx="26.8956943" ry="4.54420382"></ellipse>
            <ellipse id="Oval" fill="#281FB5" opacity="0.1" cx="699.058344" cy="779.425834" rx="26.8956943" ry="4.54420382"></ellipse>
            <ellipse id="Oval" fill="#281FB5" opacity="0.1" cx="999.155567" cy="713.879439" rx="26.8956943" ry="4.54420382"></ellipse>
            <ellipse id="Oval" fill="#281FB5" opacity="0.1" cx="155.871185" cy="711.043057" rx="26.8956943" ry="4.54420382"></ellipse>
            <ellipse id="Oval" fill="#281FB5" opacity="0.1" cx="45.3821146" cy="723.79679" rx="26.8956943" ry="4.54420382"></ellipse>
            <rect id="Rectangle" fill="#3A3768" x="302.354344" y="80.6371465" width="430.80051" height="640.562955" rx="9.8"></rect>
            <rect id="Rectangle" fill="#000000" opacity="0.1" x="341.784051" y="135.696917" width="357.274293" height="125.929376" rx="29.21"></rect>
            <rect id="Rectangle" fill="#E6E8EC" x="344.081121" y="138.153783" width="351.861197" height="121.79465" rx="10.2"></rect>
            <rect id="Rectangle" fill="#000000" opacity="0.1" x="354.228178" y="314.079389" width="71.0493758" height="78.9393121" rx="10.79"></rect>
            <rect id="Rectangle" fill="#000000" opacity="0.1" x="441.067414" y="314.079389" width="71.0493758" height="78.9393121" rx="10.79"></rect>
            <rect id="Rectangle" fill="#000000" opacity="0.1" x="527.90665" y="314.079389" width="71.0493758" height="78.9393121" rx="10.79"></rect>
            <rect id="Rectangle" fill="#000000" opacity="0.1" x="614.745885" y="315.757248" width="71.0493758" height="78.9393121" rx="28.84"></rect>
            <rect id="Rectangle" fill="#281FB5" x="614.745885" y="314.079389" width="71.0493758" height="78.9393121" rx="10.79"></rect>
            <rect id="Rectangle" fill="#000000" opacity="0.1" x="354.228178" y="400.918624" width="71.0493758" height="78.9393121" rx="10.79"></rect>
            <rect id="Rectangle" fill="#000000" opacity="0.1" x="441.067414" y="400.918624" width="71.0493758" height="78.9393121" rx="10.79"></rect>
            <rect id="Rectangle" fill="#000000" opacity="0.1" x="527.90665" y="400.918624" width="71.0493758" height="78.9393121" rx="10.79"></rect>
            <rect id="Rectangle" fill="#000000" opacity="0.1" x="354.228178" y="496.776357" width="71.0493758" height="78.9393121" rx="10.79"></rect>
            <rect id="Rectangle" fill="#000000" opacity="0.1" x="441.067414" y="496.776357" width="71.0493758" height="78.9393121" rx="10.79"></rect>
            <rect id="Rectangle" fill="#000000" opacity="0.1" x="527.90665" y="496.776357" width="71.0493758" height="78.9393121" rx="10.79"></rect>
            <rect id="Rectangle" fill="#000000" opacity="0.1" x="527.90665" y="592.634089" width="71.0493758" height="78.9393121" rx="10.79"></rect>
            <rect id="Rectangle" fill="#000000" opacity="0.1" x="614.745885" y="402.596484" width="71.0493758" height="78.9393121" rx="28.84"></rect>
            <rect id="Rectangle" fill="#281FB5" x="614.745885" y="400.918624" width="71.0493758" height="78.9393121" rx="11.3"></rect>
            <rect id="Rectangle" fill="#000000" opacity="0.2" x="614.745885" y="400.918624" width="71.0493758" height="78.9393121" rx="11.3"></rect>
            <rect id="Rectangle" fill="#000000" opacity="0.1" x="354.228178" y="592.634089" width="157.888611" height="78.9393121" rx="10.04"></rect>
            <rect id="Rectangle" fill="#000000" opacity="0.1" x="607.974522" y="496.776357" width="77.8107516" height="174.807032" rx="11.66"></rect>
            <rect id="Rectangle" fill="#281FB5" x="649.04214" y="238.675567" width="31.1003312" height="3.36570701"></rect>
            <rect id="Rectangle" fill="#281FB5" x="603.510217" y="238.675567" width="31.1003312" height="3.36570701"></rect>
            <rect id="Rectangle" fill="#281FB5" x="557.968306" y="238.675567" width="31.1003312" height="3.36570701"></rect>
            <rect id="Rectangle" fill="#281FB5" x="512.436382" y="238.675567" width="31.1003312" height="3.36570701"></rect>
            <path d="M878.749146,474.934217 C881.955057,464.147975 878.749146,453.361732 878.749146,453.361732 L878.749146,443.184713 C878.749146,443.184713 882.414471,423.290089 866.055338,410.526369 L855.209172,400.958573 C855.209172,400.958573 849.12693,395.735236 847.359185,395.405656 C847.029768,395.334709 846.696193,395.284673 846.360459,395.255847 L846.040866,395.066089 C845.108733,393.47177 844.313558,391.801235 843.663898,390.072459 C845.087019,390.256538 846.514955,389.76949 847.528968,388.75414 C847.920879,388.303254 848.228704,387.785703 848.437809,387.226089 C849.067006,385.817885 849.176866,384.110064 849.706191,382.611975 C850.170506,381.397204 850.846819,380.274523 851.703643,379.296204 C851.593783,379.475975 851.473936,379.645758 851.374064,379.835516 C852.912102,377.917962 854.919541,376.280051 856.367694,374.262624 C856.655078,373.862409 856.918536,373.445546 857.156688,373.014217 C857.096764,373.104102 857.016866,373.184 856.946955,373.273885 C858.944408,370.067975 859.553631,366.18293 860.132892,362.437707 C860.412033,361.163052 860.43241,359.845326 860.192815,358.56265 C859.912123,357.711294 859.55095,356.888621 859.114191,356.105783 C856.757197,351.241987 856.797146,345.119796 853.031949,341.234752 C850.195567,338.328459 845.901045,337.439592 841.856204,336.940229 C837.811363,336.440866 833.55679,336.151236 830.081223,334.033936 C829.110643,333.29835 828.037185,332.709462 826.895287,332.286166 C825.710287,331.872678 824.398595,332.3588 823.769274,333.444688 C823.697358,333.756425 823.553733,334.047095 823.349809,334.293605 C822.982855,334.50177 822.540006,334.527603 822.151338,334.363516 L816.768204,332.92535 L816.828127,333.195006 L816.688306,333.195006 L816.888051,334.043924 C817.105358,334.005619 817.319204,334.127218 817.397401,334.333554 L816.52851,335.671847 C814.86279,335.641451 813.217104,335.302832 811.674701,334.673121 C811.66471,334.759389 811.66471,334.846522 811.674701,334.93279 L811.594803,334.93279 C811.49493,336.450854 813.222726,337.439592 813.752051,338.867771 C813.964368,339.492745 813.964368,340.170338 813.752051,340.795312 C813.535774,341.374935 813.194834,341.899983 812.753325,342.33335 C810.845758,344.220943 808.398879,343.851414 806.201682,345.039898 C805.817414,345.204016 805.525078,345.52924 805.402701,345.928764 C805.315768,346.076286 805.290641,346.252179 805.33279,346.41814 C805.419641,346.64743 805.576999,346.843253 805.782217,346.977427 C806.421877,347.49451 807.122966,347.930594 807.869554,348.275771 C807.649834,348.475516 807.440102,348.675261 807.240357,348.884994 C801.576243,354.641332 799.176392,362.854571 800.850103,370.754971 C802.523815,378.655371 808.048,385.189891 815.559745,388.154904 C815.639643,388.574369 815.699567,389.003822 815.75949,389.453248 C815.75949,389.503185 815.75949,389.533146 815.75949,389.583083 L815.819414,390.162344 L808.568662,393.248408 C806.336215,393.231236 804.313803,391.928336 803.375287,389.902675 C801.687439,386.417121 795.725045,389.902675 795.725045,389.902675 C795.725045,389.902675 777.538242,388.544408 770.756892,391.900127 C770.756892,391.900127 759.900739,387.345936 758.372688,387.036331 C756.844637,386.726726 754.557554,385.518268 753.488917,385.827873 C752.42028,386.137478 751.042038,383.83042 750.273019,384.000204 C749.504,384.169987 749.204382,382.48214 746.757503,381.872917 C744.310624,381.263694 743.391796,382.032713 740.645299,379.296204 C737.898803,376.559694 715.567287,365.773452 715.567287,365.773452 L705.540076,357.523975 L694.84372,349.014828 L694.653962,349.364382 C694.584051,349.114701 694.51414,348.855032 694.444229,348.575389 C693.380006,344.336411 692.045645,340.16987 690.449325,336.101299 C689.760204,334.453401 689.450599,332.376051 688.521783,333.47465 C687.95251,334.133809 686.983745,332.685656 685.525605,331.706904 C684.89959,331.27438 684.111994,331.146992 683.381549,331.360119 C682.651105,331.573247 682.055596,332.104193 681.760408,332.805503 C673.431032,345.868841 670.444841,346.787669 675.268688,351.591541 C679.573197,355.856102 682.429554,359.58135 685.935083,360.759847 L686.354548,360.889682 C686.279271,360.90958 686.200117,360.90958 686.124841,360.889682 L706.458904,385.198675 C706.458904,385.198675 721.130191,397.962395 731.227312,402.057172 C741.324433,406.151949 740.545427,407.380382 740.545427,407.380382 C740.545427,407.380382 771.12642,422.870624 775.860382,422.571006 C780.594344,422.271389 779.685503,454.32051 777.698038,459.523873 C775.710573,464.727236 772.504662,502.059618 772.504662,502.059618 C772.504662,502.059618 769.438573,509.959541 772.654471,515.422573 C772.654471,515.422573 773.363567,525.889223 772.724382,528.406013 C769.937936,532.700535 765.963006,539.991236 765.313834,547.491669 C765.313834,547.891159 765.233936,548.260688 765.193987,548.650191 C764.990214,548.886756 764.746905,549.086135 764.474904,549.239439 L765.154038,549.039694 C764.865014,552.165882 764.194203,555.244905 763.156586,558.208 C761.539772,562.369317 760.683912,566.787315 760.629809,571.251363 L760.629809,595.380586 L758.632357,610.361478 C758.632357,610.361478 756.185478,621.697019 758.632357,624.343643 C759.663937,625.663348 760.143655,627.331619 759.97065,628.997707 C759.868442,630.93193 760.416947,632.844664 761.528662,634.430777 C762.39002,635.371571 762.759808,636.662134 762.527389,637.916331 C761.71842,640.542981 763.72586,668.497325 763.72586,668.497325 C763.72586,668.497325 763.136611,676.197503 762.327643,676.606981 C761.518675,677.016459 763.72586,685.515618 763.72586,685.515618 C763.72586,685.515618 755.466395,692.406828 757.573707,696.052178 L759.681019,699.288051 L759.121732,699.83735 L758.782166,700.186904 C758.145011,699.819551 757.40225,699.678743 756.674854,699.787414 C754.079026,702.442933 751.302598,704.91569 748.365452,707.187975 C744.640204,709.874548 734.503134,713.76958 734.503134,713.76958 L726.513325,714.418752 L726.363516,714.418752 C726.363516,714.418752 722.538395,714.05921 724.685656,719.981656 C726.832917,725.904102 746.028433,724.08642 746.028433,724.08642 L757.23414,722.318675 C757.23414,722.318675 777.208662,722.418548 782.931363,721.150166 C785.318318,720.620841 785.927541,719.342471 785.727796,718.054115 L785.667873,717.994191 C785.393144,716.765471 784.831921,715.619071 784.029962,714.648459 C783.988796,714.584495 783.942003,714.524332 783.89014,714.468688 L784.249682,710.373911 C792.728866,705.49014 781.852739,695.882395 781.852739,695.882395 C781.852739,695.882395 785.577987,687.782726 787.485554,685.156076 C789.393121,682.529427 789.393121,643.82879 789.393121,643.82879 C789.393121,643.82879 790.391847,629.846624 787.765197,626.610752 C787.67302,624.463629 788.771063,622.440312 790.621554,621.347465 C792.509146,620.059108 798.211873,602.311745 802.686166,587.580535 L805.502573,604.938395 C805.502573,604.938395 804.89335,613.247796 806.721019,615.674701 C807.415502,616.599676 807.690788,617.773262 807.480051,618.910573 C807.046602,621.239597 807.187148,623.639159 807.889529,625.901656 C808.104292,626.872245 808.626115,627.747787 809.377631,628.398471 C811.005554,629.207439 811.105427,632.093758 811.71465,632.702981 C812.323873,633.312204 816.099057,631.844076 816.298803,634.071236 C816.412883,636.027077 816.412883,637.987904 816.298803,639.943745 L817.527236,675.997758 C817.527236,675.997758 815.529783,678.993936 815.080357,686.983745 C814.910573,690.389401 814.271389,692.32693 813.612229,693.435516 C812.862049,694.655707 812.983015,696.220203 813.911847,697.310573 L814.261401,697.720051 L812.753325,698.878573 C811.503773,699.849286 811.111149,701.56597 811.814522,702.983338 C810.819411,703.849061 810.451576,705.233385 810.885707,706.478879 C810.947441,706.679007 811.034717,706.870342 811.145376,707.048153 C809.99973,707.227685 808.936625,707.75401 808.099261,708.556229 C806.592969,710.625868 804.777374,712.451568 802.716127,713.969325 C799.724847,716.261637 796.860903,718.715494 794.13707,721.319949 C792.853027,723.067769 791.130493,724.445797 789.143439,725.314854 C788.656237,725.512433 788.151242,725.662928 787.635363,725.76428 C783.640459,726.583236 784.888866,730.757911 788.144713,731.447032 C791.400561,732.136153 802.206777,735.441936 810.616051,733.514395 C810.616051,733.514395 813.112866,734.513121 816.778191,732.65549 C820.443516,730.79786 828.623083,728.520764 828.623083,728.520764 C828.623083,728.520764 833.207236,728.520764 833.826446,726.703083 C833.987603,726.123822 834.074852,725.526505 834.086115,724.92535 L834.215949,724.795516 L834.096102,724.685656 C834.107271,723.324426 834.003703,721.964676 833.786497,720.620841 C833.66665,719.921732 833.536815,719.302522 833.416968,718.803159 C833.027465,717.285096 832.298395,715.317605 831.98879,714.488662 C832.041094,714.422722 832.08786,714.352572 832.128611,714.27893 C833.876382,711.282752 830.970089,704.171822 830.970089,704.171822 C831.924437,702.657611 833.083999,701.282942 834.415694,700.087032 C836.043618,698.868586 840.328153,667.268892 840.328153,667.268892 C840.328153,667.268892 840.11842,659.169223 842.325605,655.523873 C844.53279,651.878522 839.269503,629.806675 839.269503,629.806675 C839.269503,629.806675 837.022369,624.743134 837.841325,622.915465 C838.66028,621.087796 837.022369,614.406318 837.022369,614.406318 L837.022369,606.41651 C837.017592,605.465163 836.859081,604.520842 836.552968,603.620076 C835.923771,601.742471 834.994955,598.13707 836.003669,595.550369 C837.431847,591.905019 840.687694,569.423694 840.687694,569.423694 C840.687694,569.423694 838.140943,559.506344 841.876178,551.60642 C842.167788,550.975522 842.501448,550.364925 842.874904,549.778752 C845.641376,545.434293 844.812433,537.71414 843.444178,531.492076 C843.244433,530.49335 843.014726,529.594497 842.785019,528.725605 C842.695134,528.346089 842.595261,527.986548 842.495389,527.627006 L842.934828,527.447236 C842.934828,527.447236 842.934828,526.857987 843.07465,525.849274 C846.122851,525.245204 848.784285,523.40462 850.425274,520.765758 C850.425274,520.765758 859.753376,510.279134 868.002854,505.874752 C876.252331,501.470369 876.871541,495.08851 876.871541,495.08851 C875.653096,492.961223 879.058752,484.302268 879.058752,484.302268 L878.749146,474.934217 Z M851.843465,488.916382 L843.014726,499.153325 L843.014726,499.093401 C840.717656,495.897478 845.152,488.756586 845.152,488.756586 L852.492637,472.377478 C852.432713,474.474803 852.173045,476.372382 851.493911,477.201325 C849.496459,479.937834 855.169223,484.502013 855.169223,484.502013 C852.143083,484.512 851.843465,488.916382 851.843465,488.916382 Z" id="Shape" fill="url(#linearGradient-1)" fill-rule="nonzero"></path>
            <path d="M696.401732,354.69758 L691.577885,364.055643 C690.050695,363.924967 688.544963,363.609735 687.093605,363.116841 C682.440433,361.727287 678.604998,358.411726 676.557045,354.008459 C672.252535,344.500586 679.373452,338.35842 682.689223,336.540739 C686.004994,334.723057 689.091057,332.655694 691.577885,338.618089 C693.138813,342.663287 694.443075,346.8029 695.482904,351.01228 C696.062166,353.19949 696.401732,354.69758 696.401732,354.69758 Z" id="Path" fill="#CC818C"></path>
            <path d="M849.596331,403.37549 L841.896153,414.840866 C841.896153,414.840866 805.512561,432.198726 812.463694,411.844688 C815.519796,402.856153 815.879338,396.294522 815.330038,391.750318 C815.330038,391.700382 815.330038,391.67042 815.330038,391.620484 C814.610955,385.937732 812.473682,383.470879 812.473682,383.470879 C812.473682,383.470879 847.938446,365.314038 842.655185,377.728204 C841.57728,380.308346 841.148623,383.113476 841.406777,385.897783 C841.842382,389.90804 843.14412,393.775768 845.221911,397.233325 C846.470899,399.4219 847.936383,401.479599 849.596331,403.37549 Z" id="Path" fill="#CC818C"></path>
            <path d="M838.520459,630.495796 C838.520459,630.495796 843.753783,652.467771 841.516637,656.053197 C839.27949,659.638624 839.519185,667.728306 839.519185,667.728306 C839.519185,667.728306 835.294573,699.128255 833.686624,700.326726 C832.366669,701.494689 831.213951,702.838967 830.260994,704.321631 C830.260994,704.321631 833.137325,711.432561 831.409529,714.368815 C831.143133,714.815811 830.74065,715.165796 830.260994,715.367541 C827.564433,716.506089 817.597146,711.452535 811.924382,708.376459 C810.997125,707.869328 810.375958,706.941331 810.260556,705.890775 C810.145154,704.840219 810.550062,703.799509 811.345121,703.103185 C810.641672,701.699454 811.02615,699.99438 812.263949,699.028382 L813.762038,697.86986 L813.412484,697.460382 C812.493126,696.373846 812.372426,694.820835 813.112866,693.605299 C813.762038,692.516688 814.391236,690.609121 814.561019,687.203465 C814.970497,679.353478 816.977936,676.337325 816.977936,676.337325 L815.769478,640.503032 C815.883618,638.56052 815.883618,636.612983 815.769478,634.670471 C815.569732,632.463287 811.844484,633.921427 811.245248,633.312204 C810.646013,632.702981 810.536153,629.846624 808.928204,629.037656 C808.187377,628.387086 807.676037,627.515006 807.470064,626.550828 C806.759201,624.28988 806.618533,621.888221 807.060586,619.559745 C807.269585,618.430244 806.998119,617.264751 806.311541,616.343847 C804.503847,613.92693 805.103083,605.687439 805.103083,605.687439 L802.326624,588.429452 C797.902268,603.070777 792.279439,620.70828 790.411822,621.98665 C788.586378,623.079724 787.505572,625.084197 787.595414,627.209987 C790.212076,630.435873 789.203363,644.328153 789.203363,644.328153 C789.203363,644.328153 789.203363,682.759134 787.315771,685.385783 C785.428178,688.012433 781.772841,696.092127 781.772841,696.092127 C781.772841,696.092127 792.559083,705.689885 784.069911,710.533707 L783.980025,710.533707 C775.32107,715.367541 757.413911,701.884739 757.413911,701.884739 L759.281529,700.017121 L759.830828,699.467822 L757.713529,696.311847 C755.636178,692.686471 763.785783,685.845197 763.785783,685.845197 C763.785783,685.845197 761.608561,677.385987 762.407541,676.986497 C763.206522,676.587006 763.785783,668.936764 763.785783,668.936764 C763.785783,668.936764 761.788331,641.162191 762.607287,638.545529 C762.828438,637.298036 762.459676,636.018431 761.608561,635.079949 C760.509004,633.503965 759.967654,631.605726 760.070522,629.686828 C760.244741,628.031477 759.768404,626.373252 758.742217,625.062726 C756.325299,622.446064 758.742217,611.180433 758.742217,611.180433 L760.739669,596.279439 L760.739669,572.619618 C760.766599,568.052363 761.622749,563.527965 763.266446,559.26665 C764.48677,555.812189 765.226099,552.206281 765.463643,548.550318 C766.122803,540.920051 770.227567,533.509503 772.984051,529.284892 C774.442191,527.047745 775.530803,525.709452 775.530803,525.709452 L839.928662,523.192662 C839.928662,523.192662 840.927389,526.059006 842.006013,530.043924 C842.225732,530.912815 842.445452,531.831643 842.655185,532.79042 C844.003465,538.982522 844.812433,546.652739 842.085911,550.967236 C841.716121,551.552122 841.382585,552.159158 841.087185,552.784917 C837.401885,560.634904 839.918675,570.492331 839.918675,570.492331 C839.918675,570.492331 836.702777,592.823847 835.294573,596.45921 C834.295847,599.025936 835.214675,602.611363 835.843873,604.449019 C836.137872,605.348763 836.289509,606.288913 836.293299,607.235465 L836.293299,615.195312 C836.293299,615.195312 837.911236,621.836841 837.102268,623.654522 C836.293299,625.472204 838.520459,630.495796 838.520459,630.495796 Z" id="Path" fill="#444053"></path>
            <path d="M841.486675,551.60642 C841.113381,552.185773 840.77971,552.789717 840.487949,553.414115 L836.862573,553.214369 C837.212127,551.346752 834.745274,533.839083 834.745274,533.839083 L842.045962,533.429605 C843.394242,539.61172 844.213197,547.281936 841.486675,551.60642 Z" id="Path" fill="#000000" opacity="0.1"></path>
            <path d="M842.085911,550.997197 C841.716121,551.582084 841.382585,552.189119 841.087185,552.814879 L837.461809,552.605146 C837.811363,550.747516 835.34451,533.22986 835.34451,533.22986 L842.645197,532.820382 C844.003465,539.012484 844.812433,546.682701 842.085911,550.997197 Z" id="Path" fill="#444053"></path>
            <path d="M842.085911,550.997197 C841.716121,551.582084 841.382585,552.189119 841.087185,552.814879 L837.461809,552.605146 C837.811363,550.747516 835.34451,533.22986 835.34451,533.22986 L842.645197,532.820382 C844.003465,539.012484 844.812433,546.682701 842.085911,550.997197 Z" id="Path" fill="#000000" opacity="0.05"></path>
            <path d="M831.419516,714.408764 C831.153121,714.85576 830.750637,715.205745 830.270981,715.40749 C827.57442,716.546038 817.607134,711.492484 811.934369,708.416408 C811.226327,708.024693 810.688918,707.384071 810.426293,706.618701 C813.662166,706.029452 815.779465,709.614879 815.779465,709.614879 C816.869281,708.931475 818.188775,708.716802 819.439022,709.019493 C820.689269,709.322184 821.764452,710.116621 822.420994,711.222828 C825.187465,715.297631 831.119898,713.579822 831.119898,713.579822 L831.419516,714.408764 Z" id="Path" fill="#000000" opacity="0.1"></path>
            <path d="M833.087389,726.743032 C832.488153,728.560713 827.953936,728.560713 827.953936,728.560713 C827.953936,728.560713 819.854268,730.877758 816.228892,732.685452 C812.603516,734.493146 810.14665,733.544357 810.14665,733.544357 C801.847236,735.451924 791.170854,732.136153 787.954955,731.476994 C784.739057,730.817834 783.480662,726.653146 787.455592,725.844178 C787.965309,725.739498 788.463675,725.58564 788.943694,725.384764 C790.935243,724.523165 792.65957,723.143703 793.937325,721.38986 C796.628201,718.803197 799.458843,716.365978 802.41651,714.089172 C804.452526,712.577152 806.244455,710.761644 807.729732,708.706038 C812.463694,704.531363 815.829401,710.264051 815.829401,710.264051 C816.920442,709.581499 818.240846,709.368362 819.491231,709.672967 C820.741616,709.977572 821.816053,710.774114 822.47093,711.881987 C825.237401,715.95679 831.169834,714.228994 831.169834,714.228994 C831.169834,714.228994 832.238471,716.955516 832.737834,718.913019 C832.857682,719.412382 832.987516,720.031592 833.107363,720.730701 C833.377019,722.758115 833.546803,725.384764 833.087389,726.743032 Z" id="Path" fill="#FF748F"></path>
            <circle id="Oval" fill="#575988" cx="819.245045" cy="713.469962" r="1"></circle>
            <circle id="Oval" fill="#575988" cx="814.52107" cy="717.894318" r="1"></circle>
            <circle id="Oval" fill="#575988" cx="809.717197" cy="721.869248" r="1"></circle>
            <circle id="Oval" fill="#575988" cx="812.204025" cy="720.091516" r="1"></circle>
            <circle id="Oval" fill="#575988" cx="816.987924" cy="715.547312" r="1"></circle>
            <path d="M833.087389,726.743032 C832.488153,728.560713 827.953936,728.560713 827.953936,728.560713 C827.953936,728.560713 819.854268,730.877758 816.228892,732.685452 C812.603516,734.493146 810.14665,733.544357 810.14665,733.544357 C801.847236,735.451924 791.170854,732.136153 787.954955,731.476994 C784.739057,730.817834 783.480662,726.653146 787.455592,725.844178 C787.965309,725.739498 788.463675,725.58564 788.943694,725.384764 C792.454199,726.59343 796.120612,727.289712 799.829809,727.452127 C808.02935,727.801682 814.52107,727.452127 814.52107,727.452127 L822.820484,724.785529 C824.391701,723.832409 826.136634,723.200974 827.953936,722.927898 C829.791291,722.553423 831.529803,721.79814 833.057427,720.710726 C833.377019,722.758115 833.546803,725.384764 833.087389,726.743032 Z" id="Path" fill="#DCE6F2"></path>
            <path d="M812.433732,731.946395 C811.971119,731.949624 811.509362,731.906125 811.05549,731.816561 L811.175338,731.227312 C812.872436,731.487021 814.608438,731.243981 816.168968,730.528204 C816.908025,730.238573 817.647083,729.889019 818.366166,729.529478 C819.085248,729.169936 820.093962,728.72051 820.992815,728.39093 L821.811771,728.111287 C822.261197,727.95149 822.720611,727.801682 823.160051,727.611924 C823.409732,727.512051 823.659414,727.392204 823.899108,727.272357 C824.488442,726.964124 825.111918,726.726131 825.756739,726.563261 C826.087017,726.501717 826.420429,726.458374 826.755465,726.433427 C827.063441,726.412785 827.370132,726.376116 827.674293,726.323567 C828.278596,726.17086 828.864598,725.953202 829.422064,725.674395 C830.01799,725.367716 830.648288,725.13303 831.299669,724.975287 L831.739108,724.905376 C832.212938,724.893257 832.669443,724.724701 833.037452,724.425987 L833.486879,724.835465 C833.028643,725.237781 832.447976,725.473567 831.838981,725.504611 L831.419516,725.574522 C830.813827,725.722745 830.227333,725.940585 829.671745,726.223694 C829.072912,726.521259 828.44329,726.752343 827.79414,726.912815 C827.464716,726.977803 827.130861,727.017865 826.795414,727.032662 C826.480577,727.055949 826.167201,727.095954 825.856611,727.15251 C825.256678,727.307798 824.676848,727.532356 824.128815,727.821656 L823.369783,728.17121 C822.910369,728.360968 822.430981,728.520764 821.971567,728.680561 L821.172586,728.960204 C820.293707,729.279796 819.434803,729.689274 818.595873,730.078777 C817.756943,730.46828 817.117758,730.777885 816.358726,731.077503 C815.11561,731.608064 813.78463,731.902709 812.433732,731.946395 Z" id="Path" fill="#575988" opacity="0.5"></path>
            <path d="M814.371261,631.953936 C814.371261,631.953936 818.545936,625.96158 825.696815,625.96158 C832.847694,625.96158 835.903796,625.152611 835.903796,625.152611 C835.903796,625.152611 831.329631,627.869146 828.163669,628.218701 C824.997707,628.568255 814.371261,631.953936 814.371261,631.953936 Z" id="Path" fill="#000000" opacity="0.1"></path>
            <path d="M816.788178,633.36214 C816.788178,633.36214 820.563363,630.745478 822.720611,630.645605 C824.87786,630.545732 826.715516,630.345987 826.715516,630.345987 C825.703478,631.056042 824.583964,631.598939 823.399745,631.953936 C821.632,632.453299 816.788178,633.36214 816.788178,633.36214 Z" id="Path" fill="#000000" opacity="0.1"></path>
            <path d="M817.637096,635.169834 C817.637096,635.169834 823.319847,635.619261 823.369783,637.167287" id="Path" fill="#000000" opacity="0.1"></path>
            <path d="M764.634701,550.278115 C764.934318,550.328051 770.017834,544.994854 770.367389,542.887541 C770.644726,541.553553 771.438088,540.383254 772.574573,539.631694 C772.574573,539.631694 775.850395,540.940025 772.934115,544.954904 C770.017834,548.969783 764.634701,550.278115 764.634701,550.278115 Z" id="Path" fill="#000000" opacity="0.1"></path>
            <path d="M842.605248,377.708229 C841.446726,380.444739 840.428025,380.704408 840.607796,383.311083 C839.259667,384.739321 837.708265,385.960923 836.003669,386.936459 C832.408255,389.073732 828.493248,393.258395 824.018955,393.258395 C821.021164,393.260449 818.049791,392.698022 815.260127,391.60051 C814.541045,385.917758 812.403771,383.450904 812.403771,383.450904 C812.403771,383.450904 847.878522,365.294064 842.605248,377.708229 Z" id="Path" fill="#000000" opacity="0.1"></path>
            <path d="M848.038318,368.050548 C848.038318,381.288497 837.306841,392.019975 824.068892,392.019975 C810.830943,392.019975 800.099465,381.288497 800.099465,368.050548 C800.099465,354.812599 810.830943,344.081121 824.068892,344.081121 C830.425979,344.081121 836.522696,346.606464 841.017836,351.101604 C845.512975,355.596743 848.038318,361.693461 848.038318,368.050548 Z" id="Path" fill="#CC818C"></path>
            <path d="M849.596331,403.37549 L841.896153,414.840866 C841.896153,414.840866 805.512561,432.198726 812.463694,411.844688 C815.519796,402.856153 815.879338,396.294522 815.330038,391.750318 L815.389962,391.750318 C815.820238,393.256277 816.065072,394.809129 816.119032,396.37442 C816.228892,399.51042 816.30879,403.475363 824.108841,404.783694 C837.09228,406.960917 844.023439,398.851261 845.241885,397.263287 C846.48625,399.440581 847.944972,401.488145 849.596331,403.37549 Z" id="Path" fill="#000000" opacity="0.1"></path>
            <path d="M696.401732,354.69758 L691.577885,364.055643 C690.050695,363.924967 688.544963,363.609735 687.093605,363.116841 L686.67414,362.617478 C688.671592,363.37651 695.273172,350.842497 695.273172,350.842497 L695.482904,351.01228 C696.062166,353.19949 696.401732,354.69758 696.401732,354.69758 Z" id="Path" fill="#000000" opacity="0.1"></path>
            <path d="M842.006013,530.073885 C826.465834,536.825274 772.714395,531.072611 772.714395,531.072611 C772.874989,530.499743 772.965535,529.909518 772.984051,529.314854 C774.442191,527.077707 775.530803,525.739414 775.530803,525.739414 L839.928662,523.222624 C839.928662,523.222624 840.977325,526.088968 842.006013,530.073885 Z" id="Path" fill="#000000" opacity="0.1"></path>
            <path d="M815.350013,392.309605 L808.179159,395.375694 C805.970074,395.357217 803.971895,394.060154 803.055694,392.049936 C801.387822,388.584357 795.505325,392.049936 795.505325,392.049936 C795.505325,392.049936 777.528255,390.691669 770.896713,394.047389 C770.896713,394.047389 760.180382,389.513172 758.672306,389.213554 C757.164229,388.913936 754.897121,387.705478 753.838471,388.005096 C752.779822,388.304713 751.431541,386.007643 750.67251,386.197401 C749.913478,386.387159 749.61386,384.689325 747.196943,384.080102 C744.780025,383.470879 743.881172,384.229911 741.204586,381.513376 C738.528,378.796841 716.446166,368.08051 716.446166,368.08051 L706.458904,359.930904 L695.892382,351.481682 C695.892382,351.481682 689.250854,364.005707 687.283363,363.246675 L707.357758,387.40586 C707.357758,387.40586 721.849274,400.079694 731.816561,404.154497 C741.783847,408.229299 741.024815,409.437758 741.024815,409.437758 C741.024815,409.437758 771.216306,424.838115 775.890344,424.538497 C780.564382,424.238879 779.685503,456.048306 777.688051,461.181758 C775.690599,466.31521 772.564586,503.447847 772.564586,503.447847 C772.564586,503.447847 769.568408,511.297834 772.714395,516.730904 C772.714395,516.730904 773.463439,527.90665 772.714395,529.864153 C772.714395,529.864153 826.795414,535.646777 842.145834,528.805503 C842.145834,528.805503 844.412943,503.747465 842.145834,500.581503 C839.878726,497.415541 844.263134,490.354548 844.263134,490.354548 L853.920815,468.772076 L877.470777,445.072306 C877.470777,445.072306 881.086166,425.297529 864.936764,412.623694 L854.220433,403.105834 C854.220433,403.105834 848.228076,397.922446 846.470318,397.592866 C844.712561,397.263287 845.361732,397.592866 845.361732,397.592866 C845.361732,397.592866 838.37065,407.78986 824.028943,405.372943 C816.258854,404.064611 816.178955,400.099669 816.039134,396.973656 C815.998174,395.396887 815.766789,393.830847 815.350013,392.309605 Z" id="Path" fill="#67647E"></path>
            <path d="M844.862369,473.565962 C844.862369,473.565962 811.644739,474.924229 805.013197,485.360917 C805.013197,485.360917 813.622217,481.276127 821.312408,482.484586 C829.002599,483.693045 844.862369,473.565962 844.862369,473.565962 Z" id="Path" fill="#000000" opacity="0.1"></path>
            <path d="M808.179159,509.939567 C808.179159,509.939567 823.879134,510.998217 827.204892,507.672459 C830.53065,504.346701 830.540637,502.389197 830.540637,502.389197 L808.179159,509.939567 Z" id="Path" fill="#000000" opacity="0.1"></path>
            <path d="M848.038318,441.55679 C848.038318,441.55679 834.745274,457.256764 850.904662,464.048102 L848.038318,441.55679 Z" id="Path" fill="#000000" opacity="0.1"></path>
            <path d="M769.388637,411.225478 C769.388637,411.225478 774.222471,421.082904 776.639389,421.732076 L769.388637,411.225478 Z" id="Path" fill="#000000" opacity="0.1"></path>
            <path d="M753.089427,406.990879 C753.089427,406.990879 765.164025,417.867006 767.431134,418.915669 C767.431134,418.915669 754.897121,406.990879 753.089427,406.990879 Z" id="Path" fill="#000000" opacity="0.1"></path>
            <path d="M801.238013,396.584153 C801.238013,396.584153 789.612841,413.942013 797.16321,424.548484 C797.16321,424.508535 792.938599,411.974522 801.238013,396.584153 Z" id="Path" fill="#000000" opacity="0.1"></path>
            <path d="M830.540637,528.056459 L826.985172,531.402191 L826.485809,531.861605 L822.371057,535.756637 C822.081427,535.976357 821.791796,536.196076 821.492178,536.395822 C804.743541,548.380535 801.387822,530.163771 801.387822,530.163771 C801.387822,530.163771 793.997248,534.997605 792.938599,531.072611 C791.879949,527.147618 810.14665,521.564739 812.913121,521.864357 C813.155513,521.889129 813.399799,521.889129 813.642191,521.864357 C814.962048,521.644881 816.233096,521.195282 817.397401,520.536051 L818.206369,520.106599 C819.136507,519.582882 820.039821,519.012893 820.912917,518.398777 L830.540637,528.056459 Z" id="Path" fill="#CC818C"></path>
            <path d="M848.597605,368.050548 C848.615745,376.50833 844.175127,384.349626 836.91251,388.684229 C836.578042,388.123455 836.284326,387.539359 836.033631,386.936459 C835.174726,384.939006 834.645401,382.781758 833.77651,380.774318 C832.826348,378.58283 831.470976,376.590433 829.781605,374.901809 C829.495283,374.567205 829.127088,374.312566 828.712968,374.162752 C827.927916,374.05447 827.13297,374.274886 826.515771,374.771975 C825.499083,375.460735 824.365281,375.958254 823.170038,376.240102 C821.953707,376.519176 820.680106,376.140129 819.814318,375.241376 C818.875516,374.122803 819.00535,372.484892 819.275006,371.056713 C819.864255,367.930701 820.843006,364.854624 820.852994,361.678675 C820.862981,358.502726 819.644535,355.087083 816.858089,353.509096 C814.421197,352.120866 811.395057,352.510369 808.68851,351.731363 C808.269376,351.6216 807.858809,351.481406 807.460076,351.311898 C814.266617,344.325827 824.627589,342.160874 833.662011,345.836934 C842.696433,349.512994 848.602381,358.296873 848.597605,368.050548 Z" id="Path" fill="#000000" opacity="0.1"></path>
            <path d="M805.822166,347.47679 C805.392713,347.706497 804.913325,348.125962 805.043159,348.60535 C805.126153,348.833924 805.28015,349.02992 805.482599,349.164637 C806.600708,350.067205 807.892534,350.730116 809.277758,351.112153 C811.984306,351.85121 815.020433,351.501656 817.457325,352.889885 C820.213809,354.457885 821.452229,357.883516 821.452229,361.059465 C821.452229,364.235414 820.453503,367.31149 819.884229,370.427516 C819.614573,371.865682 819.474752,373.503592 820.413554,374.622166 C821.2825,375.515715 822.553144,375.893883 823.769274,375.620892 C824.964614,375.344474 826.098792,374.850175 827.115006,374.162752 C827.734817,373.66265 828.532699,373.43881 829.322191,373.543541 C829.732941,373.699826 830.099642,373.953432 830.390828,374.282599 C832.081238,375.974184 833.436666,377.970051 834.385732,380.165096 C835.264611,382.162548 835.783949,384.309809 836.642854,386.327236 C837.391178,388.384643 838.794798,390.139168 840.637758,391.320866 C842.555312,392.379516 845.211924,392.319592 846.690038,390.681682 C848.168153,389.043771 848.048306,386.796637 848.747414,384.829146 C849.945885,381.403516 853.291618,379.256255 855.388943,376.300025 C857.735949,372.974268 858.385121,368.799592 859.024306,364.774726 C859.308484,363.507411 859.328882,362.195179 859.084229,360.919643 C858.810299,360.07528 858.455783,359.259225 858.02558,358.482752 C855.688561,353.648917 855.738497,347.566675 852.033223,343.711592 C849.23679,340.815287 844.992204,339.936408 840.997299,339.437045 C837.002395,338.937682 832.807745,338.658038 829.382115,336.550726 C828.421625,335.824503 827.362245,335.239322 826.236127,334.812943 C825.059736,334.399013 823.75576,334.886953 823.140076,335.971465 C823.069669,336.27879 822.92957,336.565821 822.730599,336.810395 C822.367645,337.01987 821.927124,337.045783 821.542115,336.880306 L816.228892,335.452127 L816.838115,338.128713 C814.906961,338.20969 812.981357,337.868875 811.195312,337.129987 C811.095439,338.648051 812.803261,339.626803 813.332586,341.044994 C813.721821,342.360384 813.335291,343.782814 812.33386,344.720306 C810.406318,346.657834 807.999389,346.288306 805.822166,347.47679 Z" id="Path" fill="#585268"></path>
            <path d="M784.289631,708.136764 L784.069911,710.543694 L783.980025,710.543694 C775.32107,715.377529 757.413911,701.894726 757.413911,701.894726 L759.281529,700.027108 C759.901288,700.714657 760.199096,701.633505 760.100484,702.553885 L763.755822,702.753631 L768.130242,707.477605 C768.130242,707.477605 779.965146,708.84586 783.171057,708.086828 L784.289631,708.136764 Z" id="Path" fill="#000000" opacity="0.1"></path>
            <path d="M782.771567,721.260025 C777.138752,722.51842 757.413911,722.428535 757.413911,722.428535 L746.348025,724.176306 C746.348025,724.176306 727.372229,725.993987 725.264917,720.101503 C723.157605,714.209019 726.922803,714.578548 726.922803,714.578548 L727.072611,714.578548 L734.972535,713.939363 C734.972535,713.939363 744.959796,710.064306 748.66507,707.397707 C751.564868,705.139969 754.30462,702.683871 756.864611,700.047083 C756.864611,700.047083 760.160408,699.407898 760.100484,703.223032 L763.755822,703.422777 L768.130242,708.156739 C768.130242,708.156739 779.965146,709.524994 783.171057,708.755975 L784.289631,708.755975 L783.78028,714.598522 L783.920102,714.768306 C784.679134,715.687134 787.805146,720.141452 782.771567,721.260025 Z" id="Path" fill="#FF748F"></path>
            <circle id="Oval" fill="#575988" cx="762.347618" cy="706.618701" r="1"></circle>
            <circle id="Oval" fill="#575988" cx="748.15572" cy="712.770854" r="1"></circle>
            <circle id="Oval" fill="#575988" cx="740.845045" cy="714.988025" r="1"></circle>
            <circle id="Oval" fill="#575988" cx="751.880968" cy="711.592357" r="1"></circle>
            <circle id="Oval" fill="#575988" cx="744.490395" cy="713.879439" r="1"></circle>
            <circle id="Oval" fill="#575988" cx="755.646166" cy="709.844586" r="1"></circle>
            <circle id="Oval" fill="#575988" cx="759.371414" cy="708.22665" r="1"></circle>
            <path d="M782.771567,721.260025 C777.138752,722.51842 757.413911,722.428535 757.413911,722.428535 L746.348025,724.176306 C746.348025,724.176306 727.372229,725.993987 725.264917,720.101503 C723.157605,714.209019 726.922803,714.578548 726.922803,714.578548 L727.072611,714.578548 C728.28107,716.146548 730.707975,717.92428 735.471898,718.014166 L749.114497,718.563465 L763.246471,717.564739 C763.246471,717.564739 776.48958,717.175236 778.646828,716.715822 C780.458705,716.228074 782.223457,715.579661 783.920102,714.778293 C784.679134,715.687134 787.805146,720.141452 782.771567,721.260025 Z" id="Path" fill="#DCE6F2"></path>
            <path d="M747.416662,722.848 C746.661614,722.858497 745.908748,722.764389 745.179516,722.568357 L745.339312,721.989096 C747.200659,722.389219 749.133686,722.303231 750.952153,721.739414 C751.621299,721.559643 752.280459,721.369885 752.949605,721.17014 C754.158264,720.786783 755.388928,720.476615 756.634904,720.241325 C758.647979,719.979678 760.682131,719.919457 762.707159,720.061554 L763.136611,720.061554 C769.187522,720.379562 775.255017,720.108632 781.253503,719.252586 C782.676931,719.153852 784.03295,718.608649 785.128561,717.694573 L785.558013,718.124025 C784.37423,719.129751 782.902274,719.734616 781.353376,719.851822 C775.315122,720.712684 769.207398,720.983618 763.116637,720.66079 L762.677197,720.66079 C760.678746,720.520828 758.671308,720.581051 756.684841,720.840561 C755.465267,721.068042 754.261116,721.371581 753.079439,721.749401 C752.410293,721.949146 751.741146,722.148892 751.081987,722.318675 C749.886393,722.644041 748.655461,722.821805 747.416662,722.848 Z" id="Path" fill="#575988" opacity="0.5"></path>
            <path d="M830.540637,528.056459 L826.985172,531.402191 L818.156433,520.096611 C819.08657,519.572894 819.989885,519.002906 820.862981,518.38879 L830.540637,528.056459 Z" id="Path" fill="#000000" opacity="0.1"></path>
            <path d="M870.56958,435.424611 L877.560662,445.082293 L877.560662,455.199389 C877.560662,455.199389 880.726624,465.91572 877.560662,476.632051 L877.900229,485.990115 C877.900229,485.990115 874.534522,494.589146 875.742981,496.706446 C875.742981,496.706446 875.143745,503.048357 866.99414,507.422777 C858.844535,511.797197 849.596331,522.163975 849.596331,522.163975 C849.596331,522.163975 846.120764,528.805503 836.762701,527.297427 L827.854064,531.072611 L817.597146,517.939363 L831.479439,510.388994 C831.479439,510.388994 836.313274,503.907261 839.179618,504.206879 L850.954599,490.464408 C850.954599,490.464408 851.254217,486.089987 854.270369,486.089987 C854.270369,486.089987 848.68749,481.565758 850.644994,478.849223 C852.602497,476.132688 850.954599,464.048102 850.954599,464.048102 L870.56958,435.424611 Z" id="Path" fill="#67647E"></path>
            <path d="M857.58614,479.448459 C857.58614,479.448459 873.435924,479.148841 875.393427,483.223643 C877.35093,487.298446 862.370038,477.18135 857.58614,479.448459 Z" id="Path" fill="#000000" opacity="0.1"></path>
            <path d="M826.55572,531.072611 C826.557658,531.337238 826.534247,531.601442 826.485809,531.861605 C826.109718,534.367352 824.022485,536.262559 821.492178,536.395822 L821.212535,536.395822 C818.267091,536.395822 815.879338,534.008068 815.879338,531.062624 C815.880551,530.473872 815.981868,529.889613 816.178955,529.334828 C813.662166,527.337376 813.522344,523.662064 813.592255,521.844382 C814.912112,521.624907 816.18316,521.175307 817.347465,520.516076 C818.004227,522.402889 818.886145,524.20361 819.974115,525.879236 C820.380058,525.783357 820.795439,525.733109 821.212535,525.729427 C824.163494,525.729427 826.55572,528.121652 826.55572,531.072611 Z" id="Path" fill="#000000" opacity="0.1"></path>
            <path d="M817.826854,519.317605 C817.826854,519.317605 814.251414,520.126573 814.251414,520.775745 C814.251414,521.424917 813.442446,527.317401 817.367439,529.76428 C821.292433,532.211159 820.892943,526.388586 820.892943,526.388586 C820.892943,526.388586 817.517248,521.215185 817.826854,519.317605 Z" id="Path" fill="#575988"></path>
            <circle id="Oval" fill="#E4AAB4" cx="821.811771" cy="531.072611" r="5.33319745"></circle>
            <circle id="Oval" fill="#DCE6F2" cx="821.811771" cy="531.072611" r="4.57416561"></circle>
            <path d="M801.038268,533.139975 C801.038268,533.139975 812.313885,542.488051 826.795414,536.555618 L826.795414,541.089834 C826.795414,541.089834 817.137732,547.731363 808.388892,543.706497 C799.640051,539.681631 801.038268,533.139975 801.038268,533.139975 Z" id="Path" fill="#000000" opacity="0.1"></path>
            <path d="M801.038268,531.931516 C801.038268,531.931516 812.313885,541.28958 826.795414,535.347159 L826.795414,539.881376 C826.795414,539.881376 817.137732,546.522904 808.388892,542.498038 C799.640051,538.473172 801.038268,531.931516 801.038268,531.931516 Z" id="Path" fill="#000000" opacity="0.1"></path>
            <path d="M801.038268,531.931516 C801.038268,531.931516 812.313885,541.28958 826.795414,535.347159 L826.795414,539.881376 C826.795414,539.881376 817.137732,546.522904 808.388892,542.498038 C799.640051,538.473172 801.038268,531.931516 801.038268,531.931516 Z" id="Path" fill="#444053"></path>
            <path d="M801.337885,531.931516 C801.337885,531.931516 812.613503,541.28958 827.105019,535.347159 L827.105019,539.881376 C827.105019,539.881376 817.447338,546.522904 808.68851,542.498038 C799.929682,538.473172 801.337885,531.931516 801.337885,531.931516 Z" id="Path" fill="#000000" opacity="0.05"></path>
            <path d="M765.613452,700.027108 C765.613452,700.027108 780.714191,702.803567 782.921376,703.402803 C785.128561,704.002038 782.32214,705.060688 782.32214,705.060688 C782.32214,705.060688 768.53972,702.593834 765.613452,700.027108 Z" id="Path" fill="#000000" opacity="0.1"></path>
            <path d="M765.263898,692.027312 C765.51358,692.027312 775.530803,689.210904 777.688051,684.387057" id="Path" fill="#000000" opacity="0.1"></path>
            <path d="M779.875261,634.270981 C779.875261,634.270981 783.930089,639.604178 786.546752,639.454369 C789.163414,639.304561 782.252229,634.071236 779.875261,634.270981 Z" id="Path" fill="#000000" opacity="0.1"></path>
            <path d="M782.122395,643.159643 C782.122395,643.159643 783.830217,646.924841 786.347006,645.716382" id="Path" fill="#000000" opacity="0.1"></path>
            <path d="M791.670217,560.265376 L802.376561,588.499363 C802.376561,588.499363 803.884637,570.332535 800.698701,564.899465 C798.849956,561.726772 795.325774,559.9179 791.670217,560.265376 Z" id="Path" fill="#000000" opacity="0.05"></path>
            <g id="Group" opacity="0.1" transform="translate(803.974522, 335.571975)" fill="#000000">
                <path d="M14.0021401,0.978751592 L13.9122548,0.569273885 L12.1944459,0.109859873 L12.3842038,0.948789809 C12.9225455,0.988718312 13.4626892,0.998720972 14.0021401,0.978751592 Z" id="Path"></path>
                <path d="M9.27816561,7.79006369 L9.45793631,7.63026752 C10.4614521,6.69403132 10.8483308,5.27031774 10.4566624,3.95495541 C10.2489719,3.45400622 9.95863327,2.99149004 9.59775796,2.58670064 C8.75160058,2.41987317 7.9225179,2.17582867 7.1209172,1.85763057 C7.02104459,3.36570701 8.71887898,4.3444586 9.24820382,5.76264968 C9.49350908,6.41443471 9.50410337,7.13131448 9.27816561,7.79006369 Z" id="Path"></path>
                <path d="M37.8317452,54.2008662 C35.9701373,53.0274 34.5482162,51.2719418 33.7869045,49.2072357 C32.9379873,47.2097834 32.4086624,45.052535 31.5397707,43.0550828 C30.5907044,40.8600387 29.2352764,38.8641708 27.5448662,37.172586 C27.2564551,36.8403064 26.8889123,36.5861179 26.4762293,36.4335287 C25.6915025,36.3300108 24.8984058,36.5499149 24.2790318,37.0427516 C23.2623446,37.7315116 22.128542,38.229031 20.9332994,38.510879 C19.7171009,38.7858837 18.4454812,38.4074255 17.5775796,37.5121529 C16.6387771,36.3935796 16.7686115,34.7456815 17.0382675,33.3175032 C17.6275159,30.2014777 18.6062675,27.115414 18.6162548,23.9494522 C18.626242,20.7834904 17.4077962,17.3478726 14.6213503,15.7798726 C12.1844586,14.3916433 9.15831847,14.7811465 6.4517707,14.0021401 C5.06344065,13.6203047 3.76830954,12.9574424 2.6466242,12.0546242 C2.5752864,11.9965742 2.50850861,11.9331353 2.44687898,11.8648662 C2.21991681,11.9518876 1.99961138,12.0553644 1.78771975,12.1744713 C1.34828025,12.4041783 0.878878981,12.8236433 0.998726115,13.3030318 C1.08900585,13.5303427 1.24560569,13.7252225 1.44815287,13.8623185 C2.56500251,14.7668219 3.85725051,15.4299491 5.2433121,15.8098344 C7.94985987,16.5488917 10.976,16.1993376 13.4128917,17.5875669 C16.1693758,19.1555669 17.4077962,22.5811975 17.4077962,25.7571465 C17.4077962,28.9330955 16.4090701,32.009172 15.8298089,35.1251975 C15.5601529,36.5633631 15.4303185,38.2012739 16.369121,39.3198471 C17.2370226,40.2151198 18.5086423,40.593578 19.7248408,40.3185732 C20.9201806,40.0421555 22.0543585,39.547857 23.0705732,38.8604331 C23.6867646,38.3608673 24.4813995,38.1369248 25.2677707,38.2412229 C25.6798595,38.3949526 26.0471392,38.6489591 26.3364076,38.9802803 C28.0229571,40.6750534 29.3778586,42.6701459 30.3313121,44.8627771 C31.2101911,46.8602293 31.7295287,49.0074904 32.5884331,51.0249172 C33.3367572,53.0823243 34.7403774,54.8368496 36.5833376,56.0185478 C38.4909045,57.0771975 41.1575032,57.0172739 42.5756943,55.3793631 C42.9685663,54.9347008 43.2735701,54.4195832 43.4745478,53.8612994 C41.8290581,55.0880739 39.6124749,55.2214612 37.8317452,54.2008662 Z" id="Path"></path>
                <path d="M46.4607389,46.5206624 C47.9688153,44.6130955 49.9562803,42.985172 51.3744713,40.9877197 C51.6541146,40.5882293 51.9137834,40.1687643 52.1534777,39.7492994 C50.3258089,42.0763312 47.8190064,43.9239745 46.4607389,46.5206624 Z" id="Path"></path>
            </g>
        </g>
    </g>
</svg>