<?xml version="1.0" encoding="UTF-8"?>
<svg width="1010px" height="767px" viewBox="0 0 1010 767" version="1.1" xmlns="http://www.w3.org/2000/svg" xmlns:xlink="http://www.w3.org/1999/xlink">
    <!-- Generator: Sketch 52.1 (67048) - http://www.bohemiancoding.com/sketch -->
    <title>static/content/mission/high-five</title>
    <desc>Created with Sketch.</desc>
    <defs>
        <linearGradient x1="50.0049089%" y1="100.006199%" x2="50.0049089%" y2="0.00039645933%" id="linearGradient-1">
            <stop stop-color="#808080" stop-opacity="0.25" offset="0%"></stop>
            <stop stop-color="#808080" stop-opacity="0.12" offset="54%"></stop>
            <stop stop-color="#808080" stop-opacity="0.1" offset="100%"></stop>
        </linearGradient>
    </defs>
    <g id="static/content/mission/high-five" stroke="none" stroke-width="1" fill="none" fill-rule="evenodd">
        <g id="undraw_High_five_u364-2">
            <path d="M240.506432,639.925677 C232.0175,639.066797 223.149063,638.147995 215.109544,640.395065 C207.070026,642.642135 200.408711,649.203581 202.795599,655.475404 C208.128646,669.457174 239.427839,659.71987 253.859023,669.277409 C259.012305,672.692956 261.019688,678.065951 265.04444,682.260482 C271.555951,689.071602 282.751354,692.247461 293.557266,693.995182 C358.47263,704.491497 432.476146,677.476719 489.371966,703.492799 C507.797943,711.92181 522.328997,725.334323 542.532656,730.956992 C569.29776,738.407279 598.609544,730.447656 626.303437,725.34431 C660.841697,719.032883 696.047933,717.186813 731.056862,719.851471 C756.953099,721.848867 791.39819,722.517995 799.687383,703.712513 C805.02043,691.618281 793.735143,678.155833 778.754674,672.433294 C763.774206,666.710755 746.23707,666.890521 729.50888,667.439805 C697.220977,668.598294 664.923086,670.935247 632.635182,669.796732 C570.196589,667.579622 511.21349,642.831888 450.41276,642.012956 C379.605078,641.154076 311.643685,647.096328 240.506432,639.925677 Z" id="Path" fill="#281FB5" opacity="0.1"></path>
            <path d="M174.862018,326.883815 C164.875039,336.980651 164.265833,352.460469 164.265833,352.460469 C164.265833,352.460469 179.735664,351.581615 189.682695,341.474792 C199.629727,331.367969 200.288867,315.898138 200.288867,315.898138 C200.288867,315.898138 184.809049,316.806953 174.862018,326.883815 Z" id="Path" fill="#281FB5" opacity="0.1"></path>
            <path d="M215.059609,77.4490234 C218.585013,91.1811198 231.518151,99.719987 231.518151,99.719987 C231.518151,99.719987 238.738737,86.0078646 235.213333,72.2757682 C231.68793,58.5436719 218.754792,50.0147917 218.754792,50.0147917 C218.754792,50.0147917 211.494258,63.7269141 215.059609,77.4490234 Z" id="Path" fill="#281FB5" opacity="0.1"></path>
            <path d="M799.138099,115.219779 C789.15112,125.316615 788.531927,140.796432 788.531927,140.796432 C788.531927,140.796432 804.011745,139.917578 813.958776,129.810755 C823.905807,119.703932 824.554961,104.224115 824.554961,104.224115 C824.554961,104.224115 809.08513,105.172878 799.138099,115.219779 Z" id="Path" fill="#281FB5" opacity="0.1"></path>
            <path d="M494.744961,256.715299 C493.586471,270.836888 503.004193,283.140846 503.004193,283.140846 C503.004193,283.140846 514.31944,272.544661 515.47793,258.413086 C516.636419,244.28151 507.218698,232.007513 507.218698,232.007513 C507.218698,232.007513 495.903451,242.583724 494.744961,256.715299 Z" id="Path" fill="#281FB5" opacity="0.1"></path>
            <path d="M822.377799,454.767083 C821.21931,468.888672 830.637031,481.19263 830.637031,481.19263 C830.637031,481.19263 841.952279,470.596445 843.110768,456.474857 C844.269258,442.353268 834.851536,430.04931 834.851536,430.04931 C834.851536,430.04931 823.536289,440.645495 822.377799,454.767083 Z" id="Path" fill="#281FB5" opacity="0.1"></path>
            <path d="M586.784961,97.2532031 C522.149232,95.3057422 460.589492,77.2792448 401.806133,57.505026 C343.022773,37.7308073 284.798685,15.8693099 221.710937,5.40295573 C181.133841,-1.32826823 134.724349,-2.27703125 102.036966,16.5484245 C70.5679948,34.6548177 60.40125,65.9240495 54.9383724,94.936224 C50.823737,116.757773 48.406888,139.727826 59.6722005,160.161185 C67.5019922,174.352682 81.3838932,186.277135 90.9913672,199.859427 C124.417786,247.147773 100.788594,305.451758 64.5758073,351.66151 C47.5979427,373.323268 27.8736589,393.976341 14.7607552,417.036276 C1.64785156,440.096211 -4.41424479,466.501784 7.06079427,490.011133 C18.4259766,513.320742 45.520651,530.827917 74.8723828,543.141862 C134.484661,568.10931 204.703112,575.309922 273.223776,579.364635 C424.856081,588.352917 577.287344,584.457995 729.319128,580.563073 C785.585768,579.124948 842.092096,577.666849 897.439935,570.136667 C928.179857,565.962109 959.90849,559.330755 982.229388,543.311641 C1010.55246,522.978151 1017.57331,488.553034 998.58806,463.056276 C966.74957,420.302018 878.74431,409.675872 856.463359,363.785703 C844.219323,338.528633 856.79293,310.395312 874.599714,286.965859 C912.789922,236.71138 976.796471,192.618867 980.162083,135.163776 C982.479062,95.7152083 951.70918,56.2067187 904.131211,37.5410547 C854.266224,17.9665755 785.106393,20.4333594 748.334336,52.8211328 C710.43375,86.1277083 643.860547,98.9609766 586.784961,97.2532031 Z" id="Path" fill="#281FB5" opacity="0.1"></path>
            <path d="M801.045612,285.258086 C798.253667,285.971937 795.973294,287.981191 794.913607,290.661042 L793.914909,290.50125 L790.189766,289.902031 C790.189766,289.902031 770.455495,288.274154 766.770299,288.523828 C763.085104,288.773503 760.778112,285.138242 760.778112,285.138242 L746.10724,272.724427 L744.968724,271.725729 C746.556654,271.12651 747.545365,270.816914 747.545365,270.816914 C747.545365,270.816914 708.176693,221.880716 699.68776,220.931953 C691.198828,219.98319 677.167122,208.558086 677.027305,208.448229 L676.8775,207.669245 C676.567904,206.021393 676.338203,204.353568 676.168424,202.675755 L678.255703,203.954089 C678.255703,203.374844 678.255703,202.795599 678.315625,202.216354 C678.627227,196.17694 680.665333,190.353781 684.187969,185.438229 C688.292617,179.745651 694.364701,175.271484 696.791536,168.710039 C697.758796,165.888374 698.195589,162.912087 698.079857,159.931484 C698.141885,154.562173 696.725292,149.279317 693.985195,144.661393 C691.160043,139.992027 686.470175,136.756382 681.101992,135.772982 C679.703815,135.553268 678.275677,135.523307 676.897474,135.203724 C668.698164,133.276237 665.682096,122.280573 657.712487,119.584089 C653.997331,118.325729 649.862721,119.154648 646.277396,120.712617 C642.69207,122.270586 639.446302,124.507669 635.940872,126.235417 C632.435443,127.963164 628.460625,129.23151 625.274779,131.67832 C624.945208,131.927995 624.595664,132.227604 624.276081,132.537201 L623.646901,133.146406 C622.331972,134.480992 621.188017,135.973837 620.241341,137.590612 L620.091536,137.840286 C619.991667,138.010065 619.901784,138.189831 619.811901,138.369596 C619.722018,138.549362 619.662096,138.649232 619.602174,138.789049 C619.542253,138.928867 619.442383,139.108633 619.372474,139.268424 L619.162747,139.747799 L618.982982,140.207201 C618.92306,140.376979 618.853151,140.546758 618.803216,140.726523 C618.753281,140.906289 618.703346,141.016146 618.663398,141.165951 L618.513594,141.69526 L618.423711,142.124701 C618.423711,142.304466 618.353802,142.494219 618.323841,142.673984 C618.29388,142.85375 618.323841,142.943633 618.323841,143.073464 C618.323841,143.203294 618.323841,143.452969 618.323841,143.642721 C618.323841,143.832474 618.323841,143.892396 618.323841,144.01224 C618.323841,144.132083 618.323841,144.411719 618.323841,144.621445 C618.323841,144.831172 618.323841,144.821185 618.323841,144.921055 C618.362529,145.214667 618.422611,145.505062 618.503607,145.789922 C619.042904,147.627526 620.900482,149.505078 622.318633,151.142943 C622.158841,151.292747 621.999049,151.432565 621.839258,151.592357 C615.027788,158.156598 611.180727,167.20999 611.183151,176.669661 C611.184743,178.749937 611.375278,180.825769 611.752409,182.871576 C609.937207,181.500518 607.986201,180.319206 605.93,179.346172 C599.166357,176.103611 591.768841,174.398328 584.268242,174.352682 C572.034193,174.212865 554.846602,169.618854 554.846602,169.618854 C555.285448,170.457338 555.620804,171.346032 555.845299,172.265404 C555.096276,171.835964 554.287331,171.376562 553.39849,170.897187 C546.233143,167.050162 538.465718,164.449763 530.428437,163.207214 C530.428437,163.207214 525.335078,163.916289 524.655964,153.220234 C524.422668,149.878206 523.819771,146.572318 522.858307,143.363086 C519.934726,133.580756 517.908974,123.552281 516.806198,113.402148 L515.098424,97.7026172 C515.098424,97.7026172 522.788398,56.7560026 518.164427,39.298763 C519.652487,33.8258984 518.813581,28.8124349 513.909974,25.2071354 C494.565195,10.9657031 475.050638,66.3934375 475.050638,66.3934375 L467.800091,73.4342578 C465.940334,72.222042 463.842714,71.4218137 461.648112,71.0873177 C461.648112,71.0873177 457.743203,75.0821094 455.026745,85.9878906 C453.58862,91.7703516 443.761432,101.42776 434.873021,109.207617 C428.56125,114.730417 422.469193,120.47293 416.387122,126.235417 C411.892982,130.509844 401.876042,136.621875 380.024531,140.07737 C376.598997,140.616667 373.48306,141.126003 370.636771,141.595391 C371.36413,139.014901 371.733771,136.346769 371.735339,133.665729 C371.665406,119.766724 361.97815,107.769621 348.405755,104.773398 C348.505593,104.074529 348.505593,103.365016 348.405755,102.666146 C348.037357,101.16237 347.275609,99.7836407 346.198633,98.6713542 C341.594635,92.978776 336.601146,87.1264063 329.750078,84.4299219 C326.924978,83.3310775 323.898839,82.8443082 320.871654,83.0017839 L319.353633,83.0017839 C319.044036,83.0017839 318.744427,83.0017839 318.434831,83.0017839 C311.900005,83.3635733 305.837532,86.5221729 301.796523,91.6704818 C299.339727,94.9561979 297.861654,98.8511198 295.744414,102.356549 C291.809544,108.848086 285.757435,113.851563 279.19599,117.806406 C275.251133,120.193294 271.106536,122.250612 267.381393,124.957083 C253.86901,134.774284 247.637135,152.920625 251.032708,169.139479 C252.530755,176.260195 255.696628,183.271055 254.847734,190.491641 C254.178607,196.094336 251.162539,201.127773 248.086549,205.881576 C245.01056,210.635378 241.754805,215.469076 240.536393,220.971901 C239.317982,226.474727 240.596315,232.956276 245.210299,236.291927 C246.908086,237.510339 248.965404,238.289323 250.413516,239.767396 C251.3768,240.906282 252.182948,242.169247 252.810391,243.5225 C257.761228,252.46658 266.159923,258.992081 276.050091,261.578958 C277.602254,261.975481 279.202727,262.150322 280.803893,262.098281 L280.973672,262.098281 L281.283268,262.098281 C284.94849,262.327982 288.703594,261.349258 289.931992,258.10349 C290.118376,257.365761 290.396871,256.654424 290.760911,255.98625 C291.105817,255.488038 291.620764,255.132902 292.209023,254.987552 C293.390514,255.257453 294.52958,255.687543 295.594609,256.265885 C300.710752,258.919386 306.307479,260.518935 312.053151,260.969753 C313.013257,261.046371 313.977206,261.063049 314.939388,261.019687 C316.938858,261.206711 318.954243,260.919288 320.821719,260.180781 C322.617706,259.269171 324.169065,257.940413 325.34582,256.305833 C325.605482,255.976263 325.845169,255.626719 326.094844,255.307135 C324.775356,263.283244 322.292083,271.02244 318.724453,278.277188 C318.724453,278.277188 312.732266,288.264167 313.161706,298.331042 C312.93107,301.998683 313.708138,305.659539 315.408776,308.91724 C315.408776,308.91724 315.578555,308.477813 315.928099,307.788711 C317.645859,310.664961 323.278516,319.862969 326.973698,323.088763 C327.153464,332.58638 327.113516,344.480872 325.925065,346.927682 C323.927669,351.112227 317.615898,380.883411 344.760508,401.18694 L351.022344,414.899063 L325.245951,416.72668 C322.639349,416.367148 288.933294,411.83306 288.763516,418.434453 C288.593737,425.295508 293.856875,492.108398 311.334089,487.584297 C327.622852,483.369792 322.249857,463.885195 321.440911,461.268607 L322.020156,461.108815 L321.38099,460.929049 L334.413997,448.575156 C334.659684,447.071179 334.300683,445.531067 333.415299,444.290742 L333.54513,444.220833 L365.024089,445.628997 L372.42444,461.708034 C372.42444,461.708034 384.978073,480.803138 374.801341,496.872188 C364.624609,512.941237 354.098333,538.068477 352.400547,553.308607 C351.012357,565.772357 341.784388,578.016393 338.478698,582.051133 C332.576393,584.048529 309.935911,592.93694 318.974128,606.389401 C329.320638,621.789323 362.916836,651.101107 376.499128,650.092422 C390.081419,649.083737 384.638516,639.206615 384.638516,639.206615 L373.28332,628.200964 C373.28332,628.200964 371.285924,604.751536 372.09487,597.890482 C372.534297,594.32513 369.907721,591.758477 367.10138,590.669896 C368.169987,583.029857 370.876458,568.548737 376.68888,560.549167 C384.828268,549.323802 410.964193,499.928203 410.964193,499.928203 C410.964193,499.928203 419.273359,492.557812 417.405794,470.626406 C416.656771,461.777943 416.237318,454.008073 415.99763,447.866081 L445.579062,449.194349 C445.579062,449.194349 477.307695,446.008503 455.755794,412.012826 C434.203893,378.017148 388.39362,344.700586 388.39362,344.700586 L387.984154,323.658021 C390.061445,324.177344 391.279857,324.437005 391.279857,324.437005 C391.279857,324.437005 391.100091,323.677995 390.800482,322.319766 L391.279857,322.429622 C391.279857,322.429622 384.65849,293.776979 382.621146,270.99668 L384.488711,271.85556 C404.173047,294.635859 417.445742,275.380964 417.445742,275.380964 C417.445742,275.380964 459.021536,216.937161 454.946849,219.613672 C454.094676,220.036043 453.108264,220.097244 452.210417,219.783451 L455.20651,210.235898 C455.20651,210.235898 467.480508,191.480352 449.663737,180.934102 C435.122695,172.325326 435.502201,199.310143 436.13138,209.506849 L435.412318,208.897643 C435.412318,208.897643 421.500456,229.870299 414.030195,241.555065 C406.559935,253.239831 400.288112,245.549857 400.288112,245.549857 L390.850417,234.913724 C392.400462,230.652599 393.161897,226.144905 393.097487,221.611068 C393.514144,215.213819 391.194363,208.940608 386.715807,204.353568 C379.515195,197.013138 377.407943,189.902409 377.188229,184.429544 C377.25904,181.594034 377.90102,178.801933 379.075768,176.220247 L428.121823,150.254102 C428.121823,150.254102 438.468333,150.413893 452.380195,128.981836 C461.396051,115.27461 471.318622,102.185758 482.081471,89.8029167 C482.081471,89.8029167 481.791849,89.3834635 481.2925,88.694362 C481.791849,88.1051302 482.081471,87.7855469 482.081471,87.7855469 C482.081471,87.7855469 481.512214,86.9566276 480.543477,85.6782943 L488.10362,76.9596615 C487.864838,80.900168 487.834835,84.8505529 488.013737,88.7942318 L491.928633,102.026979 L494.125768,175.700924 C494.125768,175.700924 491.748867,182.69181 507.028945,189.772578 C519.952096,195.764766 540.425404,205.751745 546.397617,208.697904 C546.177904,209.237201 546.048073,209.526823 546.048073,209.526823 L547.825755,209.406979 L548.085417,209.526823 C577.936497,206.850312 576.917826,236.651458 576.917826,236.651458 C576.917826,236.651458 578.915221,297.272422 569.797109,318.374909 C560.678997,339.477396 561.987292,365.593346 561.987292,365.593346 C561.987292,365.593346 562.896107,361.139154 567.979479,366.961562 C567.879609,367.470898 567.769753,368.020182 567.649909,368.58944 C564.733711,383.200391 558.661628,414.27987 557.533099,426.883437 C556.29021,438.368898 554.075144,449.728208 550.911732,460.839167 L547.915638,516.596471 L567.000755,517.52526 L566.791029,519.522656 C566.579382,521.577886 565.369107,523.397034 563.555247,524.386315 C557.023763,527.931693 541.583893,540.365482 542.822279,578.735456 L542.163138,584.907409 C541.10612,595.359904 537.936024,605.488582 532.845286,614.678594 C532.405859,615.457578 532.016367,616.206602 531.686797,616.925664 C531.736799,616.521783 531.919459,616.145927 532.20612,615.857057 C532.20612,615.857057 522.289049,617.914375 524.326393,644.70944 C526.363737,671.504505 529.419753,676.188398 533.49444,676.517969 C537.569128,676.847539 557.46319,681.711198 556.394583,671.834076 C555.325977,661.956953 554.397187,640.01556 555.715469,636.669922 C557.03375,633.324284 562.446693,624.296055 557.313385,622.118893 C558.801955,615.973112 559.523184,609.666548 559.460586,603.343372 C559.460586,603.343372 569.447565,587.603893 576.588255,581.741536 C583.728945,575.87918 587.573932,565.922161 590.16056,553.108867 C590.340326,552.269961 611.203125,538.368086 608.137122,526.823138 C607.597826,524.825742 607.208333,523.058047 606.908724,521.46013 C606.778893,520.751055 606.669036,520.081927 606.569167,519.462734 L606.938685,519.462734 L611.183151,494.005924 L611.183151,518.793607 L613.69987,519.123177 L613.609987,521.120573 L612.54138,544.889583 C612.34765,549.519064 611.333198,554.077339 609.545286,558.352031 C605.051146,568.988164 596.761953,592.667292 599.01901,618.273906 L598.779323,641.104141 C598.06026,641.243958 587.693776,643.690768 589.661211,669.567031 C591.658607,696.352109 594.744583,701.04599 598.819271,701.37556 C602.893958,701.70513 622.788021,706.568789 621.729401,696.691667 C620.670781,686.814544 619.732005,664.873151 621.050286,661.527513 C622.368568,658.181875 624.745469,649.333411 619.612161,647.15625 C619.638886,644.155488 620.371002,641.203077 621.749375,638.537487 C623.986458,634.732448 631.456719,616.646029 637.079388,602.734167 C642.827575,588.653723 646.023326,573.662439 646.517083,558.461888 C646.517083,558.292109 646.517083,558.122331 646.517083,557.952552 C646.668206,552.824483 647.768724,547.768871 649.762852,543.041992 C652.061614,537.753087 653.879914,532.268103 655.195768,526.653359 C655.335586,525.984232 655.445443,525.335078 655.545312,524.655964 L660.418958,525.305117 L677.057266,453.298997 C677.057266,453.298997 681.611328,414.269883 679.384232,396.642865 C679.294349,395.913815 679.194479,395.244687 679.074635,394.595534 L680.073333,394.685417 C680.073333,394.685417 683.468906,385.986758 682.450234,348.805234 C681.431562,311.623711 689.24138,299.869036 689.24138,299.869036 C693.455885,286.506458 698.109818,282.032292 700.826276,280.534245 C701.525303,280.088613 702.325898,279.827475 703.153242,279.775234 L715.746823,294.186445 L718.063802,296.842982 C718.068768,296.789834 718.068768,296.736338 718.063802,296.68319 L719.0625,297.851667 C718.986306,297.259027 718.959582,296.661072 718.982604,296.063997 C725.703841,299.968906 741.233594,309.097005 750.50151,315.648464 C762.585755,324.187331 765.901432,323.188633 776.467656,322.299792 C782.879297,321.770482 791.547995,318.175169 797.360417,315.438737 L797.889727,315.189062 C799.453727,316.023809 801.100493,316.693226 802.80332,317.186458 C802.80332,317.186458 819.861081,331.637617 821.508932,305.262005 C823.156784,278.886393 801.045612,285.258086 801.045612,285.258086 Z M358.622435,592.417617 C356.885591,591.900745 355.210989,591.194063 353.628945,590.310365 L358.622435,592.417617 Z M331.917253,306.909857 L331.977174,310.654974 L331.717513,310.774818 C331.797409,309.456536 331.857331,308.158229 331.917253,306.909857 Z M598.709414,641.194023 L598.709414,642.652122 C598.326319,642.241579 598.326319,641.604567 598.709414,641.194023 Z" id="Shape" fill="url(#linearGradient-1)" fill-rule="nonzero"></path>
            <rect id="Rectangle" fill="#FF7590" x="624.196185" y="202.366159" width="28.9622396" height="30.4602865"></rect>
            <path d="M589.00207,554.077604 C586.455391,566.811003 582.680312,576.708099 575.689427,582.540495 C568.698542,588.372891 558.881341,604.0125 558.881341,604.0125 C558.711562,624.815378 553.218724,631.137135 553.218724,631.137135 L547.556107,632.635182 L533.574336,632.635182 C533.574336,632.635182 531.077591,625.644297 530.578242,621.489714 C530.408464,620.101523 531.397174,617.774557 532.775378,615.277812 C537.773266,606.125885 540.880826,596.062825 541.913464,585.686393 L542.562617,579.544401 C541.384154,541.424102 556.544388,529.050234 562.906094,525.524831 C564.689721,524.52974 565.872533,522.723806 566.071966,520.691133 L567.200495,509.795339 L604.811458,511.64293 C604.811458,511.64293 604.0125,514.958607 605.440638,522.628607 C605.73026,524.216536 606.119753,525.984232 606.639076,527.951667 C609.635169,539.426706 589.161862,553.238698 589.00207,554.077604 Z" id="Path" fill="#8E5362"></path>
            <path d="M652.778919,527.751927 C651.488772,533.327973 649.707464,538.778842 647.455859,544.04069 C645.496608,548.744975 644.41354,553.767705 644.260026,558.861367 C644.260026,559.031146 644.260026,559.200924 644.260026,559.370703 C643.773882,574.467125 640.640312,589.360881 635.002096,603.373333 C629.479297,617.195312 622.158841,635.181862 619.961706,638.966927 C616.306471,645.288685 618.463659,655.944792 618.463659,655.944792 L597.291263,654.446745 L597.660781,618.82319 C595.453659,593.386354 603.58306,569.886992 607.987318,559.270833 C609.766897,555.024905 610.781228,550.497609 610.983411,545.898268 L611.982109,522.269076 L612.291706,515.27819 C612.291706,515.27819 649.722904,509.95513 652.878789,518.444062 C653.747656,520.691133 653.53793,524.036771 652.778919,527.751927 Z" id="Path" fill="#8E5362"></path>
            <path d="M605.440638,522.628607 L566.032018,520.691133 L567.160547,509.795339 L604.811458,511.64293 C604.811458,511.64293 603.982539,514.94862 605.440638,522.628607 Z" id="Path" fill="#000000" opacity="0.1"></path>
            <path d="M652.778919,527.751927 L611.972122,522.269076 L612.281719,515.27819 C612.281719,515.27819 649.712917,509.95513 652.868802,518.444062 C653.747656,520.691133 653.53793,524.036771 652.778919,527.751927 Z" id="Path" fill="#000000" opacity="0.1"></path>
            <path d="M674.220964,454.866953 L657.912227,526.443633 L609.645156,519.952096 L609.645156,495.314219 L605.470599,520.631211 L547.54612,517.794909 L550.542214,462.367174 C553.646254,451.306349 555.817701,440.004802 557.03375,428.581224 C558.162279,416.057552 564.094544,385.167826 566.960807,370.656745 C567.959505,365.872982 568.518776,362.856914 568.518776,362.856914 C568.518776,362.856914 667.729427,383.490013 674.220964,390.980247 C675.329518,392.258581 676.058568,394.975039 676.507982,398.580339 C678.685143,416.077526 674.220964,454.866953 674.220964,454.866953 Z" id="Path" fill="#BDD2E8"></path>
            <path d="M558.372005,459.530872 C558.372005,459.530872 597.421094,439.057565 606.938685,443.381927 L558.372005,459.530872 Z" id="Path" fill="#000000" opacity="0.1"></path>
            <path d="M579.674232,392.618112 C579.674232,392.618112 612.131914,417.25599 613.130612,423.907318 L579.674232,392.618112 Z" id="Path" fill="#000000" opacity="0.1"></path>
            <path d="M570.855729,477.507435 C570.855729,477.507435 594.32513,476.508737 601.815365,482.500924 L570.855729,477.507435 Z" id="Path" fill="#000000" opacity="0.1"></path>
            <path d="M613.130612,451.161784 C613.130612,451.161784 624.286068,487.67418 619.45237,497.661159 C614.618672,507.648138 609.635169,495.324206 609.635169,495.324206 L613.130612,451.161784 Z" id="Path" fill="#000000" opacity="0.1"></path>
            <path d="M597.461042,641.473659 C597.461042,641.473659 586.475365,643.141484 588.47276,669.766771 C590.470156,696.392057 593.46625,701.065964 597.461042,701.395534 C601.455833,701.725104 620.930443,706.558802 619.931745,696.731615 C618.933047,686.904427 617.934349,665.112839 619.262617,661.777187 C620.590885,658.441536 622.887891,649.662982 617.854453,647.495807 L616.765872,652.629115 C616.765872,652.629115 606.109766,642.801927 599.788008,649.962591 C599.516498,648.216961 599.078399,646.501353 598.479714,644.839271 C597.850534,643.281302 596.472331,642.472357 597.461042,641.473659 Z" id="Path" fill="#494457"></path>
            <path d="M798.508919,314.719674 C798.508919,314.719674 795.992201,316.127839 792.297018,317.885547 C786.594453,320.602005 778.095534,324.177344 771.803737,324.706654 C761.437253,325.585508 758.191484,326.584206 746.33694,318.095273 C737.238802,311.583763 722.008659,302.505599 715.377305,298.630651 L712.491068,296.922878 L712.201445,296.753099 L712.201445,296.633255 L717.704271,281.512969 L737.17888,271.156471 L742.012578,275.301068 L756.403815,287.634987 C756.403815,287.634987 758.650885,291.250273 762.276159,291.000599 C765.901432,290.750924 785.246211,292.368815 785.246211,292.368815 L788.901445,292.968034 L796.601406,294.246367 L798.508919,314.719674 Z" id="Path" fill="#8E5362"></path>
            <path d="M798.508919,314.719674 C798.508919,314.719674 795.992201,316.127839 792.297018,317.885547 C788.392109,315.888151 783.538437,312.143034 785.406003,305.981068 C787.093802,300.438294 787.553203,296.113932 788.941393,292.997995 L796.641354,294.276328 L798.508919,314.719674 Z" id="Path" fill="#000000" opacity="0.1"></path>
            <path d="M795.892331,287.754831 C795.892331,287.754831 817.61401,281.512969 815.99612,307.728789 C814.378229,333.944609 797.640052,319.59332 797.640052,319.59332 C797.640052,319.59332 783.408607,315.848203 786.404701,305.981068 C789.400794,296.113932 788.531927,290.131732 795.892331,287.754831 Z" id="Path" fill="#8E5362"></path>
            <path d="M570.685951,202.865508 L548.055456,212.373112 L547.705911,212.522917 L547.456237,212.403073 L546.048073,211.693997 C540.195703,208.777799 520.081927,198.800807 507.428424,192.878529 C492.447956,185.887643 494.774922,178.896758 494.774922,178.896758 L492.617734,105.66224 L488.782734,92.509388 C488.782734,92.509388 486.076263,47.927513 507.757995,36.7520833 C529.439727,25.5766536 515.418008,101.327891 515.418008,101.327891 L517.09582,117.06737 C518.179438,127.136163 520.168232,137.086818 523.038073,146.798607 C523.975244,149.991483 524.564569,153.276302 524.795781,156.595833 C525.464909,167.241953 530.458398,166.532878 530.458398,166.532878 C538.345557,167.771374 545.960442,170.359219 552.969049,174.182904 C555.571864,175.557051 558.062926,177.133166 560.419336,178.896758 L570.685951,202.865508 Z" id="Path" fill="#8E5362"></path>
            <path d="M651.250911,237.819935 L631.936094,235.822539 C631.936094,235.822539 637.628672,227.353581 640.135404,219.114323 C640.489956,217.98465 640.773475,216.833899 640.984297,215.668815 C641.563542,212.403073 641.413737,209.377018 639.925677,207.18987 C634.273047,198.870716 673.551836,187.215911 673.551836,187.215911 C673.074489,191.820145 672.930967,196.452887 673.122396,201.077839 C673.234577,204.296134 673.568266,207.502883 674.121094,210.675326 C675.309544,217.136901 677.676458,223.218971 682.190573,226.334909 C694.524492,234.823841 651.250911,237.819935 651.250911,237.819935 Z" id="Path" fill="#8E5362"></path>
            <path d="M651.250911,237.819935 L631.936094,235.822539 C631.936094,235.822539 637.628672,227.353581 640.135404,219.114323 C642.3625,222.280195 643.131497,222.210286 646.257422,222.839466 C646.257422,222.839466 665.752005,225.725703 674.141068,210.675326 C675.329518,217.136901 677.696432,223.218971 682.210547,226.334909 C694.524492,234.823841 651.250911,237.819935 651.250911,237.819935 Z" id="Path" fill="#000000" opacity="0.1"></path>
            <path d="M715.417253,298.630651 C715.394461,299.224402 715.421186,299.81902 715.497148,300.408333 L712.501055,296.922878 L712.25138,296.633255 L717.754206,281.512969 L737.228815,271.156471 L742.062513,275.301068 C735.141536,277.947617 715.726849,286.346667 715.417253,298.630651 Z" id="Path" fill="#000000" opacity="0.1"></path>
            <path d="M570.685951,202.865508 L548.055456,212.373112 L547.456237,212.373112 L545.708516,212.492956 C545.708516,212.492956 545.838346,212.203333 546.048073,211.664036 C547.935612,207.080013 556.694193,184.699193 552.909128,174.152943 C555.511942,175.52709 558.003005,177.103205 560.359414,178.866797 L570.685951,202.865508 Z" id="Path" fill="#000000" opacity="0.1"></path>
            <path d="M676.507982,398.550378 C667.699466,397.761406 579.574362,389.612031 571.355078,376.638945 C570.055846,374.525284 568.586206,372.52123 566.960807,370.646758 C567.959505,365.862995 568.518776,362.846927 568.518776,362.846927 C568.518776,362.846927 667.729427,383.480026 674.220964,390.97026 C675.329518,392.22862 676.058568,394.935091 676.507982,398.550378 Z" id="Path" fill="#000000" opacity="0.1"></path>
            <path d="M646.257422,223.838164 C646.257422,223.838164 665.961732,226.754362 674.290872,211.444323 C674.290872,211.444323 688.202734,222.869427 696.521888,223.848151 C704.841042,224.826875 743.46069,273.44349 743.46069,273.44349 C743.46069,273.44349 712.501055,283.430469 714.498451,299.409635 L699.847552,282.431771 C699.847552,282.431771 692.527096,282.092214 686.205339,302.405729 C686.205339,302.405729 678.545326,314.050547 679.544023,351.00237 C680.542721,387.954193 677.217057,396.612904 677.217057,396.612904 C677.217057,396.612904 580.003802,388.29375 571.355078,374.641549 C562.706354,360.989349 561.368099,367.650664 561.368099,367.650664 C561.368099,367.650664 560.029844,341.684518 569.018125,320.711862 C578.006406,299.739206 576.00901,239.48776 576.00901,239.48776 C576.00901,239.48776 577.007708,209.856393 547.715898,212.522917 C547.715898,212.522917 560.029844,183.890247 554.377214,172.90457 C554.377214,172.90457 571.225247,177.478607 583.229596,177.618424 C590.59762,177.675689 597.859337,179.38192 604.481888,182.611914 C608.087188,184.379609 611.412852,186.606706 613.300391,189.263242 C618.953021,197.252826 628.280859,193.597591 628.280859,193.597591 C630.631932,200.908671 633.53656,208.030019 636.969531,214.899818 C637.359023,215.628867 637.748516,216.34793 638.147995,217.037031 C638.72724,218.035729 639.326458,219.034427 639.925677,219.853359 C642.322552,223.278893 643.001667,223.18901 646.257422,223.838164 Z" id="Path" fill="#FF7590"></path>
            <path d="M673.122396,201.047878 C672.060324,202.555726 670.878004,203.975178 669.587005,205.292344 C663.025442,212.025772 654.021321,215.82191 644.619557,215.81862 C643.415535,215.819256 642.212245,215.759258 641.014258,215.638854 C641.593503,212.373112 641.443698,209.347057 639.955638,207.159909 C634.303008,198.840755 673.581797,187.185951 673.581797,187.185951 C673.094453,191.789459 672.940918,196.422203 673.122396,201.047878 Z" id="Path" fill="#000000" opacity="0.1"></path>
            <path d="M679.544023,179.895456 C679.544023,199.200253 663.894393,214.849883 644.589596,214.849883 C625.284799,214.849883 609.635169,199.200253 609.635169,179.895456 C609.635169,160.590659 625.284799,144.941029 644.589596,144.941029 C653.870671,144.906363 662.781622,148.577917 669.344378,155.140674 C675.907135,161.70343 679.578689,170.614381 679.544023,179.895456 Z" id="Path" fill="#8E5362"></path>
            <path d="M696.861445,259.791289 L697.580508,283.180794 C697.580508,283.180794 708.016901,274.771758 708.346471,266.782174 C708.676042,258.792591 696.861445,259.791289 696.861445,259.791289 Z" id="Path" fill="#000000" opacity="0.1"></path>
            <path d="M612.631263,283.180794 C612.631263,283.180794 640.095456,320.881641 656.074622,324.706654 C672.053789,328.531667 618.623451,295.404857 612.631263,283.180794 Z" id="Path" fill="#000000" opacity="0.1"></path>
            <path d="M641.763281,287.105677 C641.763281,287.105677 657.07332,304.403125 668.058997,306.560313 L641.763281,287.105677 Z" id="Path" fill="#000000" opacity="0.1"></path>
            <path d="M587.833594,330.698841 C587.833594,330.698841 615.797135,358.163034 631.776302,359.830859 L587.833594,330.698841 Z" id="Path" fill="#000000" opacity="0.1"></path>
            <path d="M679.544023,179.895456 C679.5488,189.033068 675.961962,197.806474 669.557044,204.323607 L665.722044,201.936719 C664.238498,201.164432 662.958624,200.052242 661.986914,198.690951 C660.718568,196.573711 661.088086,193.917174 661.187956,191.450391 C661.397682,186.227201 659.959557,180.57457 655.874883,177.308828 C649.253516,172.005742 638.637357,174.941914 631.906133,169.738698 C630.285195,168.362248 628.857482,166.773288 627.661667,165.014857 L621.349896,156.555885 C620.970391,156.056536 620.51099,155.557187 620.021628,154.967956 C630.06978,145.08717 645.068608,142.206725 658.062063,147.662492 C671.055519,153.11826 679.501938,165.843031 679.484102,179.935404 L679.544023,179.895456 Z" id="Path" fill="#000000" opacity="0.1"></path>
            <path d="M623.527057,135.133815 C626.652982,132.746927 630.468008,131.488568 633.983424,129.730859 C637.498841,127.973151 640.604792,125.736068 644.120208,124.238021 C647.635625,122.739974 651.700326,121.86112 655.345573,123.109492 C663.165378,125.79599 666.121523,136.721745 674.161042,138.639245 C675.519271,138.958828 676.917448,138.988789 678.285664,139.198516 C683.568078,140.199934 688.167737,143.417877 690.919193,148.036992 C693.602702,152.644834 694.983506,157.89534 694.913984,163.227188 C695.025124,166.186358 694.595301,169.14097 693.645638,171.94582 C691.268737,178.467318 685.30651,182.931497 681.281758,188.574141 C677.471884,193.973914 675.449672,200.43172 675.499297,207.040065 L665.752005,200.977969 C664.266299,200.20886 662.98574,199.096075 662.016875,197.732201 C660.748529,195.614961 661.118047,192.958424 661.217917,190.491641 C661.427643,185.268451 659.989518,179.61582 655.914831,176.350078 C649.283477,171.046992 638.667318,173.983164 631.946081,168.779948 C630.325143,167.403498 628.89743,165.814538 627.701615,164.056107 L621.389844,155.597135 C620.021628,153.759531 617.395052,151.472513 616.795833,149.23543 C615.467565,144.421706 620.011641,137.840286 623.527057,135.133815 Z" id="Path" fill="#362133"></path>
            <path d="M666.840586,199.84944 C665.354879,199.080331 664.074321,197.967546 663.105456,196.603672 C661.837109,194.486432 662.206628,191.829896 662.306497,189.363112 C662.516224,184.139922 661.078099,178.487292 656.993424,175.221549 C650.372057,169.918464 639.755898,172.854635 633.024674,167.651419 C631.403737,166.27497 629.976023,164.686009 628.780208,162.927578 L622.468437,154.468607 C621.090234,152.631003 618.473646,150.343984 617.874427,148.106901 C616.785846,144.251927 619.542253,139.228477 622.488411,136.012669 C619.182721,139.068685 615.557448,144.87112 616.785846,149.195482 C617.425013,151.432565 620.011641,153.719583 621.379857,155.557188 L627.691628,164.016159 C628.887443,165.77459 630.315156,167.36355 631.936094,168.74 C638.637357,173.943216 649.253516,171.007044 655.904844,176.31013 C659.979531,179.575872 661.417656,185.228503 661.20793,190.451693 C661.10806,192.918477 660.738542,195.575013 662.006888,197.692253 C662.975753,199.056127 664.256312,200.168912 665.742018,200.938021 L675.48931,207.000117 C675.48931,206.420872 675.48931,205.841628 675.549232,205.27237 L666.840586,199.84944 Z" id="Path" fill="#000000" opacity="0.1"></path>
            <path d="M532.146198,616.446289 C532.146198,616.446289 522.41888,618.443685 524.416276,645.118906 C526.413672,671.794128 529.409766,676.418099 533.404557,676.747669 C537.399349,677.07724 556.873958,681.910938 555.87526,672.08375 C554.876562,662.256563 553.877865,640.464974 555.206133,637.129323 C556.534401,633.793672 561.807526,624.835352 556.774089,622.668177 L552.709388,627.98125 C552.709388,627.98125 542.053281,618.154063 535.731523,625.314727 C535.731523,625.314727 529.819232,618.773255 532.146198,616.446289 Z" id="Path" fill="#494457"></path>
            <path d="M538.298177,632.984727 C540.40543,633.983424 542.372865,635.201836 544.47013,636.200534 C546.535499,637.282076 548.840441,637.82482 551.171393,637.778477 C552.160986,637.759939 553.119147,637.42773 553.907826,636.829714" id="Path" fill="#000000" opacity="0.1"></path>
            <path d="M602.314714,659.070716 C603.563086,660.219219 604.531823,661.687305 605.939987,662.636068 C607.937383,663.974323 610.494049,664.054219 612.930872,664.08418 C613.336474,664.120864 613.745219,664.069771 614.12931,663.934375 C614.564568,663.697659 614.932338,663.353949 615.197917,662.935677 L616.506211,661.247878" id="Path" fill="#000000" opacity="0.1"></path>
            <path d="M438.198685,216.178151 C438.198685,216.178151 433.704544,173.573698 451.181758,184.060026 C468.658971,194.546354 456.624661,213.182057 456.624661,213.182057 L452.520013,226.334909 L438.198685,216.178151 Z" id="Path" fill="#FFC1C7"></path>
            <path d="M466.162227,80.0256641 L476.149206,70.2184505 C476.149206,70.2184505 495.294245,15.1202865 514.269505,29.2718359 C533.244766,43.4233854 490.220859,79.2067318 490.220859,79.2067318 L478.815729,92.519375 L466.162227,80.0256641 Z" id="Path" fill="#FFC1C7"></path>
            <path d="M320.012773,297.921576 L319.513424,309.236823 C319.513424,309.236823 328.671484,325.21599 332.496497,326.384466 C336.32151,327.552943 335.99194,292.588529 335.99194,292.588529 L320.012773,297.921576 Z" id="Path" fill="#FF5374"></path>
            <path d="M320.012773,297.921576 L319.513424,309.236823 C319.513424,309.236823 328.671484,325.21599 332.496497,326.384466 C336.32151,327.552943 335.99194,292.588529 335.99194,292.588529 L320.012773,297.921576 Z" id="Path" fill="#000000" opacity="0.1"></path>
            <polygon id="Path" fill="#FFC1C7" points="335.322812 285.497773 336.001927 327.203398 382.431393 327.203398 378.935951 302.905078"></polygon>
            <path d="M346.148698,389.622018 L348.315872,402.934661 L375.450495,463.196094 C375.450495,463.196094 387.76444,482.171354 377.777461,498.150521 C367.790482,514.129687 357.473932,539.097135 355.806107,554.237396 C354.138281,569.377656 340.995417,584.198333 340.995417,584.198333 L369.628086,596.352487 C369.628086,596.352487 371.625482,572.553516 379.615065,561.39806 C387.604648,550.242604 413.231237,501.146615 413.231237,501.146615 C413.231237,501.146615 421.390599,493.816172 419.562982,472.014596 C417.735365,450.213021 417.895156,434.892995 417.895156,434.892995 L415.068841,400.108346 L346.148698,389.622018 Z" id="Path" fill="#575988"></path>
            <path d="M346.148698,389.622018 L348.315872,402.934661 L375.450495,463.196094 C375.450495,463.196094 387.76444,482.171354 377.777461,498.150521 C367.790482,514.129687 357.473932,539.097135 355.806107,554.237396 C354.138281,569.377656 340.995417,584.198333 340.995417,584.198333 L369.628086,596.352487 C369.628086,596.352487 371.625482,572.553516 379.615065,561.39806 C387.604648,550.242604 413.231237,501.146615 413.231237,501.146615 C413.231237,501.146615 421.390599,493.816172 419.562982,472.014596 C417.735365,450.213021 417.895156,434.892995 417.895156,434.892995 L415.068841,400.108346 L346.148698,389.622018 Z" id="Path" fill="#000000" opacity="0.1"></path>
            <path d="M343.482174,582.370716 C343.482174,582.370716 312.852109,591.688568 323.008867,607.008594 C333.165625,622.32862 366.122656,651.450651 379.435299,650.451953 C392.747943,649.453255 387.424883,639.626068 387.424883,639.626068 L376.269427,628.640391 C376.269427,628.640391 374.272031,605.340768 375.110937,598.519661 C375.949844,591.698555 365.623307,588.532682 364.285052,592.527474 C362.946797,596.522266 343.482174,582.370716 343.482174,582.370716 Z" id="Path" fill="#C4747B"></path>
            <path d="M362.787005,309.486497 L338.508659,312.172995 C334.011098,312.669673 330.643206,316.527992 330.758763,321.051419 C331.018424,330.758763 331.188203,346.198633 329.829974,349.014961 C327.832578,353.179531 321.680599,382.810898 348.305885,402.944648 L384.428789,414.429674 L326.50431,418.594245 L328.341914,450.722357 L337.330195,445.728867 L447.186966,450.722357 C447.186966,450.722357 478.31638,447.556484 457.173945,413.770534 C436.03151,379.984583 391.100091,346.857773 391.100091,346.857773 L390.600742,320.55207 L387.265091,312.902044 L362.787005,309.486497 Z" id="Path" fill="#575988"></path>
            <path d="M392.917721,413.920339 C400.877417,410.445119 409.925474,410.445119 417.885169,413.920339 L392.917721,413.920339 Z" id="Path" fill="#000000" opacity="0.1"></path>
            <path d="M329.340612,418.414479 C329.340612,418.414479 293.557266,413.261198 293.387487,420.082305 C293.217708,426.903411 298.380977,493.316823 315.52862,488.822682 C332.676263,484.328542 325.34582,462.357187 325.34582,462.357187 L338.169102,450.043242 C338.169102,450.043242 339.49737,443.222135 331.008437,443.881276 L329.340612,418.414479 Z" id="Path" fill="#C4747B"></path>
            <path d="M388.593359,232.157318 L402.734922,248.306263 C402.734922,248.306263 408.896888,255.966276 416.217344,244.311471 C423.537799,232.656667 437.19,211.853789 437.19,211.853789 C437.19,211.853789 452.340247,225.166432 456.335039,222.509896 C460.329831,219.853359 419.552995,277.947617 419.552995,277.947617 C419.552995,277.947617 406.569922,297.082669 387.255104,274.452174 L381.602474,271.785651 L388.593359,232.157318 Z" id="Path" fill="#FF5374"></path>
            <path d="M388.593359,232.157318 L402.734922,248.306263 C402.734922,248.306263 408.896888,255.966276 416.217344,244.311471 C423.537799,232.656667 437.19,211.853789 437.19,211.853789 C437.19,211.853789 452.340247,225.166432 456.335039,222.509896 C460.329831,219.853359 419.552995,277.947617 419.552995,277.947617 C419.552995,277.947617 406.569922,297.082669 387.255104,274.452174 L381.602474,271.785651 L388.593359,232.157318 Z" id="Path" fill="#000000" opacity="0.1"></path>
            <circle id="Oval" fill="#FFC1C7" cx="345.329766" cy="137.071289" r="29.4615885"></circle>
            <path d="M345.319779,152.930612 C345.319779,152.930612 320.002786,164.914987 322.99888,185.887643 C325.994974,206.860299 326.494323,233.325794 326.494323,233.325794 C326.494323,233.325794 337.989336,250.303659 322.749206,282.761341 C322.749206,282.761341 313.011901,299.239857 319.503437,311.224232 C319.503437,311.224232 326.704049,292.248971 345.319779,306.230742 C363.935508,320.212513 393.906432,326.704049 393.906432,326.704049 C393.906432,326.704049 378.426615,258.792591 387.914245,249.304961 C387.914245,249.304961 404.39276,224.836862 389.412292,209.357044 C374.431823,193.877227 381.922057,179.396107 381.922057,179.396107 L430.029336,153.59974 C430.029336,153.59974 440.176107,153.759531 453.828307,132.457305 C462.666667,118.844079 472.398724,105.832415 482.960326,93.5080859 C482.960326,93.5080859 472.633789,78.0282682 462.986367,76.8597917 C462.986367,76.8597917 459.151367,80.8545833 456.494831,91.6804688 C455.07668,97.4229818 445.439245,107.020469 436.720612,114.760378 C430.528685,120.253216 424.556471,125.955781 418.594245,131.738242 C414.18,135.982708 404.352812,142.054792 382.920755,145.490313 C347.646745,151.112982 345.319779,152.930612 345.319779,152.930612 Z" id="Path" fill="#000000" opacity="0.1"></path>
            <path d="M345.319779,150.933216 C345.319779,150.933216 320.002786,162.917591 322.99888,183.890247 C325.994974,204.862904 326.494323,231.328398 326.494323,231.328398 C326.494323,231.328398 337.989336,248.306263 322.749206,280.763945 C322.749206,280.763945 313.011901,297.242461 319.503437,309.226836 C319.503437,309.226836 326.704049,290.251576 345.319779,304.233346 C363.935508,318.215117 393.906432,324.706654 393.906432,324.706654 C393.906432,324.706654 378.426615,256.795195 387.914245,247.307565 C387.914245,247.307565 404.39276,222.839466 389.412292,207.359648 C374.431823,191.879831 381.922057,177.398711 381.922057,177.398711 L430.029336,151.602344 C430.029336,151.602344 440.176107,151.762135 453.828307,130.459909 C462.666667,116.846683 472.398724,103.835019 482.960326,91.5106901 C482.960326,91.5106901 472.633789,76.0308724 462.986367,74.8623958 C462.986367,74.8623958 459.151367,78.8571875 456.494831,89.6830729 C455.07668,95.4255859 445.439245,105.023073 436.720612,112.762982 C430.528685,118.25582 424.556471,123.958385 418.594245,129.740846 C414.18,133.985312 404.352812,140.057396 382.920755,143.492917 C347.646745,149.115586 345.319779,150.933216 345.319779,150.933216 Z" id="Path" fill="#FF5374"></path>
            <path d="M367.121354,276.439583 C367.121354,276.439583 386.755755,305.401823 387.255129,310.395312 C387.265091,310.395312 384.268997,279.265898 367.121354,276.439583 Z" id="Path" fill="#000000" opacity="0.1"></path>
            <path d="M341.324987,178.896758 C341.324987,178.896758 355.017135,195.375273 374.801341,181.563281 C363.750636,185.31559 351.642345,184.351117 341.324987,178.896758 Z" id="Path" fill="#000000" opacity="0.1"></path>
            <path d="M351.941146,106.261458 C351.582181,104.764747 350.838587,103.38772 349.783958,102.266667 C345.269844,96.6040495 340.366237,90.7916276 333.645,88.1051302 C324.487321,84.6837963 314.168914,87.6226599 308.18819,95.3556771 C305.771341,98.6114323 304.333216,102.48638 302.245937,105.971836 C298.390964,112.423424 292.428737,117.39694 286.017096,121.33181 C282.152135,123.698724 278.077448,125.746055 274.432201,128.432552 C261.179479,138.189831 255.057461,156.226315 258.393112,172.37526 C259.861198,179.446042 262.967148,186.416953 262.128242,193.597591 C261.479089,199.170326 258.512956,204.163815 255.506875,208.897643 C252.500794,213.631471 249.294974,218.425221 248.096536,223.878112 C246.898099,229.331003 248.156458,235.792578 252.68056,239.098268 C254.348385,240.31668 256.355768,241.095664 257.783906,242.553763 C258.729014,243.688772 259.518304,244.944919 260.130846,246.288893 C264.938775,255.158761 273.184259,261.659799 282.93112,264.265456 C287.225521,265.393984 292.988008,264.984518 294.555964,260.829935 C294.735993,260.096316 295.007784,259.388317 295.364909,258.722682 C296.78306,256.725286 299.908984,257.843828 302.10612,258.992331 C307.107896,261.607022 312.588034,263.180056 318.215117,263.616302 C320.446929,263.910627 322.716921,263.639326 324.81651,262.827331 C326.589211,261.927133 328.114916,260.607141 329.260716,258.982344 C334.513867,252.141263 336.021901,243.202917 336.920729,234.624102 C337.509961,229.04138 337.919427,223.358789 336.85082,217.845977 C335.153034,208.997513 329.770052,200.728294 330.56901,191.759987 C331.417904,182.172487 339.19776,174.332708 340.386211,164.795143 C340.990321,159.801558 339.743189,154.759736 336.880781,150.62362 C335.824564,149.346386 334.929033,147.944394 334.214258,146.449062 C333.516783,144.90161 333.833354,143.085287 335.013216,141.865039 C335.645621,141.419499 336.34759,141.082014 337.090508,140.866341 C343.512135,138.399557 346.937669,131.967943 347.39707,125.386523 C347.576836,122.889779 347.39707,120.592773 348.086172,118.155951 C349.18474,114.390859 352.510404,110.276224 351.941146,106.261458 Z" id="Path" fill="#000000" opacity="0.1"></path>
            <path d="M349.94375,106.261458 C349.584785,104.764747 348.841191,103.38772 347.786563,102.266667 C343.272448,96.6040495 338.368841,90.7916276 331.647604,88.1051302 C322.489925,84.6837963 312.171518,87.6226599 306.190794,95.3556771 C303.773945,98.6114323 302.33582,102.48638 300.248542,105.971836 C296.393568,112.423424 290.431341,117.39694 284.019701,121.33181 C280.15474,123.698724 276.080052,125.746055 272.434805,128.432552 C259.182083,138.189831 253.060065,156.226315 256.395716,172.37526 C257.863802,179.446042 260.969753,186.416953 260.130846,193.597591 C259.481693,199.170326 256.51556,204.163815 253.509479,208.897643 C250.503398,213.631471 247.297578,218.425221 246.099141,223.878112 C244.900703,229.331003 246.159062,235.792578 250.683164,239.098268 C252.35099,240.31668 254.358372,241.095664 255.78651,242.553763 C256.731618,243.688772 257.520908,244.944919 258.133451,246.288893 C262.94138,255.158761 271.186863,261.659799 280.933724,264.265456 C285.228125,265.393984 290.990612,264.984518 292.558568,260.829935 C292.738597,260.096316 293.010388,259.388317 293.367513,258.722682 C294.785664,256.725286 297.911589,257.843828 300.108724,258.992331 C305.1105,261.607022 310.590639,263.180056 316.217721,263.616302 C318.449533,263.910627 320.719525,263.639326 322.819115,262.827331 C324.591815,261.927133 326.11752,260.607141 327.26332,258.982344 C332.516471,252.141263 334.024505,243.202917 334.923333,234.624102 C335.512565,229.04138 335.922031,223.358789 334.853424,217.845977 C333.155638,208.997513 327.772656,200.728294 328.571615,191.759987 C329.420508,182.172487 337.200365,174.332708 338.388815,164.795143 C338.992925,159.801558 337.745794,154.759736 334.883385,150.62362 C333.827168,149.346386 332.931637,147.944394 332.216862,146.449062 C331.519388,144.90161 331.835958,143.085287 333.01582,141.865039 C333.648225,141.419499 334.350194,141.082014 335.093112,140.866341 C341.51474,138.399557 344.940273,131.967943 345.399674,125.386523 C345.57944,122.889779 345.399674,120.592773 346.088776,118.155951 C347.187344,114.390859 350.513008,110.276224 349.94375,106.261458 Z" id="Path" fill="#BB7684"></path>
            <g id="Group" opacity="0.1" transform="translate(282.631510, 85.888021)" fill="#000000">
                <path d="M7.75988281,172.784727 C7.40327978,173.451712 7.12832169,174.159226 6.94095052,174.891979 C6.01216146,177.36875 3.58532552,178.507266 0.878854167,178.786901 C4.64394531,179.166406 8.66869792,178.257591 9.93704427,174.891979 C10.1244154,174.159226 10.3993735,173.451712 10.7559766,172.784727 C11.007335,172.41787 11.3521156,172.124807 11.7546745,171.935833 C10.2366536,171.496406 8.6786849,171.51638 7.75988281,172.784727 Z" id="Path"></path>
                <path d="M67.3621745,20.3634505 C67.0130536,18.8629933 66.2681463,17.4835353 65.204987,16.3686589 C60.6908724,10.7060417 55.7872656,4.89361979 49.0660286,2.2071224 C46.1449068,1.06659088 43.005202,0.595635169 39.8780078,0.828919271 C42.0012357,0.962539097 44.0904803,1.42756452 46.0699349,2.2071224 C52.7911719,4.89361979 57.6947786,10.7060417 62.2088932,16.3686589 C63.2720525,17.4835353 64.0169599,18.8629933 64.3660807,20.3634505 C64.9353385,24.3582422 61.6196615,28.5028385 60.5210938,32.1980208 C59.7920443,34.6348437 60.0017708,36.921862 59.8319922,39.4285937 C59.3626042,46.000026 55.9470573,52.4116667 49.5154427,54.9084115 C48.772525,55.1240845 48.0705559,55.4615696 47.438151,55.9071094 C46.2573746,57.1314636 45.944551,58.9529678 46.6491797,60.5011198 C47.3603912,61.9961802 48.2525863,63.3982011 49.3057161,64.6756771 C52.1709551,68.806977 53.4217195,73.8455676 52.8211328,78.8372135 C51.6226953,88.3947526 43.8328516,96.2245443 42.9939453,105.802057 C42.194987,114.790339 47.5879557,123.039583 49.2757552,131.87806 C50.334375,137.390872 49.9348958,143.073464 49.3456641,148.656185 C48.4468359,157.235 46.9487891,166.183333 41.685651,173.014427 C40.5438667,174.639076 39.0214081,175.959225 37.2514323,176.859414 C36.2168077,177.312911 35.1123686,177.586488 33.9856901,177.668359 C36.1077501,177.921012 38.2593414,177.643056 40.247526,176.859414 C42.0205762,175.983021 43.552966,174.687175 44.7117057,173.084336 C49.9748437,166.253242 51.4728906,157.304909 52.3717188,148.726094 C52.9609505,143.143372 53.3704167,137.460781 52.3018099,131.947969 C50.6140104,123.109492 45.2210417,114.830286 46.02,105.871966 C46.8788802,96.2744792 54.64875,88.4446875 55.8471875,78.9071224 C56.4477742,73.9154765 55.1970098,68.8768858 52.3317708,64.7455859 C51.278641,63.46811 50.3864458,62.066089 49.6752344,60.5710286 C48.9706057,59.0228766 49.2834293,57.2013724 50.4642057,55.9770182 C51.0966105,55.5314785 51.7985797,55.1939933 52.5414974,54.9783203 C58.973112,52.5015495 62.3886589,46.0699349 62.8580469,39.4985026 C63.0278255,36.9917708 62.8580469,34.7047526 63.5471484,32.2679297 C64.6157552,28.5028385 67.9314323,24.3882031 67.3621745,20.3634505 Z" id="Path"></path>
            </g>
            <path d="M312.182982,458.71194 C315.675522,462.525304 321.040306,464.007117 325.994974,462.526966" id="Path" fill="#000000" opacity="0.1"></path>
            <path d="M376.179544,629.489284 C374.247824,631.049659 371.729175,631.684797 369.288529,631.227018" id="Path" fill="#000000" opacity="0.1"></path>
            <ellipse id="Oval" fill="#281FB5" opacity="0.1" cx="106.011784" cy="655.944792" rx="26.8949349" ry="4.54407552"></ellipse>
            <ellipse id="Oval" fill="#281FB5" cx="842.331784" cy="746.426823" rx="26.8949349" ry="4.54407552"></ellipse>
            <ellipse id="Oval" fill="#281FB5" opacity="0.1" cx="842.331784" cy="658.960859" rx="26.8949349" ry="4.54407552"></ellipse>
            <ellipse id="Oval" fill="#281FB5" opacity="0.1" cx="182.272357" cy="698.139779" rx="26.8949349" ry="4.54407552"></ellipse>
            <ellipse id="Oval" fill="#281FB5" cx="927.390885" cy="698.139779" rx="40.1576432" ry="6.79114583"></ellipse>
            <ellipse id="Oval" fill="#281FB5" opacity="0.1" cx="350.003672" cy="751.300469" rx="90.6418229" ry="15.320026"></ellipse>
            <path d="M943.989245,687.034258 C945.822167,685.538257 947.15916,683.522323 947.824245,681.251797 C948.313607,678.954792 947.334883,676.208372 945.147734,675.369466 C942.690937,674.43069 940.064362,676.128477 938.076953,677.856224 C936.089544,679.583971 933.802526,681.531432 931.195924,681.171901 C933.922826,678.702725 935.151608,674.982245 934.431706,671.374674 C934.318548,670.639752 934.007877,669.949373 933.532878,669.377279 C932.164661,667.91918 929.697878,668.548359 928.060013,669.696862 C922.866784,673.352096 921.418672,680.402904 921.388711,686.754622 C920.869388,684.467604 921.308815,682.080716 921.298828,679.763737 C921.288841,677.446758 920.639687,674.770247 918.662266,673.541849 C917.439609,672.868659 916.063084,672.524527 914.667474,672.543151 C912.330521,672.463255 909.733906,672.692956 908.13599,674.400729 C906.138594,676.527956 906.667904,680.08332 908.395651,682.390313 C910.123398,684.697305 912.739987,686.185365 915.146849,687.803255 C917.083856,688.954828 918.736106,690.528561 919.980547,692.407253 C920.124265,692.669114 920.244576,692.943156 920.340078,693.226185 L934.971003,693.226185 C938.242171,691.577683 941.275677,689.494877 943.989245,687.034258 Z" id="Path" fill="#281FB5"></path>
            <path d="M858.94013,735.56099 C860.770302,734.064433 862.103924,732.04833 862.765143,729.778529 C863.254505,727.481523 862.285768,724.785039 860.088633,723.896198 C857.631836,722.957422 855.00526,724.655208 853.017852,726.382956 C851.030443,728.110703 848.743424,730.058164 846.136823,729.698633 C848.863724,727.229456 850.092506,723.508976 849.372604,719.901406 C849.264937,719.16487 848.953625,718.473065 848.473776,717.90401 C847.115547,716.445911 844.638776,717.075091 843.010898,718.223594 C837.817669,721.878828 836.369557,728.929635 836.339596,735.281354 C835.810286,732.994336 836.249714,730.607448 836.239727,728.290469 C836.22974,725.97349 835.580586,723.296979 833.603164,722.068581 C832.376954,721.409725 830.999883,721.08267 829.608372,721.119818 C827.271419,721.039922 824.674805,721.269622 823.076888,722.977396 C821.079492,725.104622 821.608802,728.659987 823.336549,730.966979 C825.064297,733.273971 827.680885,734.762031 830.097734,736.379922 C832.031116,737.532692 833.679861,739.106339 834.921445,740.983919 C835.065164,741.24578 835.185475,741.519822 835.280977,741.802852 L849.911901,741.802852 C853.187796,740.136828 856.22448,738.037351 858.94013,735.56099 Z" id="Path" fill="#281FB5"></path>
            <path d="M212.732643,645.468451 C212.732643,645.468451 198.700937,597.820573 215.369206,562.756289 C222.466979,548.087111 224.61178,531.510465 221.481237,515.517878 C219.936634,507.94204 217.700163,500.523908 214.799948,493.356771" id="Path" stroke="#535461" stroke-width="2"></path>
            <path d="M225.136471,471.195664 C225.136471,477.038047 214.56026,493.965977 214.56026,493.965977 C214.56026,493.965977 203.994036,477.038047 203.994036,471.195664 C203.875557,467.341451 205.864106,463.728207 209.183605,461.766084 C212.503103,459.803962 216.627404,459.803962 219.946903,461.766084 C223.266402,463.728207 225.25495,467.341451 225.136471,471.195664 Z" id="Path" fill="#281FB5"></path>
            <path d="M242.613685,503.54349 C239.437826,508.437109 221.361393,516.906068 221.361393,516.906068 C221.361393,516.906068 221.690964,496.932109 224.866823,492.048477 C228.111745,487.328526 234.524364,486.049493 239.331784,489.16336 C244.139204,492.277226 245.594139,498.652238 242.613685,503.54349 Z" id="Path" fill="#281FB5"></path>
            <path d="M241.854674,558.811432 C236.641471,561.447995 216.757396,559.630365 216.757396,559.630365 C216.757396,559.630365 227.113893,542.562617 232.327096,539.936042 C237.507864,537.505288 243.682336,539.636254 246.261034,544.744995 C248.839732,549.853737 246.887165,556.086922 241.854674,558.811432 Z" id="Path" fill="#281FB5"></path>
            <path d="M231.857708,600.527044 C227.163828,603.992526 207.259779,605.520534 207.259779,605.520534 C207.259779,605.520534 214.590221,586.944753 219.244154,583.469284 C223.935224,580.340117 230.256295,581.441706 233.612311,585.973261 C236.968326,590.504815 236.178839,596.872401 231.81776,600.447148 L231.857708,600.527044 Z" id="Path" fill="#281FB5"></path>
            <path d="M199.160339,518.044583 C203.35487,522.109284 222.85944,526.323789 222.85944,526.323789 C222.85944,526.323789 218.085664,506.939062 213.871159,502.874362 C209.655377,498.985298 203.108025,499.165345 199.112346,503.280218 C195.116666,507.39509 195.129096,513.944906 199.140365,518.044583 L199.160339,518.044583 Z" id="Path" fill="#281FB5"></path>
            <path d="M188.094766,566.95082 C193.307969,569.577396 213.182057,567.759766 213.182057,567.759766 C213.182057,567.759766 202.82556,550.692018 197.612357,548.065443 C192.419322,545.578697 186.191147,547.702911 183.599908,552.844604 C181.00867,557.986296 183.006518,564.256148 188.094766,566.95082 Z" id="Path" fill="#281FB5"></path>
            <path d="M183.850299,615.956927 C188.54418,619.432396 208.448229,620.950417 208.448229,620.950417 C208.448229,620.950417 201.117786,602.374635 196.463854,598.909154 C191.772784,595.779986 185.451713,596.881576 182.095697,601.413131 C178.739681,605.944685 179.529169,612.312271 183.890247,615.887018 L183.850299,615.956927 Z" id="Path" fill="#281FB5"></path>
            <path d="M179.535924,642.472357 C179.535924,642.472357 196.623646,639.076784 201.187695,634.552682 C205.751745,630.028581 226.245026,622.118893 228.522057,627.771523 C230.799089,633.424154 259.281953,652.649089 239.917201,656.044661 C220.552448,659.440234 194.346615,660.568763 188.654036,658.311706 C182.961458,656.054648 179.535924,642.472357 179.535924,642.472357 Z" id="Path" fill="#A8A8A8"></path>
            <path d="M239.947161,653.917435 C220.582409,657.313008 194.376576,658.441536 188.683997,656.174492 C184.339661,654.456732 181.323594,646.187513 180.135143,642.322552 L179.535924,642.472357 C179.535924,642.472357 182.951471,656.044661 188.654036,658.311706 C194.356602,660.57875 220.552448,659.440234 239.917201,656.044661 C245.509909,655.045964 247.107826,652.768932 246.508607,649.852734 C246.059193,651.720299 244.111732,653.188385 239.947161,653.917435 Z" id="Path" fill="#000000" opacity="0.2"></path>
            <path d="M847.834609,593.446276 C847.834609,593.446276 853.327448,600.626914 845.307904,611.422839 C837.288359,622.218763 830.676979,631.396797 833.323529,638.157982 C833.323529,638.157982 845.427747,618.034219 855.294883,617.754583 C865.162018,617.474948 858.650508,605.520534 847.834609,593.446276 Z" id="Path" fill="#281FB5"></path>
            <path d="M847.834609,593.446276 C848.315051,594.141817 848.694971,594.901656 848.963138,595.703333 C858.570612,606.98862 863.683945,617.524883 854.44599,617.784544 C845.847201,618.034219 835.530651,633.414167 833.05388,637.299102 C833.135342,637.600085 833.232007,637.896746 833.343503,638.187943 C833.343503,638.187943 845.447721,618.06418 855.314857,617.784544 C865.181992,617.504909 858.650508,605.520534 847.834609,593.446276 Z" id="Path" fill="#000000" opacity="0.1"></path>
            <path d="M858.041302,602.594349 C858.041302,605.121055 857.75168,607.168385 857.402135,607.168385 C857.052591,607.168385 856.772956,605.17099 856.772956,602.594349 C856.772956,600.017708 857.1225,601.256094 857.472044,601.256094 C857.821589,601.256094 858.041302,600.067643 858.041302,602.594349 Z" id="Path" fill="#FFD037"></path>
            <path d="M861.536745,605.610417 C859.319635,606.818841 857.382161,607.547891 857.22237,607.238294 C857.062578,606.928698 858.71043,605.710286 860.927539,604.501862 C863.144648,603.293437 862.275781,604.172292 862.44556,604.501862 C862.615339,604.831432 863.753854,604.401992 861.536745,605.610417 Z" id="Path" fill="#FFD037"></path>
            <path d="M818.862383,593.446276 C818.862383,593.446276 813.369544,600.626914 821.389089,611.422839 C829.408633,622.218763 836.020013,631.396797 833.373464,638.157982 C833.373464,638.157982 821.279232,618.034219 811.402109,617.754583 C801.524987,617.474948 808.02651,605.520534 818.862383,593.446276 Z" id="Path" fill="#281FB5"></path>
            <path d="M818.862383,593.446276 C818.381941,594.141817 818.002022,594.901656 817.733854,595.703333 C808.12638,606.98862 803.013047,617.524883 812.251003,617.784544 C820.849792,618.034219 831.166341,633.414167 833.643112,637.299102 C833.562803,637.60162 833.462718,637.898539 833.343503,638.187943 C833.343503,638.187943 821.249271,618.06418 811.372148,617.784544 C801.495026,617.504909 808.02651,605.520534 818.862383,593.446276 Z" id="Path" fill="#000000" opacity="0.1"></path>
            <path d="M808.65569,602.594349 C808.65569,605.121055 808.945312,607.168385 809.294857,607.168385 C809.644401,607.168385 809.924036,605.17099 809.924036,602.594349 C809.924036,600.017708 809.574492,601.256094 809.224948,601.256094 C808.875404,601.256094 808.65569,600.067643 808.65569,602.594349 Z" id="Path" fill="#FFD037"></path>
            <path d="M805.160247,605.610417 C807.377357,606.818841 809.304844,607.547891 809.474622,607.238294 C809.644401,606.928698 807.986562,605.710286 805.769453,604.501862 C803.552344,603.293437 804.421211,604.172292 804.251432,604.501862 C804.081654,604.831432 802.943138,604.401992 805.160247,605.610417 Z" id="Path" fill="#FFD037"></path>
            <path d="M810.403411,637.249167 C810.403411,637.249167 825.743411,636.769792 830.37737,633.484076 C835.011328,630.198359 853.976602,626.26349 855.125104,631.48668 C856.273607,636.70987 878.175052,657.742448 860.85763,657.882266 C843.540208,658.022083 820.620091,655.185781 816.006107,652.37944 C811.392122,649.573099 810.403411,637.249167 810.403411,637.249167 Z" id="Path" fill="#A8A8A8"></path>
            <path d="M861.15724,656.094596 C843.839818,656.234414 820.919701,653.398112 816.305716,650.591771 C812.790299,648.454557 811.382135,640.77457 810.922734,637.229193 L810.403411,637.229193 C810.403411,637.229193 811.402109,649.60306 815.99612,652.409401 C820.59013,655.215742 843.530221,658.052044 860.847643,657.912227 C865.841133,657.912227 867.56888,656.094596 867.478997,653.468021 C866.779909,655.075924 864.872396,656.064635 861.15724,656.094596 Z" id="Path" fill="#000000" opacity="0.2"></path>
        </g>
    </g>
</svg>