<?xml version="1.0" encoding="UTF-8"?>
<svg width="1114px" height="790px" viewBox="0 0 1114 790" version="1.1" xmlns="http://www.w3.org/2000/svg" xmlns:xlink="http://www.w3.org/1999/xlink">
    <!-- Generator: Sketch 52.1 (67048) - http://www.bohemiancoding.com/sketch -->
    <title>static/content/mission/segmentation</title>
    <desc>Created with Sketch.</desc>
    <defs>
        <linearGradient x1="50%" y1="100%" x2="50%" y2="1.47409601e-06%" id="linearGradient-1">
            <stop stop-color="#808080" stop-opacity="0.25" offset="0%"></stop>
            <stop stop-color="#808080" stop-opacity="0.12" offset="54%"></stop>
            <stop stop-color="#808080" stop-opacity="0.1" offset="100%"></stop>
        </linearGradient>
        <linearGradient x1="49.9999942%" y1="100.007692%" x2="49.9999942%" y2="0.00769230769%" id="linearGradient-2">
            <stop stop-color="#808080" stop-opacity="0.25" offset="0%"></stop>
            <stop stop-color="#808080" stop-opacity="0.12" offset="54%"></stop>
            <stop stop-color="#808080" stop-opacity="0.1" offset="100%"></stop>
        </linearGradient>
        <linearGradient x1="50.0149527%" y1="99.9949563%" x2="50.0149527%" y2="0.00359698464%" id="linearGradient-3">
            <stop stop-color="#808080" stop-opacity="0.25" offset="0%"></stop>
            <stop stop-color="#808080" stop-opacity="0.12" offset="54%"></stop>
            <stop stop-color="#808080" stop-opacity="0.1" offset="100%"></stop>
        </linearGradient>
    </defs>
    <g id="static/content/mission/segmentation" stroke="none" stroke-width="1" fill="none" fill-rule="evenodd">
        <g id="undraw_segmentation_uioo-2">
            <path d="M138.32,583.26 C133.78,592.47 140.32,602.41 138.03,611.92 C135.19,623.92 118.9,633.26 101.35,639.22 C83.8,645.18 64.2,648.8 47.09,655.22 C39.69,657.99 31.98,663.1 35.83,667.8 C37.16,669.43 39.66,670.57 42.09,671.64 C91.91,693.4 153.5,705.22 215.09,704.84 C280.17,704.43 343.91,690.84 408.94,692.4 C492.82,694.4 573.94,721.46 656.87,713.66 C692.08,710.35 724.79,700.91 759.06,695.02 C809.48,686.35 862.51,685.48 914.72,682.63 C953.93,680.49 998.72,674.94 1017.47,654.08 C1031.01,639 1025.33,619.08 1006.25,606.31 C987.17,593.54 956.69,588.08 928.52,590.56 C913.38,591.89 898.33,595.34 883.2,593.97 C874.41,593.17 866.27,590.79 858.28,588.45 C796.28,570.25 731.99,552.09 663.13,549.45 C551.08,545.12 447.32,582 338.21,597.95 C321.21,600.43 302.77,602.34 286.72,598.18 C269.8,593.79 258.72,583.42 241.79,579.05 C233.79,576.97 224.79,576.37 216.88,574.11 C195.15,567.89 205.21,559.34 175.1,565.11 C159.3,568.12 143.39,572.98 138.32,583.26 Z" id="Path" fill="#281FB5" opacity="0.1"></path>
            <path d="M716.32,276.08 C716.32,276.08 790.8,159 799.8,109 C808.8,59 825.8,13 825.8,13" id="Path" stroke="#535461" stroke-width="2"></path>
            <path d="M842.8,113 L795.8,117 C795.8,117 820.8,160 842.8,113 Z" id="Path" fill="#281FB5"></path>
            <path d="M760.8,87 L798.02,116.81 C798.02,116.81 749.8,136 760.8,87 Z" id="Path" fill="#281FB5"></path>
            <path d="M848.8,72 L806.48,77.67 C806.48,77.67 843.8,108 848.8,72 Z" id="Path" fill="#281FB5"></path>
            <path d="M778.8,57 L806.74,76.61 C806.74,76.61 772.8,91 778.8,57 Z" id="Path" fill="#281FB5"></path>
            <path d="M817.11,39.19 C817.11,39.19 851.8,30 856.8,32 C861.8,34 858.8,56 844.8,57 C830.8,58 817.11,39.19 817.11,39.19 Z" id="Path" fill="#281FB5"></path>
            <path d="M793.8,13 C793.8,13 815.8,34 816.8,39 C817.8,44 798.8,56 788.8,39 C778.8,22 793.8,13 793.8,13 Z" id="Path" fill="#281FB5"></path>
            <circle id="Oval" fill="#FFD037" cx="834.8" cy="15" r="10"></circle>
            <circle id="Oval" fill="#FFD037" cx="816.8" cy="10" r="10"></circle>
            <path d="M163.06,618.56 C163.06,618.56 131.24,535.04 156.25,469.81 C166.75,442.43 168.61,412.47 160.59,384.26 C156.757786,370.896841 151.710048,357.912639 145.51,345.47" id="Path" stroke="#535461" stroke-width="2"></path>
            <path d="M161.02,304.23 C161.83,314.71 145.23,346.56 145.23,346.56 C145.23,346.56 123.9,317.66 123.09,307.18 C122.27538,296.703158 130.108158,287.54962 140.585,286.735 C151.061842,285.92038 160.21538,293.753158 161.03,304.23 L161.02,304.23 Z" id="Path" fill="#281FB5"></path>
            <path d="M196.88,359.82 C191.88,369.06 160.62,386.77 160.62,386.77 C160.62,386.77 158.43,350.92 163.44,341.68 C168.449223,332.443038 179.998037,329.015778 189.235,334.025001 C198.471962,339.034223 201.899222,350.583038 196.89,359.82 L196.88,359.82 Z" id="Path" fill="#281FB5"></path>
            <path d="M203.22,459.08 C194.22,464.52 158.32,464.08 158.32,464.08 C158.32,464.08 174.53,432.02 183.51,426.58 C192.498434,421.137234 204.197234,424.011566 209.64,433 C215.082766,441.988434 212.208434,453.687234 203.22,459.13 L203.22,459.08 Z" id="Path" fill="#281FB5"></path>
            <path d="M191.1,535.27 C183.16,542.15 147.68,547.74 147.68,547.74 C147.68,547.74 158.24,513.4 166.17,506.52 C171.305693,502.066684 178.427084,500.691511 184.851615,502.912493 C191.276146,505.133476 196.027777,510.613195 197.316615,517.287493 C198.605453,523.961792 196.235693,530.816684 191.1,535.27 Z" id="Path" fill="#281FB5"></path>
            <path d="M120.95,391.89 C129.03,398.61 164.62,403.45 164.62,403.45 C164.62,403.45 153.35,369.34 145.26,362.63 C137.180074,355.914218 125.185783,357.020075 118.470001,365.100001 C111.754218,373.179926 112.860075,385.174217 120.94,391.89 L120.95,391.89 Z" id="Path" fill="#281FB5"></path>
            <path d="M107.91,481.17 C117.63,485.17 153.04,479.17 153.04,479.17 C153.04,479.17 132.04,450 122.36,446.01 C116.072126,443.428756 108.884813,444.398129 103.505453,448.552966 C98.1260929,452.707803 95.3719385,459.416886 96.2804529,466.152966 C97.1889673,472.889047 101.622126,478.628756 107.91,481.21 L107.91,481.17 Z" id="Path" fill="#281FB5"></path>
            <path d="M107.14,569.68 C116.05,575.25 151.97,575.3 151.97,575.3 C151.97,575.3 136.23,543 127.33,537.47 C118.424408,531.894686 106.685315,534.59441 101.110001,543.500001 C95.5346868,552.405592 98.2344092,564.144685 107.14,569.72 L107.14,569.68 Z" id="Path" fill="#281FB5"></path>
            <path d="M161.02,304.23 C161.83,314.71 145.23,346.56 145.23,346.56 C145.23,346.56 123.9,317.66 123.09,307.18 C122.27538,296.703158 130.108158,287.54962 140.585,286.735 C151.061842,285.92038 160.21538,293.753158 161.03,304.23 L161.02,304.23 Z" id="Path" fill="#281FB5"></path>
            <path d="M196.88,359.82 C191.88,369.06 160.62,386.77 160.62,386.77 C160.62,386.77 158.43,350.92 163.44,341.68 C168.449223,332.443038 179.998037,329.015778 189.235,334.025001 C198.471962,339.034223 201.899222,350.583038 196.89,359.82 L196.88,359.82 Z" id="Path" fill="#281FB5"></path>
            <path d="M203.22,459.08 C194.22,464.52 158.32,464.08 158.32,464.08 C158.32,464.08 174.53,432.02 183.51,426.58 C192.498434,421.137234 204.197234,424.011566 209.64,433 C215.082766,441.988434 212.208434,453.687234 203.22,459.13 L203.22,459.08 Z" id="Path" fill="#281FB5"></path>
            <path d="M191.1,535.27 C183.16,542.15 147.68,547.74 147.68,547.74 C147.68,547.74 158.24,513.4 166.17,506.52 C171.305693,502.066684 178.427084,500.691511 184.851615,502.912493 C191.276146,505.133476 196.027777,510.613195 197.316615,517.287493 C198.605453,523.961792 196.235693,530.816684 191.1,535.27 Z" id="Path" fill="#281FB5"></path>
            <path d="M120.95,391.89 C129.03,398.61 164.62,403.45 164.62,403.45 C164.62,403.45 153.35,369.34 145.26,362.63 C137.180074,355.914218 125.185783,357.020075 118.470001,365.100001 C111.754218,373.179926 112.860075,385.174217 120.94,391.89 L120.95,391.89 Z" id="Path" fill="#281FB5"></path>
            <path d="M107.91,481.17 C117.63,485.17 153.04,479.17 153.04,479.17 C153.04,479.17 132.04,450 122.36,446.01 C116.072126,443.428756 108.884813,444.398129 103.505453,448.552966 C98.1260929,452.707803 95.3719385,459.416886 96.2804529,466.152966 C97.1889673,472.889047 101.622126,478.628756 107.91,481.21 L107.91,481.17 Z" id="Path" fill="#281FB5"></path>
            <path d="M107.14,569.68 C116.05,575.25 151.97,575.3 151.97,575.3 C151.97,575.3 136.23,543 127.33,537.47 C118.424408,531.894686 106.685315,534.59441 101.110001,543.500001 C95.5346868,552.405592 98.2344092,564.144685 107.14,569.72 L107.14,569.68 Z" id="Path" fill="#281FB5"></path>
            <path d="M225.8,603.52 C225.8,603.52 201.66,600.61 194.8,594.77 C187.94,588.93 158.59,580.05 156.03,588.22 C153.47,596.39 115.96,626.4 143.26,629.07 C170.56,631.74 207.17,630.47 214.8,626.69 C222.43,622.91 225.8,603.52 225.8,603.52 Z" id="Path" fill="#A8A8A8"></path>
            <path d="M143.07,626.12 C170.38,628.78 206.94,627.53 214.62,623.75 C220.47,620.87 223.76,608.95 225,603.42 L225.81,603.52 C225.81,603.52 222.53,622.9 214.81,626.69 C207.09,630.48 170.57,631.69 143.26,629.06 C135.38,628.29 132.9,625.24 133.42,621.06 C134.33,623.71 137.2,625.55 143.07,626.12 Z" id="Path" fill="#000000" opacity="0.2"></path>
            <path d="M1047,461.75 C1007.8,515.47 1020.8,592.15 1043.4,653.24 C1050.98,673.69 1059.59,695.32 1055.66,717.57 C1050.86,744.77 1028.3,765.15 1004.85,776.25 C962.1,796.48 911.6,793.25 873.36,767.76 C840.36,745.76 817.13,709.2 783.49,688.25 C727.19,653.2 654.1,668.86 591.44,695.62 C547.11,714.55 498.55,738.93 455.35,721.45 C424.95,709.15 404.48,677.84 393.71,644.37 C388.51,628.21 384.87,610.67 374.51,598.02 C368.35,590.5 360.21,585.26 351.84,580.88 C275.45,540.88 177.19,565.88 103.13,521.25 C53.13,491.11 22.01,432.62 9.08,371.13 C-3.85,309.64 -0.65,244.73 4.5,180.93 C8.16,135.59 13.95,87.14 41.21,51.51 C70.04,13.83 118.36,-1.15 161.57,4.76 C204.78,10.67 243.51,34.7 277.41,63.3 C319.8,99.06 358.8,143.93 411.52,157.47 C447.43,166.71 485.58,160.17 522.91,157.28 C585.31,152.46 647.49,158.01 709.29,164.28 C768.45,170.28 828.02,176.98 884.05,196.65 C923.7,210.57 955.13,236.88 992.46,254.86 C1016.79,266.58 1043.56,269.3 1066.46,284.44 C1094.72,303.09 1120.26,336.13 1111.97,375.78 C1104.14,413.47 1067.8,433.24 1047,461.75 Z" id="Path" fill="#281FB5" opacity="0.1"></path>
            <path d="M861.25,81.47 L208.35,81.47 C194.25407,81.4589476 182.81656,92.8740752 182.8,106.97 L182.8,487.47 C182.81656,501.565925 194.25407,512.981052 208.35,512.97 L471.27,512.97 L471.27,606.74 L446.53,606.74 C443.164964,606.739995 440.435516,609.464969 440.43,612.83 L440.43,625.47 L632.31,625.47 L632.31,612.81 C632.304484,609.444969 629.575036,606.719995 626.21,606.72 L594.62,606.72 L594.62,512.94 L861.25,512.94 C875.334237,512.951072 886.766904,501.554203 886.8,487.47 L886.8,106.97 C886.78344,92.8740752 875.34593,81.4589476 861.25,81.47 Z" id="Path" fill="url(#linearGradient-1)"></path>
            <rect id="Rectangle" fill="#474059" x="472.88" y="495.18" width="121.27" height="117.02"></rect>
            <rect id="Rectangle" fill="#000000" opacity="0.1" x="472.88" y="601.82" width="121.27" height="10.38"></rect>
            <path d="M448.56,603 L625.21,603 C628.523708,603 631.21,605.686292 631.21,609 L631.21,621.48 L442.56,621.48 L442.56,609 C442.56,605.686292 445.246292,603 448.56,603 Z" id="Path" fill="#474059"></path>
            <rect id="Rectangle" fill="#474059" x="189.27" y="85.47" width="692.15" height="425.1" rx="25.12"></rect>
            <rect id="Rectangle" fill="#FFFFFF" x="203.84" y="135.12" width="661.55" height="347.28"></rect>
            <ellipse id="Oval" fill="#FFFFFF" cx="534.62" cy="117.18" rx="5.83" ry="5.76"></ellipse>
            <rect id="Rectangle" fill="#000000" opacity="0.1" x="473.14" y="510.86" width="120.89" height="2.28"></rect>
            <path d="M574.74,216.22 C535.391124,248.812321 517.270506,300.478493 527.641551,350.508832 C538.012596,400.539172 575.177802,440.744863 624.24,455.01 L662.8,322.47 L574.74,216.22 Z" id="Path" fill="#D6D6E3"></path>
            <path d="M665.8,184.47 C633.635666,184.422385 602.473506,195.657891 577.74,216.22 L665.8,322.47 L738.72,205.3 C716.850067,191.650414 691.579909,184.431854 665.8,184.47 Z" id="Path" fill="#D6D6E3"></path>
            <path d="M665.8,322.47 L627.24,455 C668.526984,466.98809 713.042078,459.061217 747.652905,433.557884 C782.263732,408.05455 803.020587,367.885135 803.8,324.9 L665.8,322.47 Z" id="Path" fill="#8499F0"></path>
            <rect id="Rectangle" fill="#8499F0" x="262.8" y="255.47" width="50" height="30"></rect>
            <rect id="Rectangle" fill="#FC6681" x="262.8" y="307.47" width="50" height="30"></rect>
            <rect id="Rectangle" fill="#281FB5" x="262.8" y="359.47" width="50" height="30"></rect>
            <rect id="Rectangle" fill="#D6D6E3" x="339.8" y="264.47" width="94" height="12"></rect>
            <rect id="Rectangle" fill="#D6D6E3" x="339.8" y="316.47" width="94" height="12"></rect>
            <rect id="Rectangle" fill="#D6D6E3" x="339.8" y="368.47" width="94" height="12"></rect>
            <rect id="Rectangle" fill="#D6D6E3" x="203.8" y="134.47" width="662" height="12"></rect>
            <circle id="Oval" fill="#FC6681" cx="211.8" cy="140.47" r="3"></circle>
            <circle id="Oval" fill="#FFC74C" cx="219.8" cy="140.47" r="3"></circle>
            <circle id="Oval" fill="#85D459" cx="227.8" cy="140.47" r="3"></circle>
            <path d="M911.73,541.02 C911.73,541.02 916.5,547.26 909.53,556.68 C902.56,566.1 896.81,574.05 899.13,579.93 C899.13,579.93 909.65,562.43 918.22,562.19 C926.79,561.95 921.16,551.54 911.73,541.02 Z" id="Path" fill="#281FB5"></path>
            <path d="M911.73,541.02 C912.158505,541.634676 912.495362,542.30839 912.73,543.02 C921.09,552.84 925.54,562.02 917.51,562.23 C910.03,562.44 901.05,575.82 898.9,579.23 C898.968927,579.491123 899.05239,579.74819 899.15,580 C899.15,580 909.67,562.5 918.24,562.26 C926.81,562.02 921.16,551.54 911.73,541.02 Z" id="Path" fill="#000000" opacity="0.1"></path>
            <path d="M920.6,548.97 C920.6,551.17 920.35,552.97 920.05,552.97 C919.75,552.97 919.5,551.19 919.5,548.97 C919.5,546.75 919.81,547.81 920.11,547.81 C920.41,547.81 920.6,546.77 920.6,548.97 Z" id="Path" fill="#FFD037"></path>
            <path d="M923.65,551.59 C921.72,552.64 920.04,553.28 919.9,553.01 C919.76,552.74 921.2,551.67 923.13,550.62 C925.06,549.57 924.3,550.33 924.44,550.62 C924.58,550.91 925.58,550.54 923.65,551.59 Z" id="Path" fill="#FFD037"></path>
            <path d="M886.53,541.02 C886.53,541.02 881.76,547.26 888.73,556.68 C895.7,566.1 901.45,574.05 899.13,579.93 C899.13,579.93 888.61,562.43 880.04,562.19 C871.47,561.95 877.11,551.54 886.53,541.02 Z" id="Path" fill="#281FB5"></path>
            <path d="M886.53,541.02 C886.101495,541.634676 885.764638,542.30839 885.53,543.02 C877.17,552.84 872.72,562.02 880.75,562.23 C888.23,562.44 897.21,575.82 899.36,579.23 C899.291073,579.491123 899.20761,579.74819 899.11,580 C899.11,580 888.59,562.5 880.02,562.26 C871.45,562.02 877.11,551.54 886.53,541.02 Z" id="Path" fill="#000000" opacity="0.1"></path>
            <path d="M877.66,548.97 C877.66,551.17 877.91,552.97 878.21,552.97 C878.51,552.97 878.76,551.19 878.76,548.97 C878.76,546.75 878.45,547.81 878.15,547.81 C877.85,547.81 877.66,546.77 877.66,548.97 Z" id="Path" fill="#FFD037"></path>
            <path d="M874.62,551.59 C876.55,552.64 878.23,553.28 878.37,553.01 C878.51,552.74 877.07,551.67 875.14,550.62 C873.21,549.57 873.97,550.33 873.83,550.62 C873.69,550.91 872.69,550.54 874.62,551.59 Z" id="Path" fill="#FFD037"></path>
            <path d="M931.8,581.35 C931.8,581.35 918.68,578.73 915.18,575.23 C911.68,571.73 895.93,565.61 894.18,569.98 C892.43,574.35 870.56,589.23 885.43,591.85 C900.3,594.47 920.43,595.35 924.8,593.6 C929.17,591.85 931.8,581.35 931.8,581.35 Z" id="Path" fill="#A8A8A8"></path>
            <path d="M885.43,590.22 C900.3,592.84 920.43,593.72 924.8,591.97 C928.13,590.64 930.45,584.24 931.36,581.26 L931.8,581.35 C931.8,581.35 929.18,591.85 924.8,593.6 C920.42,595.35 900.3,594.47 885.43,591.85 C881.14,591.09 879.91,589.31 880.37,587.06 C880.74,588.52 882.24,589.66 885.43,590.22 Z" id="Path" fill="#000000" opacity="0.2"></path>
            <path d="M837.8,410.98 C837.824818,359.151694 811.073169,310.988137 767.06,283.62 L687.8,410.98 L837.800017,413.62 C837.8,412.75 837.8,411.87 837.8,410.98 Z" id="Path" fill="url(#linearGradient-2)"></path>
            <path d="M831.8,406 C831.822359,358.318603 807.211274,314.008818 766.72,288.83 L693.8,406 L831.800015,408.47 C831.8,407.62 831.8,406.81 831.8,406 Z" id="Path" fill="#281FB5"></path>
            <path d="M1032.8,261.13 C1032.8,260.743333 1032.76333,260.373333 1032.69,260.02 C1032.61667,259.666667 1032.55,259.26 1032.49,258.8 C1032.34333,258 1032.18,257.226667 1032,256.48 C1031.90667,256.106667 1031.81,255.74 1031.71,255.38 C1030.61268,251.247742 1028.63786,247.400437 1025.92,244.1 L1025.45,243.56 C1025.13667,243.213333 1024.83,242.88 1024.53,242.56 C1024.23,242.24 1023.93333,241.953333 1023.64,241.7 C1023.35,241.43 1023.06,241.18 1022.79,240.95 C1022.24,240.49 1021.73,240.11 1021.27,239.79 C1020.81,239.47 1020.62,239.35 1020.35,239.19 C1019.69331,238.790609 1018.95499,238.544501 1018.19,238.47 L1013.43,237.99 L1006.99,237.35 L983.73,228.17 L982.81,228.5 C982.130974,226.596204 981.55678,224.65663 981.09,222.69 C981.797039,222.379485 982.425706,221.914817 982.93,221.33 C983.479643,220.892324 983.912497,220.325492 984.19,219.68 C984.77,218.31 983.65,215.37 983.88,213.68 C984.25,210.99 985.63,208.39 986.74,205.95 C989.13,200.71 990.87,195.03 990.59,189.28 C990.31,183.53 987.73,177.69 982.95,174.48 C980.48,172.82 977.57,171.93 975.01,170.41 C973.01,169.23 971.25,167.69 969.34,166.36 C959.855711,159.921895 947.65686,159.033666 937.34,164.03 C932.51,166.45 928.39,170.03 923.83,172.97 C919.27,175.91 913.9,178.1 908.57,177.25 C908.49489,177.467565 908.4413,177.691973 908.41,177.92 L907.96,177.86 C907.04,180.41 909.29,182.92 911.37,184.66 C915.31,187.96 919.77,191.25 924.91,191.37 C926.91,191.37 928.99,190.99 930.8,191.82 C931.194329,192.006719 931.563845,192.241865 931.9,192.52 C929.542116,201.976661 932.60506,211.962013 939.86,218.47 L927.99,214.13 C927.99,214.13 927.49,214.39 926.73,214.88 L910.24,203.73 C910.24,203.73 877.19,191.47 868.01,210.47 C858.83,229.47 907.8,219.62 907.8,219.62 L918.28,225.47 C917.933264,227.665497 918.338513,229.913744 919.43,231.85 L948,249.8 C942.23,251.61 932.74,254.5 931.06,254.5 C928.61,254.5 921.88,256.95 917.59,266.74 C913.3,276.53 898,324.28 884.54,332.23 C871.08,340.18 835.54,393.44 835.54,393.44 L835.7,393.86 C835.066667,394.026667 834.446667,394.213333 833.84,394.42 C824.96,397.36 818.98,403.55 815.39,408.57 C814.15158,410.290954 813.91338,412.537741 814.763423,414.480109 C815.613466,416.422477 817.425528,417.772004 819.53,418.03 C833.53,419.83 841.2,413.27 844.88,408.31 C845.12,407.99 845.34,407.67 845.55,407.37 C846.644326,407.847388 847.876287,407.904358 849.01,407.53 L866.17,393.47 C866.17,393.47 852.8,406.87 860.62,419.1 L860.02,419.95 C846.727153,439.239159 836.993714,460.751617 831.28,483.47 C831.28,483.47 823.93,488.98 823.28,511.01 C822.63,533.04 815.28,568.55 815.28,568.55 C815.28,568.55 810.38,610.78 813.44,623.64 C813.44,623.64 813.79,624.15 814.44,624.93 C814.21,625.21 813.96,625.5 813.68,625.81 C811.01,628.74 806.19,632.81 800.58,631.59 C792.01,629.75 792.01,645.06 804.25,646.28 C812.13,647.07 827.63,650.65 837.66,653.1 C839.901716,653.651146 842.271363,653.074788 844.009529,651.555635 C845.747696,650.036481 846.636089,647.765319 846.39,645.47 C845.79,639.99 844.7,633.35 842.72,628.63 C842.6,628.34 842.47,628.05 842.34,627.77 C842.7,627.43 843.06,627.08 843.42,626.7 C843.42,626.7 843.42,599.77 847.7,592.42 C847.7,592.42 859.33,536.72 858.7,522.64 C858.22,511.64 888.87,468.73 902.21,450.64 L902.1,449.95 C905.63,445.27 907.8,442.47 907.8,442.47 L918.21,509.19 C918.21,509.19 923.11,523.88 929.21,531.84 C929.21,531.84 955.53,582.64 958.59,598.56 C960.91,610.63 965.69,617.76 967.87,620.51 C967.62,620.77 967.35,621.03 967.07,621.29 C964.29,623.89 960.17,626.49 955.53,625.5 C946.96,623.66 946.96,638.97 959.2,640.19 C967.08,640.98 982.58,644.56 992.61,647.01 C994.851716,647.561146 997.221363,646.984788 998.959529,645.465635 C1000.6977,643.946481 1001.58609,641.675319 1001.34,639.38 C1000.65,633.01 999.28,625.09 996.64,620.38 C996.413333,619.986667 996.18,619.616667 995.94,619.27 C996.874697,618.887597 997.706898,618.291699 998.37,617.53 C998.37,617.53 982.46,578.97 982.46,568.53 C982.46,568.53 975.73,528.74 953.08,514.05 C953.08,514.05 955.22,464.29 961.67,436.6 C961.83,435.933333 961.993333,435.266667 962.16,434.6 C968.173644,433.644019 974.134699,432.382384 980.02,430.82 L980.63,412.46 L983.69,427.15 L1017.97,405.73 C1017.97,405.73 1017.67,401.87 1017.09,395.95 C1016.8,392.95 1016.44,389.52 1016.01,385.75 C1015.67,382.75 1015.28,379.54 1014.85,376.27 C1014.74333,375.45 1014.63333,374.63 1014.52,373.81 C1014.07,370.51 1013.58,367.17 1013.05,363.91 C1012.85,362.683333 1012.64333,361.47 1012.43,360.27 C1012.15,358.67 1011.86,357.1 1011.56,355.58 C1011.40667,354.82 1011.25333,354.07 1011.1,353.33 C1010.94667,352.59 1010.79,351.863333 1010.63,351.15 C1010.47,350.436667 1010.30667,349.74 1010.14,349.06 L1009.89,348.06 C1009.72333,347.393333 1009.55333,346.746667 1009.38,346.12 C1008.66374,343.509176 1008.24771,340.82515 1008.14,338.12 C1008.1,337.04 1008.1,335.963333 1008.14,334.89 C1008.18,333.816667 1008.28,332.743333 1008.44,331.67 C1008.51333,331.136667 1008.6,330.603333 1008.7,330.07 C1009.09522,327.939586 1009.67748,325.848158 1010.44,323.82 C1010.82,322.8 1011.24667,321.8 1011.72,320.82 C1012.83,318.51 1014.02,316 1015.24,313.36 C1015.85333,312.026667 1016.47333,310.676667 1017.1,309.31 C1017.72667,307.943333 1018.35333,306.543333 1018.98,305.11 C1024.98,291.62 1030.82,276.58 1032.39,266.7 C1032.56,265.7 1032.67,264.7 1032.74,263.76 C1032.8177,262.8856 1032.83774,262.007033 1032.8,261.13 Z" id="Path" fill="url(#linearGradient-3)"></path>
            <path d="M930.53,223.47 L910.34,209.81 C910.34,209.81 878.28,197.94 869.34,216.34 C860.4,234.74 907.93,225.25 907.93,225.25 L928.12,236.53 L930.53,223.47 Z" id="Path" fill="#F7BBC3"></path>
            <path d="M990.25,639.74 C980.51,637.37 965.49,633.89 957.84,633.13 C945.97,631.94 945.97,617.13 954.28,618.88 C958.79,619.88 962.78,617.32 965.48,614.8 C966.321176,614.012761 967.109551,613.170936 967.84,612.28 C968.819197,611.086999 970.172088,610.259058 971.68,609.93 C976.13,608.93 985.4,607.49 991.1,610.56 C992.415088,611.378056 993.477745,612.544556 994.17,613.93 C996.73,618.47 998.06,626.15 998.73,632.33 C998.972005,634.560264 998.109845,636.768202 996.420562,638.244334 C994.731278,639.720465 992.427684,640.278827 990.25,639.74 Z" id="Path" fill="#B77983"></path>
            <path d="M840.05,645.68 C830.31,643.31 815.29,639.83 807.64,639.07 C795.77,637.88 795.77,623.07 804.08,624.82 C809.52,625.99 814.2,622.06 816.79,619.22 C817.1,618.87 817.39,618.54 817.64,618.22 C818.619197,617.026999 819.972088,616.199058 821.48,615.87 C825.93,614.87 835.2,613.43 840.9,616.5 C842.57,617.4 843.9,619.38 844.97,621.93 C846.89,626.51 847.97,632.93 848.53,638.27 C848.772005,640.500264 847.909845,642.708202 846.220562,644.184334 C844.531278,645.660465 842.227684,646.218827 840.05,645.68 Z" id="Path" fill="#B77983"></path>
            <path d="M844.95,621.93 C830.77,636.54 818.62,621.66 816.78,619.2 C817.09,618.85 817.38,618.52 817.63,618.2 C818.609197,617.006999 819.962088,616.179058 821.47,615.85 C825.92,614.85 835.19,613.41 840.89,616.48 C842.55,617.4 843.89,619.38 844.95,621.93 Z" id="Path" fill="#000000" opacity="0.1"></path>
            <path d="M994.16,613.93 C988.02,618.13 967.34,617.09 967.34,617.09 C966.665001,616.369491 966.043358,615.600793 965.48,614.79 C966.321176,614.002761 967.109551,613.160936 967.84,612.27 C968.819197,611.076999 970.172088,610.249058 971.68,609.92 C976.13,608.92 985.4,607.48 991.1,610.55 C992.412785,611.372199 993.471993,612.542174 994.16,613.93 Z" id="Path" fill="#000000" opacity="0.1"></path>
            <path d="M995.24,611.16 C991.08,616.5 967.34,615.32 967.34,615.32 C967.34,615.32 960.22,608.2 957.25,592.76 C954.28,577.32 928.8,528.04 928.8,528.04 C922.86,520.32 918.11,506.04 918.11,506.04 L908.02,441.33 C908.02,441.33 859.29,505.47 859.88,519.14 C860.47,532.81 849.19,586.82 849.19,586.82 C845.03,593.94 845.03,620.07 845.03,620.07 C829.59,636.07 816.53,617.07 816.53,617.07 C813.53,604.6 818.31,563.64 818.31,563.64 C818.31,563.64 825.43,529.21 826.03,507.83 C826.63,486.45 833.8,481.14 833.8,481.14 C839.346624,459.114951 848.788685,438.259782 861.68,419.56 C865.27,414.42 867.68,411.68 867.68,411.68 L963.8,422.96 C961.954426,427.041008 960.565981,431.313661 959.66,435.7 C953.41,462.56 951.33,510.83 951.33,510.83 C973.33,525.08 979.83,563.67 979.83,563.67 C979.8,573.76 995.24,611.16 995.24,611.16 Z" id="Path" fill="#605D82"></path>
            <g id="Group" opacity="0.05" transform="translate(829.000000, 411.000000)" fill="#000000">
                <path d="M73.67,38.27 L72.44,30.36 C72.44,30.36 23.8,94.47 24.35,108.14 C24.9,121.81 13.66,175.82 13.66,175.82 C9.5,182.94 9.5,209.07 9.5,209.07 C7.01588438,211.888425 3.80071567,213.96496 0.21,215.07 C4.89,216.3 10.57,215.4 16.63,209.07 C16.63,209.07 16.63,182.95 20.79,175.82 C20.79,175.82 32.07,121.82 31.48,108.14 C31.01,97.47 60.74,55.84 73.67,38.27 Z" id="Path"></path>
                <path d="M151.4,152.66 C151.4,152.66 144.87,114.07 122.9,99.82 C122.9,99.82 124.98,51.56 131.23,24.69 C132.135981,20.3036609 133.524426,16.0310081 135.37,11.95 L39.19,0.67 L38.56,1.43 L128.25,11.95 C126.404426,16.0310081 125.015981,20.3036609 124.11,24.69 C117.86,51.55 115.78,99.82 115.78,99.82 C137.78,114.07 144.28,152.66 144.28,152.66 C144.28,162.75 159.72,200.16 159.72,200.16 C157.27,203.31 148.01,204.16 140.83,204.38 C146.53,204.53 163.41,204.58 166.83,200.16 C166.8,200.16 151.4,162.76 151.4,152.66 Z" id="Path"></path>
            </g>
            <path d="M849.8,403.36 C849.084476,405.11678 848.139607,406.771141 846.99,408.28 C843.42,413.09 835.99,419.45 822.4,417.71 C820.36654,417.444538 818.621318,416.131959 817.802147,414.251962 C816.982976,412.371965 817.209905,410.200062 818.4,408.53 C821.89,403.67 827.69,397.66 836.3,394.81 C838.755735,393.99443 841.300701,393.477379 843.88,393.27 L849.8,403.36 Z" id="Path" fill="#F7BBC3"></path>
            <path d="M975.17,237.33 L927.56,219.92 C927.56,219.92 913.9,227.04 919.25,237.14 L965.56,266.23 L975.17,237.33 Z" id="Path" fill="#D9D9EA"></path>
            <path d="M975.17,237.33 L927.56,219.92 C927.56,219.92 913.9,227.04 919.25,237.14 L965.56,266.23 L975.17,237.33 Z" id="Path" fill="#000000" opacity="0.1"></path>
            <path d="M976.8,208.63 C976.8,208.63 976.21,236.53 988.67,246.03 C1001.13,255.53 952.45,260.87 952.45,260.87 C952.45,260.87 960.17,232.37 952.45,217.53 C944.73,202.69 976.8,208.63 976.8,208.63 Z" id="Path" fill="#F7BBC3"></path>
            <path d="M963.8,422.96 C961.954426,427.041008 960.565981,431.313661 959.66,435.7 C902.24,444.47 862.28,420.58 862.28,420.58 C862.06,420.24 861.85,419.89 861.66,419.58 C865.25,414.44 867.66,411.7 867.66,411.7 L963.8,422.96 Z" id="Path" fill="#000000" opacity="0.1"></path>
            <path d="M849.8,403.36 C849.084476,405.11678 848.139607,406.771141 846.99,408.28 C841.49,407.37 837.1,396.86 836.29,394.81 C838.745735,393.99443 841.290701,393.477379 843.87,393.27 L849.8,403.36 Z" id="Path" fill="#000000" opacity="0.1"></path>
            <path d="M981.59,233.57 L960.22,241.29 L951.31,253.16 C951.31,253.16 932.91,259.1 930.53,259.1 C928.15,259.1 921.62,261.47 917.47,270.97 C913.32,280.47 898.47,326.78 885.41,334.5 C872.35,342.22 837.91,393.87 837.91,393.87 C837.91,393.87 843.85,409.87 850.97,407.53 L867.6,393.87 C867.6,393.87 854.54,406.93 862.26,418.81 C862.26,418.81 910.94,447.9 978.03,430.09 L978.62,412.28 L981.62,426.53 L1014.8,405.74 C1014.8,405.74 1011.8,367.42 1006.46,347.91 C1004.23718,339.711672 1005.05041,330.986342 1008.75,323.34 C1017.37,305.34 1030.67,275.34 1029.05,264.43 C1027.14,251.54 1019.85,245.94 1017.05,244.24 C1016.41323,243.857619 1015.69927,243.621909 1014.96,243.55 L1004.15,242.47 L981.59,233.57 Z" id="Path" fill="#D9D9EA"></path>
            <path d="M945.08,293.23 C945.08,293.23 933.2,348.47 920.14,357.35 C907.08,366.23 872.05,394.75 870.86,399.5" id="Path" fill="#000000" opacity="0.05"></path>
            <path d="M939.73,291.47 C939.73,291.47 927.86,346.67 914.8,355.57 C901.74,364.47 866.71,392.97 865.52,397.72" id="Path" fill="#D9D9EA"></path>
            <path d="M951.01,252.86 C951.01,252.86 992.01,239.2 1003.85,242.77" id="Path" fill="#000000" opacity="0.1"></path>
            <g id="Group" opacity="0.05" transform="translate(979.000000, 233.000000)" fill="#000000">
                <path d="M29.8,90.35 C38.42,72.35 51.72,42.35 50.1,31.44 C48.19,18.55 40.9,12.95 38.1,11.25 C37.4632314,10.8676185 36.7492692,10.6319085 36.01,10.56 L31.39,10.1 C31.872482,10.2159281 32.3344606,10.404766 32.76,10.66 C35.54,12.36 42.83,17.95 44.76,30.85 C46.38,41.79 33.08,71.79 24.46,89.76 C20.7604126,97.4063417 19.9471849,106.131672 22.17,114.33 C27.53,133.83 30.51,172.16 30.51,172.16 L1.88,190.05 L2.61,193.53 L35.8,172.74 C35.8,172.74 32.8,134.42 27.46,114.91 C25.2551978,106.708813 26.0861584,97.9872773 29.8,90.35 Z" id="Path"></path>
                <polygon id="Path" points="19.81 8.88 24.95 9.4 2.59 0.57 0.59 1.29"></polygon>
            </g>
            <path d="M939.73,349.04 C939.73,349.04 958.13,338.95 964.07,341.32 C970.01,343.69 991.97,340.73 991.97,340.73" id="Path" fill="#000000" opacity="0.05"></path>
            <path d="M974.8,216.05 C974.12,210.05 976.88,211.05 976.88,211.05 C976.88,211.05 944.8,205.07 952.5,219.91 C954.454931,224.001512 955.576687,228.440943 955.8,232.97 L956.1,232.97 C965,232.97 970.2,223.01 974.8,216.05 Z" id="Path" fill="#000000" opacity="0.05"></path>
            <circle id="Oval" fill="#F7BBC3" cx="956.06" cy="205.07" r="25.53"></circle>
            <path d="M983.92,212.62 C986.24,207.54 987.92,202.03 987.65,196.45 C987.38,190.87 984.87,185.21 980.24,182.09 C977.84,180.48 975.02,179.61 972.54,178.14 C970.6,176.99 968.89,175.5 967.04,174.21 C957.830479,167.950348 945.978202,167.088503 935.96,171.95 C931.27,174.3 927.28,177.8 922.86,180.62 C918.44,183.44 913.23,185.62 908.05,184.77 C907.16,187.24 909.34,189.68 911.36,191.37 C915.18,194.57 919.51,197.77 924.49,197.88 C926.42,197.88 928.49,197.51 930.2,198.32 C931.381303,198.969569 932.384233,199.90037 933.12,201.03 C935.515999,204.215234 937.545468,207.660299 939.17,211.3 C939.84,212.79 940.51,214.41 941.88,215.3 C944.17,216.77 947.15,215.55 949.88,215.44 C954.11,215.28 957.88,217.94 961.04,220.78 C964.2,223.62 967.15,226.88 971.1,228.38 C974.1,229.5 979.95,229.46 981.45,225.94 C982.02,224.61 980.93,221.76 981.15,220.14 C981.5,217.47 982.8,214.99 983.92,212.62 Z" id="Path" fill="#000000" opacity="0.1"></path>
            <path d="M984.51,212.03 C986.83,206.95 988.51,201.44 988.24,195.86 C987.97,190.28 985.46,184.62 980.83,181.5 C978.43,179.89 975.61,179.02 973.13,177.55 C971.19,176.4 969.48,174.91 967.63,173.62 C958.420479,167.360348 946.568202,166.498503 936.55,171.36 C931.86,173.71 927.87,177.21 923.45,180.03 C919.03,182.85 913.82,185.03 908.64,184.18 C907.75,186.65 909.93,189.09 911.95,190.78 C915.77,193.98 920.1,197.18 925.08,197.29 C927.01,197.29 929.08,196.92 930.79,197.73 C931.971303,198.379569 932.974233,199.31037 933.71,200.44 C936.119284,203.62016 938.162197,207.061914 939.8,210.7 C940.47,212.19 941.14,213.81 942.51,214.7 C944.8,216.17 947.78,214.95 950.51,214.84 C954.74,214.68 958.51,217.34 961.67,220.18 C964.83,223.02 967.78,226.28 971.73,227.78 C974.73,228.9 980.58,228.86 982.08,225.34 C982.65,224.01 981.56,221.16 981.78,219.54 C982.09,216.91 983.43,214.39 984.51,212.03 Z" id="Path" fill="#A1616A"></path>
        </g>
    </g>
</svg>