<?xml version="1.0" encoding="UTF-8"?>
<svg width="279px" height="39px" viewBox="0 0 279 39" version="1.1" xmlns="http://www.w3.org/2000/svg" xmlns:xlink="http://www.w3.org/1999/xlink">
    <!-- Generator: Sketch 52.1 (67048) - http://www.bohemiancoding.com/sketch -->
    <title>static/logo</title>
    <desc>Created with Sketch.</desc>
    <g id="static/logo" stroke="none" stroke-width="1" fill="none" fill-rule="evenodd">
        <g id="Logo/Dots" fill="#281FB5" fill-rule="nonzero">
            <circle id="Oval" cx="5.5" cy="5.5" r="5.5"></circle>
            <circle id="Oval-Copy-3" cx="5.5" cy="19.5" r="5.5"></circle>
            <circle id="Oval-Copy-6" cx="5.5" cy="33.5" r="5.5"></circle>
            <circle id="Oval-Copy" cx="19.5" cy="5.5" r="5.5"></circle>
            <circle id="Oval-Copy-4" cx="19.5" cy="19.5" r="5.5"></circle>
            <circle id="Oval-Copy-7" cx="19.5" cy="33.5" r="5.5"></circle>
            <circle id="Oval-Copy-2" cx="33.5" cy="5.5" r="5.5"></circle>
            <circle id="Oval-Copy-5" cx="33.5" cy="19.5" r="5.5"></circle>
            <circle id="Oval-Copy-8" cx="33.5" cy="33.5" r="5.5"></circle>
        </g>
        <g id="Logo/Text/Outlines" transform="translate(51.000000, 0.000000)">
            <g id="Group">
                <rect id="Rectangle" fill-rule="nonzero" x="0" y="0" width="231" height="39"></rect>
                <path d="M12.48,13.528 C14.080008,13.528 15.5359934,13.8959963 16.848,14.632 C18.1600066,15.3680037 19.1893296,16.40266 19.936,17.736 C20.6826704,19.06934 21.056,20.6213245 21.056,22.392 C21.056,24.1626755 20.6826704,25.71466 19.936,27.048 C19.1893296,28.38134 18.1600066,29.4159963 16.848,30.152 C15.5359934,30.8880037 14.080008,31.256 12.48,31.256 C10.1119882,31.256 8.30933952,30.5093408 7.072,29.016 L7.072,31 L2.304,31 L2.304,7.256 L7.296,7.256 L7.296,15.608 C8.55467296,14.2213264 10.2826557,13.528 12.48,13.528 Z M11.616,27.16 C12.8960064,27.16 13.9466626,26.7280043 14.768,25.864 C15.5893374,24.9999957 16,23.8426739 16,22.392 C16,20.9413261 15.5893374,19.7840043 14.768,18.92 C13.9466626,18.0559957 12.8960064,17.624 11.616,17.624 C10.3359936,17.624 9.28533744,18.0559957 8.464,18.92 C7.64266256,19.7840043 7.232,20.9413261 7.232,22.392 C7.232,23.8426739 7.64266256,24.9999957 8.464,25.864 C9.28533744,26.7280043 10.3359936,27.16 11.616,27.16 Z M41.248,22.456 C41.248,22.5200003 41.2160003,22.9679958 41.152,23.8 L28.128,23.8 C28.3626678,24.866672 28.917329,25.7093302 29.792,26.328 C30.666671,26.9466698 31.7546602,27.256 33.056,27.256 C33.9520045,27.256 34.7466632,27.122668 35.44,26.856 C36.1333368,26.589332 36.7786637,26.1680029 37.376,25.592 L40.032,28.472 C38.4106586,30.3280093 36.0426822,31.256 32.928,31.256 C30.986657,31.256 29.2693408,30.8773371 27.776,30.12 C26.2826592,29.3626629 25.1306707,28.3120067 24.32,26.968 C23.5093293,25.6239933 23.104,24.0986752 23.104,22.392 C23.104,20.7066582 23.503996,19.1866734 24.304,17.832 C25.104004,16.4773266 26.2026597,15.4213371 27.6,14.664 C28.9973403,13.9066629 30.5599914,13.528 32.288,13.528 C33.9733418,13.528 35.4986598,13.890663 36.864,14.616 C38.2293402,15.341337 39.3013294,16.3813266 40.08,17.736 C40.8586706,19.0906734 41.248,20.663991 41.248,22.456 Z M32.32,17.304 C31.1893277,17.304 30.2400038,17.6239968 29.472,18.264 C28.7039962,18.9040032 28.2346675,19.7786611 28.064,20.888 L36.544,20.888 C36.3733325,19.7999946 35.9040038,18.9306699 35.136,18.28 C34.3679962,17.6293301 33.4293389,17.304 32.32,17.304 Z M55.68,30.168 C55.1893309,30.5306685 54.5866702,30.8026658 53.872,30.984 C53.1573298,31.1653342 52.4053373,31.256 51.616,31.256 C49.5679898,31.256 47.9840056,30.7333386 46.864,29.688 C45.7439944,28.6426614 45.184,27.1066768 45.184,25.08 L45.184,18.008 L42.528,18.008 L42.528,14.168 L45.184,14.168 L45.184,9.976 L50.176,9.976 L50.176,14.168 L54.464,14.168 L54.464,18.008 L50.176,18.008 L50.176,25.016 C50.176,25.741337 50.3626648,26.3013314 50.736,26.696 C51.1093352,27.0906686 51.6373299,27.288 52.32,27.288 C53.1093373,27.288 53.7813306,27.0746688 54.336,26.648 L55.68,30.168 Z M69.216,30.168 C68.7253309,30.5306685 68.1226702,30.8026658 67.408,30.984 C66.6933298,31.1653342 65.9413373,31.256 65.152,31.256 C63.1039898,31.256 61.5200056,30.7333386 60.4,29.688 C59.2799944,28.6426614 58.72,27.1066768 58.72,25.08 L58.72,18.008 L56.064,18.008 L56.064,14.168 L58.72,14.168 L58.72,9.976 L63.712,9.976 L63.712,14.168 L68,14.168 L68,18.008 L63.712,18.008 L63.712,25.016 C63.712,25.741337 63.8986648,26.3013314 64.272,26.696 C64.6453352,27.0906686 65.1733299,27.288 65.856,27.288 C66.6453373,27.288 67.3173306,27.0746688 67.872,26.648 L69.216,30.168 Z M88.352,22.456 C88.352,22.5200003 88.3200003,22.9679958 88.256,23.8 L75.232,23.8 C75.4666678,24.866672 76.021329,25.7093302 76.896,26.328 C77.770671,26.9466698 78.8586602,27.256 80.16,27.256 C81.0560045,27.256 81.8506632,27.122668 82.544,26.856 C83.2373368,26.589332 83.8826637,26.1680029 84.48,25.592 L87.136,28.472 C85.5146586,30.3280093 83.1466822,31.256 80.032,31.256 C78.090657,31.256 76.3733408,30.8773371 74.88,30.12 C73.3866592,29.3626629 72.2346707,28.3120067 71.424,26.968 C70.6133293,25.6239933 70.208,24.0986752 70.208,22.392 C70.208,20.7066582 70.607996,19.1866734 71.408,17.832 C72.208004,16.4773266 73.3066597,15.4213371 74.704,14.664 C76.1013403,13.9066629 77.6639914,13.528 79.392,13.528 C81.0773418,13.528 82.6026598,13.890663 83.968,14.616 C85.3333402,15.341337 86.4053294,16.3813266 87.184,17.736 C87.9626706,19.0906734 88.352,20.663991 88.352,22.456 Z M79.424,17.304 C78.2933277,17.304 77.3440038,17.6239968 76.576,18.264 C75.8079962,18.9040032 75.3386675,19.7786611 75.168,20.888 L83.648,20.888 C83.4773325,19.7999946 83.0080038,18.9306699 82.24,18.28 C81.4719962,17.6293301 80.5333389,17.304 79.424,17.304 Z M96.448,16.056 C97.0453363,15.2239958 97.8506616,14.5946688 98.864,14.168 C99.8773384,13.7413312 101.045327,13.528 102.368,13.528 L102.368,18.136 C101.813331,18.0933331 101.440001,18.072 101.248,18.072 C99.8186595,18.072 98.6986707,18.471996 97.888,19.272 C97.0773293,20.072004 96.672,21.271992 96.672,22.872 L96.672,31 L91.68,31 L91.68,13.784 L96.448,13.784 L96.448,16.056 Z M114.944,14.168 C116.501341,14.168 117.909327,14.530663 119.168,15.256 C120.426673,15.981337 121.41333,16.9839936 122.128,18.264 C122.84267,19.5440064 123.2,21.0053251 123.2,22.648 C123.2,24.2906749 122.84267,25.7573269 122.128,27.048 C121.41333,28.3386731 120.426673,29.3413298 119.168,30.056 C117.909327,30.7706702 116.501341,31.128 114.944,31.128 C113.471993,31.128 112.138673,30.7813368 110.944,30.088 C109.749327,29.3946632 108.821337,28.4293395 108.16,27.192 L108.16,37.208 L106.56,37.208 L106.56,14.296 L108.096,14.296 L108.096,18.232 C108.757337,16.9519936 109.690661,15.9546702 110.896,15.24 C112.101339,14.5253298 113.450659,14.168 114.944,14.168 Z M114.848,29.688 C116.128006,29.688 117.279995,29.3893363 118.304,28.792 C119.328005,28.1946637 120.13333,27.362672 120.72,26.296 C121.30667,25.229328 121.6,24.0133402 121.6,22.648 C121.6,21.2826598 121.30667,20.066672 120.72,19 C120.13333,17.933328 119.328005,17.1013363 118.304,16.504 C117.279995,15.9066637 116.128006,15.608 114.848,15.608 C113.567994,15.608 112.421338,15.9066637 111.408,16.504 C110.394662,17.1013363 109.59467,17.933328 109.008,19 C108.42133,20.066672 108.128,21.2826598 108.128,22.648 C108.128,24.0133402 108.42133,25.229328 109.008,26.296 C109.59467,27.362672 110.394662,28.1946637 111.408,28.792 C112.421338,29.3893363 113.567994,29.688 114.848,29.688 Z M142.272,23.032 L127.904,23.032 C127.946667,24.3333398 128.27733,25.4906616 128.896,26.504 C129.51467,27.5173384 130.351995,28.3013306 131.408,28.856 C132.464005,29.4106694 133.653327,29.688 134.976,29.688 C136.064005,29.688 137.071995,29.4906686 138,29.096 C138.928005,28.7013314 139.70133,28.1200038 140.32,27.352 L141.248,28.408 C140.522663,29.282671 139.610672,29.9546643 138.512,30.424 C137.413328,30.8933357 136.224006,31.128 134.944,31.128 C133.279992,31.128 131.79734,30.765337 130.496,30.04 C129.19466,29.314663 128.176004,28.3120064 127.44,27.032 C126.703996,25.7519936 126.336,24.2906749 126.336,22.648 C126.336,21.0266586 126.682663,19.5706731 127.376,18.28 C128.069337,16.9893269 129.023994,15.981337 130.24,15.256 C131.456006,14.530663 132.821326,14.168 134.336,14.168 C135.850674,14.168 137.210661,14.5253298 138.416,15.24 C139.621339,15.9546702 140.570663,16.9519936 141.264,18.232 C141.957337,19.5120064 142.304,20.9626586 142.304,22.584 L142.272,23.032 Z M134.336,15.576 C133.162661,15.576 132.106671,15.8373307 131.168,16.36 C130.229329,16.8826693 129.477336,17.6186619 128.912,18.568 C128.346664,19.5173381 128.021334,20.5893274 127.936,21.784 L140.736,21.784 C140.672,20.5893274 140.352003,19.5226714 139.776,18.584 C139.199997,17.6453286 138.442671,16.909336 137.504,16.376 C136.565329,15.842664 135.509339,15.576 134.336,15.576 Z M155.424,14.168 C157.514677,14.168 159.167994,14.7759939 160.384,15.992 C161.600006,17.2080061 162.208,18.9573219 162.208,21.24 L162.208,31 L160.608,31 L160.608,21.368 C160.608,19.4906573 160.133338,18.0613382 159.184,17.08 C158.234662,16.0986618 156.906675,15.608 155.2,15.608 C153.237324,15.608 151.690672,16.1946608 150.56,17.368 C149.429328,18.5413392 148.864,20.1199901 148.864,22.104 L148.864,31 L147.264,31 L147.264,14.296 L148.8,14.296 L148.8,17.912 C149.376003,16.7386608 150.234661,15.8213366 151.376,15.16 C152.517339,14.4986634 153.866659,14.168 155.424,14.168 Z M173.024,31.128 C171.679993,31.128 170.400006,30.9253354 169.184,30.52 C167.967994,30.1146646 167.01867,29.6026698 166.336,28.984 L167.072,27.704 C167.75467,28.2800029 168.634661,28.7599981 169.712,29.144 C170.789339,29.5280019 171.914661,29.72 173.088,29.72 C174.773342,29.72 176.015996,29.4426694 176.816,28.888 C177.616004,28.3333306 178.016,27.5653382 178.016,26.584 C178.016,25.8799965 177.797336,25.3253354 177.36,24.92 C176.922664,24.5146646 176.384003,24.216001 175.744,24.024 C175.103997,23.831999 174.218672,23.6293344 173.088,23.416 C171.765327,23.1813322 170.698671,22.9253347 169.888,22.648 C169.077329,22.3706653 168.384003,21.9226698 167.808,21.304 C167.231997,20.6853302 166.944,19.8320054 166.944,18.744 C166.944,17.4213267 167.493328,16.3280043 168.592,15.464 C169.690672,14.5999957 171.253323,14.168 173.28,14.168 C174.346672,14.168 175.402661,14.3173318 176.448,14.616 C177.493339,14.9146682 178.346663,15.3093309 179.008,15.8 L178.272,17.08 C177.58933,16.5893309 176.810671,16.2160013 175.936,15.96 C175.061329,15.7039987 174.165338,15.576 173.248,15.576 C171.690659,15.576 170.517337,15.8639971 169.728,16.44 C168.938663,17.0160029 168.544,17.7733286 168.544,18.712 C168.544,19.4586704 168.767998,20.0399979 169.216,20.456 C169.664002,20.8720021 170.21333,21.1813323 170.864,21.384 C171.51467,21.5866677 172.426661,21.8053322 173.6,22.04 C174.90134,22.2746678 175.951996,22.525332 176.752,22.792 C177.552004,23.058668 178.229331,23.4906637 178.784,24.088 C179.338669,24.6853363 179.616,25.5066614 179.616,26.552 C179.616,27.9386736 179.040006,29.0479958 177.888,29.88 C176.735994,30.7120042 175.114677,31.128 173.024,31.128 Z M184.096,14.296 L185.696,14.296 L185.696,31 L184.096,31 L184.096,14.296 Z M184.896,10.232 C184.533332,10.232 184.224001,10.1093346 183.968,9.864 C183.711999,9.61866544 183.584,9.31466848 183.584,8.952 C183.584,8.58933152 183.711999,8.28000128 183.968,8.024 C184.224001,7.76799872 184.533332,7.64 184.896,7.64 C185.258668,7.64 185.567999,7.76266544 185.824,8.008 C186.080001,8.25333456 186.208,8.55733152 186.208,8.92 C186.208,9.28266848 186.080001,9.59199872 185.824,9.848 C185.567999,10.1040013 185.258668,10.232 184.896,10.232 Z M198.976,31.128 C197.397325,31.128 195.97334,30.765337 194.704,30.04 C193.43466,29.314663 192.437337,28.3066731 191.712,27.016 C190.986663,25.7253269 190.624,24.2693414 190.624,22.648 C190.624,21.0266586 190.986663,19.5706731 191.712,18.28 C192.437337,16.9893269 193.43466,15.981337 194.704,15.256 C195.97334,14.530663 197.397325,14.168 198.976,14.168 C200.554675,14.168 201.97866,14.530663 203.248,15.256 C204.51734,15.981337 205.514663,16.9893269 206.24,18.28 C206.965337,19.5706731 207.328,21.0266586 207.328,22.648 C207.328,24.2693414 206.965337,25.7253269 206.24,27.016 C205.514663,28.3066731 204.51734,29.314663 203.248,30.04 C201.97866,30.765337 200.554675,31.128 198.976,31.128 Z M198.976,29.688 C200.256006,29.688 201.402662,29.3893363 202.416,28.792 C203.429338,28.1946637 204.22933,27.362672 204.816,26.296 C205.40267,25.229328 205.696,24.0133402 205.696,22.648 C205.696,21.2826598 205.40267,20.066672 204.816,19 C204.22933,17.933328 203.429338,17.1013363 202.416,16.504 C201.402662,15.9066637 200.256006,15.608 198.976,15.608 C197.695994,15.608 196.549338,15.9066637 195.536,16.504 C194.522662,17.1013363 193.72267,17.933328 193.136,19 C192.54933,20.066672 192.256,21.2826598 192.256,22.648 C192.256,24.0133402 192.54933,25.229328 193.136,26.296 C193.72267,27.362672 194.522662,28.1946637 195.536,28.792 C196.549338,29.3893363 197.695994,29.688 198.976,29.688 Z M220.448,14.168 C222.538677,14.168 224.191994,14.7759939 225.408,15.992 C226.624006,17.2080061 227.232,18.9573219 227.232,21.24 L227.232,31 L225.632,31 L225.632,21.368 C225.632,19.4906573 225.157338,18.0613382 224.208,17.08 C223.258662,16.0986618 221.930675,15.608 220.224,15.608 C218.261324,15.608 216.714672,16.1946608 215.584,17.368 C214.453328,18.5413392 213.888,20.1199901 213.888,22.104 L213.888,31 L212.288,31 L212.288,14.296 L213.824,14.296 L213.824,17.912 C214.400003,16.7386608 215.258661,15.8213366 216.4,15.16 C217.541339,14.4986634 218.890659,14.168 220.448,14.168 Z" id="betterpension" fill="#000000"></path>
            </g>
        </g>
    </g>
</svg>